<svg width="698" height="371" viewBox="0 0 698 371" fill="none" xmlns="http://www.w3.org/2000/svg">
<g filter="url(#filter0_d_2_8528)">
<path d="M360.638 68C323.235 68.0002 295.517 92.4678 293.079 123.439C290.995 122.847 288.79 122.53 286.5 122.53C273.592 122.53 263.134 132.601 263.134 145.025C263.134 146.089 263.216 147.134 263.367 148.155C256.335 149.355 250.399 153.59 247.052 159.39C245.466 159.054 243.819 158.885 242.137 158.885C234.5 158.885 227.707 162.417 223.463 167.875C215.319 162.22 205.314 158.885 194.49 158.885C170.11 158.885 149.832 175.82 145.651 198.137C145.395 198.128 145.126 198.128 144.869 198.128C131.276 198.128 118.948 203.399 109.985 211.936C107.983 211.594 105.925 211.422 103.826 211.422C84.0463 211.422 68.0088 226.867 68.0088 245.91H68V326.334H653.675V245.91H653.666C653.666 226.867 637.629 211.422 617.85 211.422C615.75 211.422 613.692 211.594 611.689 211.936C602.727 203.399 590.4 198.128 576.807 198.128C576.55 198.128 576.28 198.128 576.023 198.137C571.843 175.819 551.565 158.885 527.185 158.885C516.361 158.885 506.356 162.22 498.212 167.875C493.968 162.417 487.174 158.885 479.538 158.885C477.856 158.885 476.209 159.054 474.623 159.39C471.276 153.59 465.34 149.355 458.308 148.155C458.459 147.134 458.541 146.089 458.541 145.025C458.541 132.601 448.082 122.53 435.175 122.53C432.885 122.53 430.68 122.847 428.596 123.439C426.158 92.4677 398.44 68.0001 361.037 68C360.971 68 360.904 68.0008 360.838 68.001C360.771 68.0008 360.704 68 360.638 68Z" fill="url(#paint0_linear_2_8528)"/>
</g>
<defs>
<filter id="filter0_d_2_8528" x="0" y="0" width="697.675" height="370.334" filterUnits="userSpaceOnUse" color-interpolation-filters="sRGB">
<feFlood flood-opacity="0" result="BackgroundImageFix"/>
<feColorMatrix in="SourceAlpha" type="matrix" values="0 0 0 0 0 0 0 0 0 0 0 0 0 0 0 0 0 0 127 0" result="hardAlpha"/>
<feOffset dx="-12" dy="-12"/>
<feGaussianBlur stdDeviation="28"/>
<feComposite in2="hardAlpha" operator="out"/>
<feColorMatrix type="matrix" values="0 0 0 0 0 0 0 0 0 0 0 0 0 0 0 0 0 0 0.35 0"/>
<feBlend mode="normal" in2="BackgroundImageFix" result="effect1_dropShadow_2_8528"/>
<feBlend mode="normal" in="SourceGraphic" in2="effect1_dropShadow_2_8528" result="shape"/>
</filter>
<linearGradient id="paint0_linear_2_8528" x1="340.053" y1="197.167" x2="345.026" y2="83.6017" gradientUnits="userSpaceOnUse">
<stop stop-color="#2D1060"/>
<stop offset="1" stop-color="#6A44CC"/>
</linearGradient>
</defs>
</svg>
