<svg width="361" height="318" viewBox="0 0 361 318" fill="none" xmlns="http://www.w3.org/2000/svg">
<g filter="url(#filter0_d_2_838)">
<path d="M316.088 233.012C316.088 255.396 296.719 273.542 272.823 273.542H0V136.431C0 98.6392 30.6392 68 68.431 68C101.018 68 128.288 90.7778 135.179 121.285C151.615 123.339 164.464 136.932 165.365 153.688C168.094 153.008 170.942 152.636 173.876 152.636C183.823 152.636 192.793 156.842 199.102 163.56C206.79 156.956 217.043 152.939 228.285 152.939C251.835 152.939 270.989 170.565 271.531 192.507C271.96 192.492 272.385 192.482 272.82 192.482C296.716 192.482 316.085 210.628 316.085 233.012H316.088Z" fill="url(#paint0_linear_2_838)"/>
</g>
<defs>
<filter id="filter0_d_2_838" x="-68" y="0" width="428.088" height="317.542" filterUnits="userSpaceOnUse" color-interpolation-filters="sRGB">
<feFlood flood-opacity="0" result="BackgroundImageFix"/>
<feColorMatrix in="SourceAlpha" type="matrix" values="0 0 0 0 0 0 0 0 0 0 0 0 0 0 0 0 0 0 127 0" result="hardAlpha"/>
<feOffset dx="-12" dy="-12"/>
<feGaussianBlur stdDeviation="28"/>
<feComposite in2="hardAlpha" operator="out"/>
<feColorMatrix type="matrix" values="0 0 0 0 0 0 0 0 0 0 0 0 0 0 0 0 0 0 0.35 0"/>
<feBlend mode="normal" in2="BackgroundImageFix" result="effect1_dropShadow_2_838"/>
<feBlend mode="normal" in="SourceGraphic" in2="effect1_dropShadow_2_838" result="shape"/>
</filter>
<linearGradient id="paint0_linear_2_838" x1="169.261" y1="170.771" x2="163.441" y2="80.6159" gradientUnits="userSpaceOnUse">
<stop stop-color="#2D1060"/>
<stop offset="1" stop-color="#6A44CC"/>
</linearGradient>
</defs>
</svg>
