<svg width="366" height="318" viewBox="0 0 366 318" fill="none" xmlns="http://www.w3.org/2000/svg">
<g filter="url(#filter0_d_2_8527)">
<path d="M68.0001 233.012C68.0001 255.396 87.3686 273.542 111.265 273.542H384.088V136.431C384.088 98.6392 353.449 68 315.657 68C283.07 68 255.799 90.7778 248.908 121.285C232.473 123.339 219.624 136.932 218.723 153.688C215.994 153.008 213.146 152.636 210.212 152.636C200.265 152.636 191.294 156.842 184.986 163.56C177.298 156.956 167.045 152.939 155.803 152.939C132.253 152.939 113.099 170.565 112.557 192.507C112.128 192.492 111.703 192.482 111.268 192.482C87.3718 192.482 68.0033 210.628 68.0033 233.012H68.0001Z" fill="url(#paint0_linear_2_8527)"/>
</g>
<defs>
<filter id="filter0_d_2_8527" x="0" y="0" width="428.088" height="317.542" filterUnits="userSpaceOnUse" color-interpolation-filters="sRGB">
<feFlood flood-opacity="0" result="BackgroundImageFix"/>
<feColorMatrix in="SourceAlpha" type="matrix" values="0 0 0 0 0 0 0 0 0 0 0 0 0 0 0 0 0 0 127 0" result="hardAlpha"/>
<feOffset dx="-12" dy="-12"/>
<feGaussianBlur stdDeviation="28"/>
<feComposite in2="hardAlpha" operator="out"/>
<feColorMatrix type="matrix" values="0 0 0 0 0 0 0 0 0 0 0 0 0 0 0 0 0 0 0.35 0"/>
<feBlend mode="normal" in2="BackgroundImageFix" result="effect1_dropShadow_2_8527"/>
<feBlend mode="normal" in="SourceGraphic" in2="effect1_dropShadow_2_8527" result="shape"/>
</filter>
<linearGradient id="paint0_linear_2_8527" x1="214.827" y1="170.771" x2="220.647" y2="80.6159" gradientUnits="userSpaceOnUse">
<stop stop-color="#2D1060"/>
<stop offset="1" stop-color="#6A44CC"/>
</linearGradient>
</defs>
</svg>
