<svg width="698" height="371" viewBox="0 0 698 371" fill="none" xmlns="http://www.w3.org/2000/svg">
<g filter="url(#filter0_d_2_8523)">
<path d="M361.037 68C398.44 68.0002 426.158 92.4678 428.596 123.439C430.68 122.847 432.885 122.53 435.175 122.53C448.082 122.53 458.541 132.601 458.541 145.025C458.541 146.089 458.459 147.134 458.308 148.155C465.34 149.355 471.276 153.59 474.623 159.39C476.209 159.054 477.856 158.885 479.538 158.885C487.174 158.885 493.968 162.417 498.212 167.875C506.356 162.22 516.361 158.885 527.185 158.885C551.565 158.885 571.843 175.82 576.023 198.137C576.28 198.128 576.549 198.128 576.806 198.128C590.399 198.128 602.727 203.399 611.689 211.936C613.692 211.594 615.749 211.422 617.849 211.422C637.629 211.422 653.666 226.867 653.666 245.91H653.675V326.334H68V245.91H68.0088C68.0088 226.867 84.0455 211.422 103.825 211.422C105.925 211.422 107.983 211.594 109.985 211.936C118.948 203.399 131.275 198.128 144.868 198.128C145.125 198.128 145.395 198.128 145.651 198.137C149.832 175.819 170.11 158.885 194.49 158.885C205.314 158.885 215.319 162.22 223.463 167.875C227.707 162.417 234.5 158.885 242.137 158.885C243.819 158.885 245.466 159.054 247.052 159.39C250.399 153.59 256.335 149.355 263.367 148.155C263.216 147.134 263.134 146.089 263.134 145.025C263.134 132.601 273.592 122.53 286.5 122.53C288.79 122.53 290.995 122.847 293.079 123.439C295.517 92.4677 323.235 68.0001 360.638 68C360.704 68 360.771 68.0008 360.837 68.001C360.904 68.0008 360.97 68 361.037 68Z" fill="url(#paint0_linear_2_8523)"/>
</g>
<defs>
<filter id="filter0_d_2_8523" x="0" y="0" width="697.675" height="370.334" filterUnits="userSpaceOnUse" color-interpolation-filters="sRGB">
<feFlood flood-opacity="0" result="BackgroundImageFix"/>
<feColorMatrix in="SourceAlpha" type="matrix" values="0 0 0 0 0 0 0 0 0 0 0 0 0 0 0 0 0 0 127 0" result="hardAlpha"/>
<feOffset dx="-12" dy="-12"/>
<feGaussianBlur stdDeviation="28"/>
<feComposite in2="hardAlpha" operator="out"/>
<feColorMatrix type="matrix" values="0 0 0 0 0 0 0 0 0 0 0 0 0 0 0 0 0 0 0.35 0"/>
<feBlend mode="normal" in2="BackgroundImageFix" result="effect1_dropShadow_2_8523"/>
<feBlend mode="normal" in="SourceGraphic" in2="effect1_dropShadow_2_8523" result="shape"/>
</filter>
<linearGradient id="paint0_linear_2_8523" x1="381.622" y1="197.167" x2="376.649" y2="83.6017" gradientUnits="userSpaceOnUse">
<stop stop-color="#2D1060"/>
<stop offset="1" stop-color="#6A44CC"/>
</linearGradient>
</defs>
</svg>
