<svg width="380" height="280" viewBox="0 0 380 280" fill="none" xmlns="http://www.w3.org/2000/svg">
<g filter="url(#filter0_d_2_8125)">
<path d="M327.23 216.042C325.008 218.404 330.006 218.162 331.637 219.867C333.267 221.572 325.838 223.212 322.947 222.67C320.056 222.128 315.198 228.727 315.198 228.727C315.198 228.727 305.476 229.553 298.489 229.011C297.182 228.91 295.996 228.874 294.895 228.883C290.057 228.942 286.885 229.981 283.713 231.02C281.328 231.797 262.355 230.347 245.534 229.279L241.559 229.027C232.549 228.482 224.64 228.106 220.978 228.357C210.096 229.092 175.204 229.867 169.941 229.769C164.679 229.671 160.291 229.658 160.141 231.859C160.095 232.47 159.056 233.035 157.443 233.522C153.271 234.77 145.281 235.528 140.854 235.417C134.69 235.26 99.7352 228.727 93.3552 227.923C93.3552 227.923 81.2192 225.718 76.9168 224.431C75.4337 223.99 69.3249 222.928 68.4428 221.556C66.7866 218.979 71.1837 215.48 72.2061 214.121C72.2061 214.121 73.3463 214.353 73.3626 214.34L76.6294 216.231L105.913 195.693L112.861 192.753C112.861 192.753 330.552 206.513 334.24 208.365C337.928 210.217 329.451 213.699 327.23 216.042Z" fill="#FFC240"/>
<path d="M245.864 229.089L245.322 229.321C243.976 229.233 242.647 229.151 241.343 229.073C232.333 228.524 224.425 228.148 220.762 228.4C209.878 229.138 174.989 229.909 169.722 229.811C164.456 229.713 160.076 229.7 159.922 231.902C159.769 234.103 146.773 235.619 140.648 235.462C134.523 235.306 99.5261 228.795 93.1527 227.978C93.1527 227.978 81.0166 225.773 76.7143 224.489C72.412 223.205 72.0461 220.373 73.6109 218.282C75.045 217.792 76.4072 217.302 77.6715 216.835C95.6387 210.096 111.071 221.935 122.818 222.239C134.566 222.542 145.588 219.609 152.624 218.906C159.661 218.204 166.472 228.749 177.651 227.106C188.83 225.463 171.669 220.644 177.412 220.069C184.926 219.315 209.597 225.509 217.329 225.812C228.492 226.253 190.257 213.689 186.687 213.297L219.028 216.084L245.864 229.089Z" fill="#F8A940"/>
<path d="M306.646 225.169C303.471 225.515 299.492 227.08 294.885 228.87C290.047 228.929 286.875 229.968 283.703 231.007C281.126 231.85 259.203 230.089 241.562 229.014C227.704 224.522 217.061 220.079 219.328 220.236C219.328 220.236 290.312 217.646 292.628 217.825C294.944 218.005 316.626 224.071 306.646 225.169Z" fill="#FC923C"/>
<path d="M160.121 231.846C160.121 231.846 159.141 232.499 157.423 233.509C153.251 234.757 145.261 235.515 140.834 235.404C134.69 235.26 99.7352 228.726 93.3552 227.923C93.3552 227.923 81.2191 225.718 76.9168 224.431C74.8587 223.826 68.4689 222.895 68.0312 220.559C67.5575 218.047 72.6341 213.673 72.6439 213.667L76.6293 216.221C79.001 216.835 82.0946 218.57 88.7523 219.086C100.395 219.991 137.669 226.894 145.767 225.234C153.866 223.575 151.386 228.54 160.121 231.846Z" fill="#F98C3A"/>
<path d="M335.723 207.773L335.56 208.022C333.927 210.217 326.168 214.372 325.348 214.31C324.528 214.248 325.077 215.754 324.231 215.689C323.385 215.623 319.069 216.208 318.328 217.064C317.586 217.92 315.747 219.622 314.574 219.351C313.637 219.125 302.922 217.913 298.201 216.94C296.996 216.685 296.182 216.456 296.022 216.254C295.235 215.274 296.14 221.771 293.657 223.042C291.174 224.313 286.761 223.98 285.536 224.431C284.683 224.732 283.81 224.971 282.922 225.146C282.922 225.146 260.904 225.091 257.84 225.035C254.776 224.979 244.714 224.748 244.061 224.336C243.736 224.128 243.365 224.004 242.98 223.974C242.596 223.944 242.21 224.009 241.856 224.163C241.15 224.47 222.089 222.098 219.315 220.243C218.923 219.971 219.224 216.042 219.224 216.042C219.224 216.042 212.037 215.228 209.459 215.195C206.882 215.163 189.3 211.576 186.667 213.18C184.416 214.549 180.996 213.412 179.092 213.343C175.368 213.246 171.695 212.449 168.265 210.994C166.446 210.23 168.775 205.977 168.141 206.695C167.612 207.316 158.374 205.363 153.931 204.17C149.488 202.978 143.621 201.112 143.621 201.112L141.971 201.658C141.971 201.658 115.458 195.778 113.877 195.18C112.296 194.582 113.282 191.23 113.282 191.23C113.282 191.23 116.02 186.912 118.96 181.414C122.188 175.41 125.696 167.984 126.212 163.234C127.212 154.133 139.854 139.714 142.03 128.489C142.275 127.238 142.53 126.039 142.808 124.895C144.983 115.748 148.034 110.019 149.949 108.535C152.115 106.869 167.916 95.9878 170.82 98.4085C173.724 100.829 177.471 115.069 177.471 115.069C177.471 115.069 196.565 105.922 198.607 106.066C200.649 106.21 202.527 108.578 202.968 107.137C203.409 105.697 208.796 87.7817 210.266 86.4292C211.736 85.0768 258.778 67.0736 261.773 68.0373C264.769 69.001 264.387 69.7066 265.533 72.7349C266.68 75.7632 267.533 97.1181 267.533 97.1181C267.533 97.1181 280.273 109.859 281.482 112.145C282.691 114.432 285.337 134.467 285.337 134.467C285.337 134.467 291.272 127.953 292.233 128.763C293.193 129.573 305.13 148.854 306.411 150.056C307.691 151.258 306.737 169.173 306.737 169.173C306.737 169.173 312.193 169.226 313.496 170.062C314.8 170.898 333.005 183.694 333.499 186.301C333.992 188.908 336.896 205.663 335.723 207.773Z" fill="#372638"/>
<path d="M316.515 229.112C318.044 231.026 321.039 229.87 322.66 230.317C324.28 230.765 325.074 231.232 326.384 230.768C327.694 230.304 330.163 228.318 330.33 227.037C330.497 225.757 327.69 218.841 326.207 218.563C324.724 218.286 322.715 219.099 321.255 219.543C319.795 219.988 316.574 224.117 316.028 225.352C315.482 226.586 316.446 229.027 316.515 229.112Z" fill="url(#paint0_linear_2_8125)"/>
<path d="M159.827 222.369C159.569 223.611 152.908 227.949 152.062 228.063C151.216 228.177 145.424 227.367 143.863 228.145C142.301 228.922 138.309 231.124 135.725 232.003C133.141 232.882 128.796 233.084 126.274 233.251C123.752 233.417 89.6212 226.805 87.1777 225.897C85.4299 225.244 79.4093 222.245 75.9138 219.978C74.5222 219.079 73.5324 218.292 73.3756 217.815C72.8267 216.152 70.7229 210.592 70.9483 209.717C72.0198 205.637 75.1951 199.792 77.7204 199.263C80.2456 198.734 93.5838 192.596 95.1126 192.178C96.6415 191.76 138.489 202.739 140.011 204.83C141.533 206.921 141.645 216.829 141.971 217.208C142.298 217.587 151.134 210.73 154.241 211.87C157.348 213.01 158.589 216.525 159.331 217.838C160.072 219.151 160.085 221.134 159.827 222.369Z" fill="url(#paint1_linear_2_8125)"/>
<path d="M156.714 130.23C155.27 131.576 154.754 138.805 152.699 140.975C150.644 143.144 128.96 166.197 127.245 167.524C125.53 168.85 127.571 174.237 128.169 177.193C128.767 180.15 126.862 180.293 125.124 181.904C123.674 183.25 120.139 181.999 119.016 181.548C122.243 175.544 125.752 168.118 126.268 163.368C127.267 154.267 139.91 139.831 142.086 128.623C142.331 127.372 142.585 126.173 142.863 125.029C143.448 123.834 143.843 123.047 143.987 122.837C144.895 121.449 150.987 119.594 153.327 120.946C155.666 122.298 158.439 125.121 159.118 126.924C159.798 128.727 158.161 128.891 156.714 130.23Z" fill="url(#paint2_linear_2_8125)"/>
<path d="M143.866 121.433C144.193 121.234 148.39 119.473 150.978 118.63C152.729 118.065 151.994 113.475 155.407 112.613C158.821 111.75 163.032 114.331 164.93 112.678C166.828 111.025 170.934 99.0718 169.428 98.1636C168.677 97.7128 163.48 100.245 158.632 103.087C153.784 105.929 149.289 109.081 148.704 109.904C145.976 113.769 143.866 121.433 143.866 121.433Z" fill="url(#paint3_linear_2_8125)"/>
<path d="M294.712 138.89C295.277 140.589 290.956 140.739 288.113 142.036C285.271 143.333 282.171 145.75 281.1 146.267C280.254 146.681 278.091 148.524 277.118 148.347L271.659 152.686C271.659 152.686 264.165 160.154 266.461 163.064C267.768 164.727 280.806 165.831 286.964 170.114C285.85 170.114 283.723 170.689 279.659 173.054C271.522 177.804 267.899 181.711 264.371 184.432C260.842 187.153 261.104 175.798 248.746 177.245C236.387 178.692 238.655 186.033 238.06 178.81C237.465 171.587 225.587 182.028 224.859 184.364C224.859 184.364 224.944 168.239 225.372 160.32C223.35 159.909 221.377 159.494 221.377 159.494C221.377 159.494 192.956 152.483 193.064 150.889C193.132 149.909 197.617 127.878 202.341 109.728C205.353 98.1601 208.999 88.0004 209.92 86.452C212.298 82.4633 262.293 66.7272 263.132 68.1352C264.985 71.2909 256.818 77.7526 258.588 77.0927C260.359 76.4328 264.795 73.3229 263.162 75.3221C261.528 77.3214 258.428 79.497 257.252 83.1918C255.753 87.8796 253.479 87.3471 252.587 92.7928C252.241 94.8824 251.468 96.8782 250.316 98.6559C249.164 100.434 247.659 101.955 245.894 103.126C243.636 104.55 241.572 107.951 244.737 107.66C247.903 107.369 253.375 104.948 253.375 104.948C253.375 104.948 260.65 101.639 258.827 103.044C261.248 101.881 263.335 100.885 264.864 100.104C268.908 98.0229 263.965 112.599 265.452 115.102C266.938 117.604 281.622 114.174 281.622 114.174L280.858 133.052C280.858 133.052 273.916 144.486 272.691 146.182C272.008 147.116 274.605 147.044 277.082 146.776C277.922 145.776 278.664 144.698 279.296 143.555C280.93 140.452 283.056 137.512 290.482 129.815C292.844 127.375 293.389 132.445 294.68 133.735C295.97 135.026 294.284 134.196 293.559 134.614C292.834 135.032 294.144 137.198 294.712 138.89Z" fill="url(#paint4_linear_2_8125)"/>
<path d="M202.263 110.074C202.263 110.074 210.067 106.288 211.233 102.779C212.4 99.2708 208.019 109.404 215.915 109.688C223.81 109.973 226.538 101.675 227.237 104.677C227.936 107.679 225.509 111.743 230.684 107.562C235.858 103.38 247.413 86.599 244.92 91.6429C242.428 96.6867 240.651 108.666 243.633 109.551C246.616 110.437 253.76 108.375 253.394 109.326C253.028 110.277 253.786 116.562 256.906 119.75C260.026 122.939 261.215 123.344 261.215 123.344C261.215 123.344 252.395 131.511 250.542 136.267C248.69 141.023 257.729 150.902 260.16 150.765C262.59 150.628 270.385 148.285 269.708 149.216C269.032 150.147 259.983 162.571 261.917 165.351C263.185 167.171 271.717 168.03 279.13 168.49C283.014 168.729 286.735 169.813 286.398 170.124C285.418 171.029 275.268 177.83 275.618 181.456C275.968 185.082 280.368 187.392 279.159 187.297C277.951 187.202 263.364 186.725 260.431 189.443C257.497 192.161 257.706 180.721 250.392 180.806C243.078 180.891 234.568 190.878 234.568 190.878C234.568 190.878 237.233 184.066 232.853 183.364C225.646 182.224 220.481 190.26 220.481 190.26C220.481 190.26 222.791 183.563 221.184 180.492C219.577 177.422 219.322 168.236 219.322 168.236C219.322 168.236 202.237 110.397 202.263 110.074Z" fill="url(#paint5_linear_2_8125)"/>
<path d="M238.945 115.866C241.297 116.5 249.654 111.008 249.654 111.008C249.654 111.008 246.469 145.734 251.66 151.092C258.027 157.664 276.128 149.321 276.128 149.321C276.128 149.321 269.31 155.855 270.767 159.141C272.224 162.427 282.527 166.2 282.527 166.2L302.386 170.689C302.386 170.689 294.409 171.457 289.031 175.128C285.843 177.304 284.458 182.577 283.775 183.661C281.717 186.928 291.354 206.506 291.354 206.506C291.354 206.506 288.718 199.348 279.816 196.327C268.578 192.511 250.216 192.704 246.469 193.422C242.078 194.265 239.36 200.178 239.36 200.178C239.36 200.178 229.762 198.055 227.855 197.787C224.434 197.3 220.227 206.934 220.227 206.934C220.227 206.934 217.888 184.703 218.727 173.018C220.135 153.512 225.411 112.214 238.945 115.866Z" fill="url(#paint6_linear_2_8125)"/>
<path d="M261.689 166.684C252.127 173.822 252.11 180.287 252.11 180.287C252.11 180.287 250.15 176.491 243.048 178.81C238.909 180.159 237.22 182.034 237.22 182.034C237.22 182.034 240.856 175.223 232.631 176.664C224.405 178.104 220.632 187.931 220.632 187.931C220.632 187.931 217.884 172.502 218.861 169.666C219.838 166.831 218.59 169.418 218.031 161.058C217.473 152.699 222.451 141.252 222.657 138.358C222.863 135.463 228.256 119.662 231.095 117.803C233.934 115.944 235.741 117.748 238.909 116.748C242.078 115.748 252.669 108.254 253.228 111.195C253.786 114.135 253.019 119.495 256.775 121.034C260.532 122.573 265.24 121.687 263.257 122.367C262.097 122.765 255.309 123.562 251.643 126.777C249.046 129.064 249.977 133.663 246.861 135.235C243.685 136.832 240.546 143.075 240.546 143.075C240.546 143.075 241.97 150.729 241.304 153.274C240.236 157.351 243.656 163.688 246.616 165.58C249.575 167.471 261.689 166.684 261.689 166.684Z" fill="url(#paint7_linear_2_8125)"/>
<path d="M237.485 140.981C235.244 142.526 231.905 146.685 230.435 149.713C228.965 152.741 228.933 159.02 227.91 161.633C227.201 166.756 230.373 163.796 236.815 165.469C242.696 166.994 250.209 168.128 252.31 167.84C254.41 167.553 260.026 167.331 260.026 167.331C260.026 167.331 267.889 151.275 266.559 152.519C265.579 153.421 262.035 159.84 257.52 162.453C255.831 163.433 253.927 161.82 252.091 162.166C245.322 163.433 241.425 159.553 238.619 157.978C235.813 156.403 237.485 140.981 237.485 140.981Z" fill="#572933"/>
<path d="M219.577 165.812C219.577 165.812 219.462 177.503 219.701 180.718C219.939 183.932 220.237 189.956 220.475 190.257C220.713 190.557 219.276 216.169 219.276 216.169C219.276 216.169 211.691 216.29 211.259 215.577C210.828 214.865 214.641 209.779 215.657 199.93C216.672 190.08 219.577 165.812 219.577 165.812Z" fill="#572933"/>
<path d="M199.502 106.53C197.666 106.386 181.124 111.799 177.965 114.043C174.806 116.288 172.93 116.627 171.82 119.27C170.709 121.913 167.047 140.736 166.763 144.682C166.479 148.629 164.963 203.04 167.243 200.237C169.523 197.434 176.717 186.65 177.556 181.505C177.84 179.744 177.197 172.793 177.471 168.167C178.004 159.288 175.622 145.626 175.887 146.136C176.295 146.913 176.24 154.104 179.859 151.905C183.479 149.707 183.218 140.504 184.276 141.827C185.334 143.15 189.075 148.9 189.287 145.937C189.5 142.974 191.375 132.948 192.188 131.275C193.001 129.603 197.559 117.555 197.742 114.834C197.925 112.113 199.502 106.53 199.502 106.53Z" fill="url(#paint8_linear_2_8125)"/>
<path d="M186.288 138.89C186.28 138.788 186.28 138.685 186.288 138.583C186.285 138.449 186.288 138.58 186.288 138.89Z" fill="url(#paint9_linear_2_8125)"/>
<path d="M198.375 114.118C195.06 116.33 191.172 118.499 190.27 119.044C189.369 119.59 187.066 119.721 186.955 121.256C186.844 122.791 185.648 124.65 185.7 126.715C185.821 132.997 182.211 129.802 180.96 131.216C178.83 133.627 173.826 144.512 174.57 146.113C175.315 147.714 176.331 151.836 177.667 157.187C179.003 162.538 184.158 181.626 184.906 183.227C185.655 184.827 191.267 188.208 190.806 186.631C190.346 185.053 192.146 160.859 191.786 158.053C191.427 155.247 192.165 148.824 192.165 148.824C192.165 148.824 200.476 117.058 200.891 115.239C201.306 113.419 202.485 110.682 202.325 110.136C202.165 109.59 201.694 111.907 198.375 114.118Z" fill="#6E2C2D"/>
<path d="M232.729 128.267C234.718 124.239 236.286 120.671 240.206 120.051C244.126 119.43 251.408 116.987 250.987 119.724C250.565 122.462 249.957 125.209 248.977 126.751C247.997 128.293 241.712 134.986 239.455 136.43C237.197 137.874 234.777 135.604 233.741 135.062C232.706 134.519 232.052 129.632 232.729 128.267Z" fill="#4C2E36"/>
<path d="M257.376 106.461C256.942 106.758 249.735 110.75 248.576 111.106C247.416 111.462 245.962 113.011 244.528 114.233C243.293 115.223 241.921 116.029 240.454 116.627C239.578 116.985 238.649 117.198 237.704 117.258C236.358 117.258 232.235 118.61 231.216 119.871C230.197 121.132 229.295 122.158 228.766 123.791C228.237 125.425 227.502 127.022 226.806 129.632C226.11 132.242 223.444 143.353 222.915 143.542C222.386 143.732 222.794 130.877 223.007 129.338C223.219 127.799 225.584 119.322 226.391 118.163C227.198 117.003 231.892 114.925 233.353 114.706C234.813 114.487 239.831 115.098 241.016 114.412C242.202 113.726 245.668 111.443 247.066 110.665C248.465 109.888 251.64 108.8 252.62 108.209C253.6 107.617 257.376 106.461 257.376 106.461Z" fill="#922836"/>
<path d="M243.424 176.187C246.106 176.393 250.611 176.429 250.983 175.351C251.356 174.273 251.771 172.564 250.983 171.395C250.196 170.225 247.913 171.156 246.371 172.143C244.829 173.129 242.712 173.917 242.656 174.704C242.601 175.491 242.705 176.132 243.424 176.187Z" fill="#5F343D"/>
<path d="M156.009 130.318C152.363 137.744 146.898 145.95 145.137 148.824C142.438 153.222 129.048 167.465 126.68 167.282C125.539 167.19 130.564 169.872 130.505 176.05C130.44 182.704 129.525 189.59 129.397 191.175C129.179 194.229 143.729 201.093 143.729 201.093C143.729 201.093 158.21 187.781 158.723 180.653C159.236 173.525 161.01 161.888 161.01 161.888C161.01 161.888 161.595 153.744 161.304 151.16C161.108 149.412 163.264 137.054 163.682 130.694C163.898 127.666 157.942 126.382 156.009 130.318Z" fill="url(#paint10_linear_2_8125)"/>
<path d="M188.415 120.224C188.699 120.799 188.454 121.857 188.154 123.817C187.634 127.254 186.716 132.34 186.448 134.376C186.027 137.59 185.511 140.932 185.988 142.2C186.373 143.235 188.99 148.158 190.79 147.913C191.254 147.851 190.924 151.206 190.885 151.294C190.845 151.382 189.415 148.197 188.092 146.508C186.768 144.82 185.243 143.928 185.191 144.052C184.648 145.306 183.946 147.025 183.773 147.916C183.476 149.419 184.4 152.356 182.515 152.209C180.63 152.062 178.01 151.667 177.566 149.922C177.122 148.178 177.893 145.555 176.749 145.466C175.606 145.378 173.561 147.701 174.721 144.738C175.88 141.775 179.023 132.278 181.016 130.906C183.008 129.534 185.263 129.711 185.795 127.64C186.327 125.568 184.426 125.624 185.53 123.419C186.635 121.214 187.915 119.231 188.415 120.224Z" fill="url(#paint11_linear_2_8125)"/>
<path d="M140.361 191.923C140.246 191.201 142.321 185.648 143.301 180.257C144.741 172.319 145.571 164.129 146.568 163.682C148.263 162.93 149.508 163.861 150.912 161.326C152.317 158.791 150.89 155.103 152.742 152.16C154.594 149.217 157.139 148.828 158.678 144.535C160.216 140.243 164.27 132.811 162.895 130.701C161.52 128.59 158.86 130.204 159.331 128.414C159.801 126.624 160.576 125.229 161.618 124.765C162.66 124.301 164.29 125.336 165.093 123.576C165.897 121.815 167.302 116.457 167.991 113.958C168.318 112.795 170.464 112.475 172.46 112.155C174.747 111.789 176.867 111.554 176.459 112.201C176.132 112.74 173.424 112.011 171.643 113.05C169.396 114.357 168.001 117.499 167.831 118.502C167.534 120.302 162.536 140.328 162.353 142.866C162.17 145.404 158.393 153.13 156.603 159.2C156.005 161.219 154.914 166.504 153.523 172.92C150.743 185.752 147.218 202.507 147.218 202.507C147.218 202.507 140.642 193.71 140.361 191.923Z" fill="url(#paint12_linear_2_8125)"/>
<path d="M286.402 170.228C285.373 170.15 281.848 168.33 277.255 168.618C274.462 168.791 266.474 167.997 262.584 167.478C258.693 166.958 237.929 169 235.923 168.183C233.918 167.367 233.072 164.881 231.618 164.985C230.164 165.09 219.577 165.815 219.577 165.815C219.577 165.815 216.006 198.346 216.483 200.351C216.96 202.357 210.648 215.535 211.256 215.581L210.9 215.539L205.559 215.032C204.641 214.944 203.648 214.846 202.619 214.751C201.802 214.666 200.959 214.588 200.107 214.506C193.684 213.899 186.876 213.245 186.876 213.245C186.876 213.245 192.959 205.859 192.936 200.75C192.936 199.028 193.139 193.517 192.838 191.877C192.567 190.262 192.049 188.697 191.303 187.239C190.999 186.654 190.734 186.409 190.764 186.004C190.875 184.475 192.417 159.314 191.708 157.723C190.999 156.132 192.361 151.389 191.381 150.863C190.401 150.337 186.255 144.512 186.255 144.512C186.255 144.512 186.298 140.285 186.285 138.936C186.416 140.324 187.249 144.682 188.657 145.577C190.231 146.584 191.894 149.354 191.943 148.697C191.992 148.041 193.903 135.63 194.664 133.716C195.425 131.801 197.049 129.28 196.918 128.162C196.788 127.045 196.095 119.515 197.042 117.826C197.99 116.137 200.75 115.036 201.289 113.315C201.828 111.593 202.302 109.94 202.302 109.94C202.302 109.94 224.059 113.008 228.508 112.985L229.488 112.145C231.83 109.411 232.676 108.039 233.715 105.612C234.754 103.185 238.23 100.316 239.089 98.4249C239.948 96.5334 240.138 95.6645 241.65 93.7795C243.163 91.8946 245.475 90.0424 245.286 91.0779C245.097 92.1135 242.82 92.4173 241.941 94.998C241.062 97.5788 241.203 98.3008 239.7 100.179C238.197 102.058 235.721 103.214 235.185 105.125C234.721 106.883 234.563 108.707 234.718 110.518C234.767 111.325 234.876 112.126 235.045 112.916C235.554 113.044 235.92 113.243 236.051 113.478C236.56 114.458 239.056 114.38 240.53 113.204C242.003 112.028 244.999 111.322 245.923 110.473C246.848 109.623 255.037 106.742 256.419 104.439C257.801 102.136 265.925 97.5788 267.134 97.6833C268.343 97.7879 270.156 99.026 269.627 99.173C269.097 99.32 265.38 100.506 265.132 101.417C264.883 102.329 266.899 103.403 267.49 104.74C268.082 106.076 266.429 102.626 263.551 104.063C260.672 105.501 257.373 105.625 254.812 107.464C252.251 109.303 248.197 110.28 245.609 112.488C243.022 114.697 241.363 116.229 238.952 115.853C236.541 115.477 235.012 115.177 233.751 115.82C232.49 116.464 226.489 120.27 225.457 122.596C224.424 124.922 222.696 142.484 222.696 142.484C222.696 142.484 225.839 130.397 227.381 126.121C228.874 121.972 230.321 121.126 230.416 121.083C230.275 121.443 225.64 132.981 223.836 143.898C222.007 154.982 222.827 160.771 222.37 161.395C221.912 162.019 235.966 164.433 238.429 164.623C240.892 164.812 256.148 167.756 258.337 165.946C260.525 164.136 260.95 163.95 261.46 162.679C261.969 161.408 266.615 154.051 267.405 151.69C268.095 149.625 273.501 143.702 274.22 142.977C273.315 144.009 265.795 153.989 265.119 157.678C264.442 161.366 262.956 164.773 263.92 165.727C264.883 166.681 273.393 166.707 276.66 166.962C279.927 167.217 287.427 170.307 286.402 170.228Z" fill="url(#paint13_linear_2_8125)"/>
<path d="M335.789 207.741L335.622 207.989C333.989 210.184 326.23 214.34 325.413 214.278C324.597 214.216 325.139 215.722 324.296 215.656C323.453 215.591 319.135 216.176 318.393 217.032C317.651 217.887 315.812 219.589 314.639 219.318C313.702 219.093 302.984 217.881 298.263 216.907C300.468 210.939 303.947 201.746 304.114 199.46C304.3 196.846 305.381 178.144 306.544 171.365C306.806 169.846 306.473 169.16 306.809 169.134C313.79 168.634 315.884 171.545 321.01 176.217C326.135 180.888 329.83 186.837 331.79 187.523C333.75 188.209 335.789 207.741 335.789 207.741Z" fill="url(#paint14_linear_2_8125)"/>
<path d="M143.151 202.919C148.315 204.154 153.457 206.186 155.914 207.114C157.263 207.626 159.462 207.509 161.376 208.035C162.944 208.466 166.145 208.976 166.462 208.887C166.779 208.799 162.379 207.744 160.255 206.313C158.259 204.977 156.231 203.331 153.892 203.507C149.054 203.87 145.117 201.348 143.539 200.979C143.02 200.858 142.063 201.096 140.877 200.979C138.453 200.721 135.242 200.09 134.017 199.852C132.988 199.652 128.179 198.46 123.341 197.294C118.441 196.114 113.58 195.36 113.926 195.386C114.2 195.406 118.032 196.787 122.919 198.055C130.106 199.923 138.783 202.501 140.361 205.268C141.341 206.993 141.256 208.93 141.429 210.981C141.726 214.441 141.821 217.734 142.141 217.293C142.651 216.594 152 211.413 154.045 212.131C156.727 213.079 157.658 215.333 158.534 215.895C159.409 216.457 167.263 219.586 167.681 218.881C167.906 218.502 164.901 217.62 162.196 215.725C159.863 214.091 157.848 211.426 157.247 210.923C155.94 209.838 154.79 207.283 147.401 206.526C142.419 205.99 137.986 201.671 143.151 202.919Z" fill="#FBD743"/>
<path d="M168.145 142.317C169.03 143.532 171.878 147.093 172.627 146.639C173.375 146.185 174.721 144.744 174.721 144.744C174.721 144.744 176.7 153.12 177.194 156.24C177.687 159.36 180.317 169.327 178.853 173.067C177.39 176.807 177.056 184.742 175.704 186.951C174.351 189.159 172.561 190.832 170.64 194.262C168.72 197.692 168.755 200.537 166.416 199.841C164.077 199.146 163.055 200.093 162.196 192.063C161.337 184.034 160.745 162.411 161.804 157.612C162.862 152.813 168.145 142.317 168.145 142.317Z" fill="url(#paint15_linear_2_8125)"/>
<path d="M176.782 112.537C176.416 112.665 171.941 112.24 170.19 113.72C168.439 115.2 167.651 119.211 166.364 123.193C165.077 127.175 162.934 136.077 162.444 138.808C161.954 141.539 160.347 147.103 162.496 145.041C164.646 142.98 167.09 139.7 167.962 136.603C168.834 133.507 170.663 124.892 171.523 121.883C172.382 118.875 171.931 118.225 173.228 117.094C174.525 115.964 177.089 114.089 177.089 114.089L176.782 112.537Z" fill="url(#paint16_linear_2_8125)"/>
<path d="M177.965 114.037C175.849 116.171 174.274 118.78 173.368 121.645C171.908 126.359 168.824 144.744 168.857 148.713C168.889 152.683 168.625 192.161 169.288 191.854C169.951 191.547 174.551 185.54 174.551 185.54C174.551 185.54 168.916 196.999 168.55 197.659C168.184 198.319 165.763 200.72 165.567 198.966C165.371 197.212 166.75 146.812 166.786 144.055C166.822 141.298 171.258 124.226 171.49 123.21C171.722 122.194 172.026 118.166 173.221 117.094C174.417 116.023 177.965 114.037 177.965 114.037Z" fill="#771010"/>
<path d="M191.525 187.709C190.947 187.332 190.32 187.034 189.663 186.824C189.376 186.73 189.082 186.657 188.784 186.605C188.241 186.552 187.694 186.552 187.151 186.605C184.423 186.814 179.533 187.719 178.36 189.019C176.887 190.652 175.776 191.453 173.858 195.879C173.846 195.903 173.835 195.927 173.826 195.951C171.931 200.329 169.66 202.236 169.268 203.899C168.992 205.017 168.604 206.104 168.109 207.143C168.109 207.143 166.626 206.885 164.489 206.529C161.69 206.075 158.028 205.477 156.087 205.167C152.663 204.611 143.673 201.119 143.673 201.119C143.673 201.119 147.989 193.08 149.289 189.751C150.589 186.422 157.093 158.893 155.914 156.799C154.735 154.705 153.163 154.3 154.307 153.245C155.45 152.19 160.759 144.878 160.922 142.605C161.085 140.331 163.957 132.292 162.98 131.067C162.003 129.842 162.251 127.832 163.78 125.092C165.309 122.351 169.072 114.351 169.415 113.233C169.618 112.58 176.138 111.6 176.55 111.812C176.962 112.025 176.838 112.792 176.838 112.792C176.838 112.792 172.182 111.734 170.052 115.566C167.923 119.398 164.574 131.475 163.101 138.195C161.467 145.731 164.408 142.389 166.439 136.888C166.933 135.562 171.268 120.806 171.666 118.836C172.065 116.866 174.123 115.719 174.933 114.974C175.605 114.437 176.366 114.02 177.181 113.743L177.883 114.109C176.478 115.144 175.132 115.089 173.875 117.859C172.617 120.629 168.295 140.021 168.128 142.301C167.962 144.581 166.341 196.787 167.112 197.137C167.883 197.487 175.501 184.07 175.887 182.371C176.272 180.672 175.015 176.011 175.949 174.08C176.795 172.355 177.533 166.028 177.429 162.856C177.429 162.483 177.393 162.163 177.357 161.892C177.011 159.278 175.43 147.1 175.724 148.233C176.23 150.21 177.765 157.658 177.765 157.658C178.961 160.228 179.957 162.886 180.745 165.609C182.675 172.666 184.929 182.708 185.413 183.109C186.164 183.74 189.826 184.599 190.545 185.795C190.824 186.258 191.078 186.735 191.306 187.226C191.45 187.516 191.512 187.673 191.525 187.709Z" fill="url(#paint17_linear_2_8125)"/>
<path d="M173.842 195.958C171.931 200.328 169.66 202.236 169.268 203.899C168.995 205.01 168.614 206.092 168.132 207.13C167.998 207.287 163.754 206.64 163.754 206.64C164.001 206.618 164.247 206.581 164.489 206.529C165.486 206.355 166.424 205.935 167.217 205.307C168.579 204.121 169.141 202.481 169.883 201.567C170.624 200.652 171.719 199.933 172.244 198.934C172.597 198.27 173.388 196.777 173.842 195.958Z" fill="#FFC240"/>
<path d="M306.953 169.183C306.953 169.183 313.686 168.931 313.098 170.434C312.51 171.937 309.207 181.214 310.543 182.609C311.879 184.004 312.68 185.745 313.532 187.738C314.512 190.025 314.277 190.887 314.277 190.887C314.277 190.887 312.905 187.562 311.582 186.64C311.346 186.454 311.07 186.323 310.777 186.257C310.483 186.191 310.178 186.191 309.885 186.259C309.591 186.326 309.317 186.459 309.081 186.646C308.846 186.834 308.655 187.072 308.524 187.343C307.407 189.574 308.488 194.556 309.916 198.019C311.343 201.481 312.386 213.676 312.755 215.251C313.124 216.825 312.715 219.115 312.715 219.115C305.793 218.498 298.169 218.005 296.055 216.557C296.055 216.557 299.243 206.47 301.831 197.133C304.418 187.797 306.953 169.183 306.953 169.183Z" fill="url(#paint18_linear_2_8125)"/>
<path d="M325.034 214.425C325.139 212.67 325.394 211.432 325.165 209.498C324.763 206.124 324.277 202.684 324.665 204.239C325.296 206.761 325.75 211.752 326.38 212.373C326.733 212.721 327.067 213.087 327.38 213.471C326.861 213.79 326.314 214.062 325.747 214.284C325.286 214.392 325.034 214.425 325.034 214.425Z" fill="#FFC240"/>
<path d="M241.644 224.068C240.602 222.255 240.785 215.649 240.471 213.892C240.157 212.134 239.164 209.694 238.419 207.744C237.675 205.794 238.354 204.588 237.439 203.255C236.525 201.922 236.564 198.777 234.931 199.436C233.297 200.096 229.021 204.177 227.306 205.62C225.591 207.064 225.098 206.424 224.947 206.633C224.797 206.842 225.722 206.326 227.966 204.588C230.21 202.85 234.627 196.578 235.479 197.16C236.332 197.741 237.025 201.321 237.508 202.243C237.992 203.164 238.018 205.591 238.557 206.663C239.096 207.734 240.517 212.84 241.788 213.088C243.058 213.337 245.678 212.213 246.417 211.455C247.155 210.697 248.876 209.59 249.03 209.38C249.183 209.171 249.873 209.511 248.814 210.579C247.756 211.648 243.48 214.878 243.097 216.574C242.715 218.269 243.195 222.631 243.682 223.339C243.994 223.788 244.353 224.202 244.754 224.574L241.644 224.068Z" fill="url(#paint19_linear_2_8125)"/>
<path d="M250.258 206.283C251.454 204.552 252.081 203.258 252.757 202.543C253.433 201.828 254.868 200.498 254.868 200.498C254.247 201.551 253.548 202.555 252.777 203.503C251.705 204.764 250.258 206.283 250.258 206.283Z" fill="url(#paint20_linear_2_8125)"/>
<path d="M255.622 198.734C255.975 197.512 257.05 192.508 257.131 191.364C257.213 190.221 258.951 188.424 259.176 187.771C259.304 187.405 258.654 186.37 258.35 184.948C258.188 184.012 258.092 183.066 258.062 182.116C258.062 182.116 258.062 182.77 258.062 183.387C258.085 184.096 258.124 184.759 257.69 184.775C256.886 184.808 253.381 185.102 251.771 185.18C250.16 185.259 241.66 186.699 242.823 186.693C243.293 186.693 244.456 186.304 245.704 186.242C246.099 186.223 246.469 186.569 246.874 186.53C248.344 186.438 249.562 185.742 250.14 185.55C251.418 185.171 256.184 185.605 256.952 186.144C257.719 186.683 258.2 187.392 257.879 188.137C257.559 188.882 256.226 191.27 256.367 191.763C256.507 192.256 255.622 198.734 255.622 198.734Z" fill="url(#paint21_linear_2_8125)"/>
<path d="M283.279 225.254C284.337 222.696 285.435 217.185 286.104 215.163C286.774 213.14 288.309 206.463 288.064 204.934C287.819 203.405 290.727 197.218 290.433 193.987C290.162 191.047 291.06 182.041 292.475 177.869C292.594 177.511 292.734 177.16 292.893 176.817C294.546 173.361 294.947 175.092 296.346 172.747C297.744 170.401 298.453 167.814 298.159 169.48C297.865 171.146 296.228 174.054 294.565 175.063C292.902 176.072 292.073 181.352 291.851 183.129C291.628 184.906 290.606 194 290.629 196.297C290.652 198.594 288.264 203.392 288.453 204.604C288.643 205.816 288.607 212.794 288.336 213.97C288.064 215.146 286.434 219.805 286.398 221.598C286.4 222.529 286.302 223.458 286.108 224.368L283.279 225.254Z" fill="url(#paint22_linear_2_8125)"/>
<path d="M281.913 113.236C281.698 113.439 279.463 114.305 277.118 114.987C275.334 115.446 273.514 115.747 271.678 115.889C270.698 115.98 266.269 115.703 266.269 115.703C266.269 115.703 270.79 116.235 271.495 116.154C272.201 116.072 275.193 116.232 276.706 115.794C278.218 115.356 282.125 113.929 282.125 113.929L281.913 113.236Z" fill="url(#paint23_linear_2_8125)"/>
<path d="M75.4109 205.611C75.7375 207.607 80.0823 215.829 82.4997 214.046C84.9171 212.262 87.6416 211.122 90.0133 209.828C90.7385 209.433 91.4768 208.038 94.1066 207.081C100.104 204.899 110.222 202.703 111.747 203.507C113.955 204.663 116.321 206.12 118.627 205.794C120.933 205.467 137.649 201.857 135.755 202.697C133.86 203.536 99.3987 190.718 94.2078 192.792C90.0917 194.425 84.1364 196.862 80.2653 198.541C79.2852 198.963 77.6323 199.009 77.2239 199.384C75.2606 201.191 75.4109 205.611 75.4109 205.611Z" fill="url(#paint24_linear_2_8125)"/>
<path d="M112.681 208.672C112.681 208.672 114.968 208.734 115.527 209.191C116.138 209.701 117.003 210.397 117.947 211.063C118.499 211.451 119.02 211.882 119.506 212.35C121.139 213.902 122.469 216.055 123.566 216.512C126.118 217.58 126.892 220.903 129.816 222.438C132.739 223.973 135.461 225.486 137.002 226.476C138.544 227.466 139.988 229.971 139.988 229.971C139.988 229.971 137.247 231.497 136.659 231.235C136.071 230.974 133.171 226.394 131.047 225.133C128.924 223.872 125.275 220.984 124.131 220.027C122.988 219.07 123.2 217.296 121.518 215.428C121.018 214.872 119.558 212.7 118.725 211.89C117.611 210.818 117.056 211.07 116.112 210.126C115.853 209.871 115.514 209.351 115.004 209.146C114.26 208.866 113.476 208.706 112.681 208.672Z" fill="url(#paint25_linear_2_8125)"/>
<path d="M110.271 201.253C108.676 200.926 107.811 198.884 106.154 199.41C104.498 199.936 92.0713 206.796 91.2481 206.95C90.4249 207.104 88.0597 209.096 86.4198 209.403C84.7799 209.71 79.7197 212.582 77.7531 214.604C75.7865 216.626 73.1796 218.609 73.7938 218.658C74.4079 218.707 76.123 221.389 76.8939 220.657C77.0083 220.546 76.2765 219.592 76.5346 219.204C77.1226 218.309 78.0602 216.894 79.2329 215.966C82.2449 213.578 84.1592 211.661 86.165 210.841C87.9715 210.102 94.9657 210.648 100.277 210.736C102.521 210.784 104.764 210.655 106.987 210.351C104.464 210.525 101.932 210.551 99.4052 210.429C95.0278 210.178 90.6274 209.361 91.3428 208.469C92.6724 206.836 99.3138 204.52 101.215 203.363C103.116 202.207 105.462 200.648 106.68 200.524C107.899 200.4 110.271 201.253 110.271 201.253Z" fill="url(#paint26_linear_2_8125)"/>
<path d="M141.311 224.764L140.005 229.971C140.005 229.971 135.911 217.231 134.317 218.194C132.723 219.158 140.027 204.83 140.027 204.83C141.55 206.931 141.661 216.829 141.988 217.208C142.001 217.247 141.311 224.764 141.311 224.764Z" fill="url(#paint27_linear_2_8125)"/>
<path d="M155.362 219.253C155.29 219.406 155.211 219.553 155.126 219.7C154.859 220.158 154.669 220.814 154.231 221.056C152.879 221.824 144.006 223.535 144.006 223.535C144.006 223.535 141.922 217.825 141.89 217.299C143.683 216.394 151.004 211.063 153.751 212.072C153.751 212.072 155.43 212.585 156.142 214.137C156.165 214.754 156.201 217.414 155.362 219.253Z" fill="url(#paint28_linear_2_8125)"/>
<path d="M135.725 231.993C133.158 232.875 128.796 233.074 126.274 233.241C123.752 233.408 89.6213 226.805 87.1777 225.897C85.675 225.335 78.8965 222.32 76.9429 220.625C76.6163 220.35 76.4987 219.609 76.4758 219.452C76.3223 218.328 83.2053 215.248 83.2053 215.248C84.5545 215.352 98.5788 226.136 100.96 226.139C103.342 226.142 120.499 221.811 123.021 222.186C125.543 222.562 135.552 231.666 135.725 231.993Z" fill="#372638"/>
<path d="M210.877 215.417C211.602 215.473 212.912 210.948 214.657 207.809C215.774 205.797 216.986 201.929 216.895 201.374C216.666 199.93 217.329 192.243 217.548 189.404C217.695 187.356 218.838 175.063 219.286 169.317C219.459 167.089 219.668 165.942 219.508 166.23C218.936 167.255 218.433 172.802 218.051 175.808C217.669 178.813 216.627 186.408 215.598 189.182C214.569 191.955 213.664 190.639 213.22 194.533C212.775 198.427 210.381 215.378 210.877 215.417Z" fill="#BB312E"/>
<path d="M202.263 109.875C202.034 110.201 202.387 111.707 201.982 113.292C201.577 114.876 200.404 116.529 200.796 116.49C201.574 116.415 205.2 117.447 205.239 116.895C205.278 116.343 206.591 114.229 207.401 113.739C208.212 113.249 218.456 112.38 218.182 112.759C217.907 113.138 211.684 115.304 210.263 115.333C208.842 115.363 208.852 115.222 207.532 115.66C206.212 116.098 205.343 117.431 206.248 117.362C207.153 117.293 209.74 117.218 209.75 118.884C209.76 120.55 209.46 131.889 208.522 134.173C207.584 136.456 207.78 146.315 207.849 143.549C207.918 140.782 209.558 132.314 210.462 132.383C211.367 132.451 210.11 158.638 210.087 157.935C210.087 157.831 213.746 139.968 213.746 139.968C213.746 139.968 214.425 133.337 214.19 132.526C213.363 129.691 212.478 122.275 213.275 121.922C214.072 121.57 218.78 120.688 218.502 122.742C218.224 124.797 217.947 137.672 217.826 139.325C217.705 140.978 218.878 126.516 220.632 123.602C222.386 120.688 232.124 114.376 231.236 115.97C230.347 117.565 231.563 116.83 232.931 115.686C234.3 114.543 236.753 115.843 238.717 115.441C239.465 115.288 241.448 113.432 243.316 112.112C244.105 111.572 244.924 111.078 245.77 110.633L241.716 112.566C241.716 112.566 239.239 114.363 237.168 114.481C235.097 114.598 229.207 111.933 227.273 111.92C225.339 111.907 202.547 109.489 202.263 109.875Z" fill="url(#paint29_linear_2_8125)"/>
<path d="M198.317 117.019C196.683 119.937 197.16 125.797 198.555 125.905C199.95 126.013 201.201 123.292 201.201 123.292C201.201 123.292 199.924 128.845 201.387 130.479C202.851 132.112 203.021 132.305 203.468 133.281C203.916 134.258 202.75 148.132 203.164 152.127C203.579 156.123 205.739 170.065 206.222 168.216C206.706 166.367 208.228 147.616 208.228 150.069C208.228 152.523 208.734 173.286 208.45 177.226C208.293 179.428 206.513 186.478 205.383 195.905C204.873 200.172 203.24 214.853 203.24 214.853L201.573 214.624C201.573 214.624 203.602 202.563 203.89 196.526C204.285 188.16 204.592 178.461 204.177 177.115C203.648 175.543 202.998 174.014 202.233 172.541C201.952 171.986 201.763 171.633 201.763 171.633C201.763 171.633 199.911 181.358 199.225 183.58C198.539 185.801 199.323 168.987 199.323 164.081C199.323 159.174 200.09 149.726 199.218 147.204C198.346 144.682 197.134 147.858 197.065 151.232C196.997 154.607 196.167 166.478 195.791 164.375C195.416 162.271 196.252 150.635 194.788 153.921C193.325 157.207 195.85 144.003 195.853 139.096C195.857 134.19 198.718 116.294 198.317 117.019Z" fill="url(#paint30_linear_2_8125)"/>
<g opacity="0.41">
<path d="M214.938 135.914C214.938 135.979 214.908 136.113 214.876 136.316C214.872 136.179 214.893 136.043 214.938 135.914Z" fill="#FFB948"/>
</g>
<g opacity="0.41">
<path d="M220.972 155.247C220.883 156.488 218.685 171.003 218.289 173.214C217.963 174.995 216.898 184.527 215.444 189.332C215.091 190.502 214.137 191.502 213.811 191.92C213.295 192.629 212.994 195.334 212.56 198.927C211.785 205.186 211.06 213.611 210.894 215.535L205.552 215.029C205.791 213.872 206.265 201.478 207.591 188.95C207.797 186.99 208.424 182.577 208.675 180.692C209.037 177.874 209.24 175.039 209.286 172.198C209.374 170.957 211.573 185.886 212.919 180.012C214.265 174.139 216.898 160.157 214.771 160.738C212.645 161.32 211.704 171.192 211.351 166.442C211.119 163.378 213.069 151.454 213.925 143.49C214.288 140.122 214.683 137.44 214.853 136.372C214.853 137.182 215.131 138.701 215.202 141.847C215.317 147.002 214.288 155.156 214.876 155.76C215.983 156.858 221.06 154.015 220.972 155.247Z" fill="#FFB948"/>
</g>
<g opacity="0.41">
<path d="M200.995 144.852C199.93 154.375 199.457 184.25 198.94 182.42C197.728 178.101 194.181 176.213 193.73 179.856C193.279 183.498 194.102 193.168 194.089 196.026C194.076 198.885 192.851 205.33 192.952 203.909C193.108 200.201 193.07 196.487 192.838 192.782C192.772 191.61 192.552 190.451 192.185 189.336C191.855 188.335 191.426 187.37 190.904 186.455C190.904 186.455 191.731 187.761 191.528 185.292C191.326 182.822 192.296 178.722 192.443 171.378C192.59 164.035 192.564 151.154 193.217 155.293C193.87 159.432 192.691 170.023 194.419 170.304C195.422 170.467 195.759 169.487 196.007 166.031C196.255 162.575 197.176 152.572 196.987 149.903C196.797 147.234 197.84 143.294 198.888 141.945C199.937 140.596 200.995 144.852 200.995 144.852Z" fill="#FFB948"/>
</g>
<g opacity="0.41">
<path d="M197.493 195.709C196.971 198.757 195.396 201.723 195.915 205.016C196.435 208.309 196.709 215.006 196.967 211.438C197.225 207.871 197.836 203.539 197.735 200.766C197.634 197.992 197.493 195.709 197.493 195.709Z" fill="#FFB948"/>
</g>
<g opacity="0.41">
<path d="M199.855 190.202C199.46 193.586 198.709 195.641 199.032 197.454C199.355 199.267 199.225 203.161 199.538 200.907C199.852 198.653 200.384 195.445 200.375 193.495C200.379 192.376 200.204 191.264 199.855 190.202Z" fill="#FFB948"/>
</g>
<g opacity="0.41">
<path d="M160.464 150.03C160.017 151.062 157.652 153.013 157.59 153.859C157.528 154.705 156.472 167.422 156.182 171.454C155.891 175.485 155.381 178.02 153.8 179.389C152.219 180.757 152.098 179.121 152.098 179.121C152.098 179.121 150.138 188.078 148.848 190.747C147.557 193.416 143.693 201.1 143.693 201.1L147.156 202.436C147.156 202.436 148.943 195.435 150.386 189.617C151.556 184.9 152.304 180.908 153.82 181.777C157.201 183.737 152.905 204.272 152.905 204.272C152.905 204.272 159.396 206.026 158.87 205.559C158.344 205.092 161.484 182.303 163.186 179.235C164.888 176.168 167.067 196.98 167.067 196.98L166.982 189.127L167.178 178.379L167.854 145.777L160.464 150.03Z" fill="#FFB948"/>
</g>
<path d="M168.066 144.529C168.347 145.799 162.421 148.122 161.768 149.102C161.115 150.082 157.897 165.789 157.848 168.657C157.799 171.525 157.848 187.13 158.246 184.501C158.645 181.871 161.474 177.814 161.918 174.776C162.362 171.737 163.725 159.954 164.741 159.226C165.757 158.497 166.655 161.454 166.626 164.126C166.596 166.798 167.256 187.957 166.952 186.902C166.648 185.847 167.929 143.898 168.066 144.529Z" fill="url(#paint31_linear_2_8125)"/>
<path d="M191.322 187.238L191.303 187.215C191.192 187.068 190.561 186.931 189.669 186.817C188.954 186.732 188.075 186.657 187.164 186.601C184.792 186.461 182.198 186.471 181.702 186.722C180.771 187.199 176.873 184.416 177.455 183.504C178.036 182.593 176.406 178.467 176.71 176.007C177.014 173.547 177.791 166.318 177.831 163.985C177.831 163.985 177.693 163.567 177.458 162.868C177.458 162.496 177.422 162.176 177.386 161.905C177.04 159.291 175.459 147.113 175.753 148.246C176.259 150.223 177.795 157.671 177.795 157.671C178.991 160.241 179.987 162.899 180.774 165.622C182.705 172.678 184.959 182.72 185.442 183.122C186.194 183.753 189.856 184.612 190.574 185.807C190.849 186.271 191.099 186.748 191.322 187.238Z" fill="#FF9543"/>
<g opacity="0.41">
<path d="M308.782 219.602C306.071 216.009 307.436 204.147 306.362 199.214C306.254 198.724 305.983 193.661 306.296 187.876C306.623 181.79 310.187 169.804 309.942 169.647C309.511 169.369 307.263 177.621 305.538 186.379C304.558 191.306 300.566 217.776 299.426 218.198C300.246 218.488 302.141 218.41 302.141 218.41C302.141 218.41 304.045 197.767 304.816 198.731C305.587 199.695 304.215 218.795 304.215 218.795L308.782 219.602Z" fill="#FFB948"/>
</g>
<path d="M306.264 186.7C305.901 189.378 306.068 197.598 306.75 203.243C307.433 208.888 307.051 213.098 307.338 214.925C307.609 216.365 307.984 217.785 308.459 219.171C308.459 219.171 305.845 219.152 305.894 218.704C305.943 218.257 306.061 212.853 306.27 209.982C306.479 207.11 305.757 200.744 305.816 198.764C305.875 196.784 306.264 186.7 306.264 186.7Z" fill="url(#paint32_linear_2_8125)"/>
<path d="M303.859 203.935C303.575 206.222 301.746 217.675 303.712 218.338L300.543 217.891C300.543 217.891 301.177 217.907 301.582 217.103C301.987 216.3 303.859 203.935 303.859 203.935Z" fill="url(#paint33_linear_2_8125)"/>
<path d="M174.453 194.141C174.224 194.775 173.051 197.718 172.14 199.166C171.228 200.613 169.788 201.946 169.272 203.497C168.755 205.049 167.047 208.241 167.351 209.636C167.655 211.031 168.896 211.563 172.734 212.439C175.318 213.028 177.946 213.401 180.591 213.556C181.862 213.654 185.475 214.634 187.033 213.213C188.591 211.792 192.792 203.804 193.184 203.04C193.576 202.276 193.214 193.285 192.926 190.731C192.639 188.176 191.999 187.301 191.512 186.811C191.025 186.321 186.808 185.991 185.857 186.134C184.906 186.278 179.353 187.725 178.566 188.389C177.778 189.052 175.802 190.342 174.453 194.141Z" fill="#372638"/>
<path d="M174.495 194.778C176.743 197.408 177.501 200.75 179.738 201.413C181.976 202.076 184.312 201.606 184.776 201.315C185.24 201.024 184.067 196.346 185.21 195.288C186.354 194.229 188.31 192.416 188.709 191.139C189.108 189.862 189.477 187.787 189.036 187.588C188.595 187.389 184.191 187.278 181.251 187.856C178.311 188.434 177.902 189.633 177.174 190.414C176.129 191.56 174.495 194.778 174.495 194.778Z" fill="url(#paint34_linear_2_8125)"/>
</g>
<defs>
<filter id="filter0_d_2_8125" x="0" y="0" width="380" height="279.473" filterUnits="userSpaceOnUse" color-interpolation-filters="sRGB">
<feFlood flood-opacity="0" result="BackgroundImageFix"/>
<feColorMatrix in="SourceAlpha" type="matrix" values="0 0 0 0 0 0 0 0 0 0 0 0 0 0 0 0 0 0 127 0" result="hardAlpha"/>
<feOffset dx="-12" dy="-12"/>
<feGaussianBlur stdDeviation="28"/>
<feComposite in2="hardAlpha" operator="out"/>
<feColorMatrix type="matrix" values="0 0 0 0 0 0 0 0 0 0 0 0 0 0 0 0 0 0 0.35 0"/>
<feBlend mode="normal" in2="BackgroundImageFix" result="effect1_dropShadow_2_8125"/>
<feBlend mode="normal" in="SourceGraphic" in2="effect1_dropShadow_2_8125" result="shape"/>
</filter>
<linearGradient id="paint0_linear_2_8125" x1="316.04" y1="224.019" x2="330.488" y2="225.098" gradientUnits="userSpaceOnUse">
<stop stop-color="#2C1F39"/>
<stop offset="0.52" stop-color="#4B3037"/>
<stop offset="1" stop-color="#543847"/>
</linearGradient>
<linearGradient id="paint1_linear_2_8125" x1="107.081" y1="235.44" x2="122.593" y2="198.758" gradientUnits="userSpaceOnUse">
<stop stop-color="#2C1F39"/>
<stop offset="0.59" stop-color="#4B3037"/>
<stop offset="1" stop-color="#543847"/>
</linearGradient>
<linearGradient id="paint2_linear_2_8125" x1="122.554" y1="179.975" x2="154.273" y2="121.019" gradientUnits="userSpaceOnUse">
<stop stop-color="#714748"/>
<stop offset="1" stop-color="#653C42"/>
</linearGradient>
<linearGradient id="paint3_linear_2_8125" x1="144.804" y1="108.893" x2="168.917" y2="110.693" gradientUnits="userSpaceOnUse">
<stop stop-color="#654249"/>
<stop offset="1" stop-color="#663D42"/>
</linearGradient>
<linearGradient id="paint4_linear_2_8125" x1="280.405" y1="108.285" x2="199.782" y2="158.656" gradientUnits="userSpaceOnUse">
<stop offset="0.01" stop-color="#33334F"/>
<stop offset="0.45" stop-color="#603E4A"/>
<stop offset="0.8" stop-color="#7D4446"/>
<stop offset="1" stop-color="#884745"/>
</linearGradient>
<linearGradient id="paint5_linear_2_8125" x1="255.794" y1="189.92" x2="236.75" y2="110.349" gradientUnits="userSpaceOnUse">
<stop stop-color="#4C3442"/>
<stop offset="0.28" stop-color="#583843"/>
<stop offset="0.79" stop-color="#794244"/>
<stop offset="1" stop-color="#884745"/>
</linearGradient>
<linearGradient id="paint6_linear_2_8125" x1="219.1" y1="154.612" x2="299.223" y2="176.623" gradientUnits="userSpaceOnUse">
<stop stop-color="#932F2D" stop-opacity="0.6"/>
<stop offset="0.31" stop-color="#7E2D31" stop-opacity="0.38"/>
<stop offset="0.77" stop-color="#642B36" stop-opacity="0.11"/>
<stop offset="1" stop-color="#5A2A38" stop-opacity="0"/>
</linearGradient>
<linearGradient id="paint7_linear_2_8125" x1="218.806" y1="147.9" x2="262.853" y2="151.189" gradientUnits="userSpaceOnUse">
<stop stop-color="#954441"/>
<stop offset="0.14" stop-color="#944441" stop-opacity="0.92"/>
<stop offset="0.4" stop-color="#904543" stop-opacity="0.71"/>
<stop offset="0.75" stop-color="#894745" stop-opacity="0.37"/>
<stop offset="0.81" stop-color="#884745" stop-opacity="0.3"/>
</linearGradient>
<linearGradient id="paint8_linear_2_8125" x1="186.816" y1="107.499" x2="169.176" y2="187.253" gradientUnits="userSpaceOnUse">
<stop stop-color="#483548"/>
<stop offset="0.25" stop-color="#563543"/>
<stop offset="0.7" stop-color="#6B343C"/>
<stop offset="1" stop-color="#723439"/>
</linearGradient>
<linearGradient id="paint9_linear_2_8125" x1="186.301" y1="138.578" x2="186.27" y2="138.86" gradientUnits="userSpaceOnUse">
<stop stop-color="#FD903D"/>
<stop offset="0.34" stop-color="#FC7939"/>
<stop offset="0.74" stop-color="#FA6435"/>
<stop offset="1" stop-color="#FA5D34"/>
</linearGradient>
<linearGradient id="paint10_linear_2_8125" x1="163.097" y1="169.912" x2="136.413" y2="156.297" gradientUnits="userSpaceOnUse">
<stop stop-color="#932F2D"/>
<stop offset="0.14" stop-color="#892E2F" stop-opacity="0.83"/>
<stop offset="0.55" stop-color="#702C34" stop-opacity="0.39"/>
<stop offset="0.85" stop-color="#602B37" stop-opacity="0.11"/>
<stop offset="1" stop-color="#5A2A38" stop-opacity="0"/>
</linearGradient>
<linearGradient id="paint11_linear_2_8125" x1="188.757" y1="120.459" x2="181.887" y2="152.017" gradientUnits="userSpaceOnUse">
<stop stop-color="#954441"/>
<stop offset="0.14" stop-color="#944441" stop-opacity="0.92"/>
<stop offset="0.4" stop-color="#904543" stop-opacity="0.71"/>
<stop offset="0.75" stop-color="#894745" stop-opacity="0.37"/>
<stop offset="0.81" stop-color="#884745" stop-opacity="0.3"/>
</linearGradient>
<linearGradient id="paint12_linear_2_8125" x1="143.054" y1="155.764" x2="173.08" y2="158.006" gradientUnits="userSpaceOnUse">
<stop stop-color="#C23933"/>
<stop offset="0.1" stop-color="#C83F32"/>
<stop offset="0.67" stop-color="#E5592D"/>
<stop offset="1" stop-color="#F0632B"/>
</linearGradient>
<linearGradient id="paint13_linear_2_8125" x1="240.901" y1="116.969" x2="229.004" y2="216.332" gradientUnits="userSpaceOnUse">
<stop stop-color="#FD903D"/>
<stop offset="0.34" stop-color="#FC7939"/>
<stop offset="0.74" stop-color="#FA6435"/>
<stop offset="1" stop-color="#FA5D34"/>
</linearGradient>
<linearGradient id="paint14_linear_2_8125" x1="300.036" y1="193.325" x2="336.672" y2="196.061" gradientUnits="userSpaceOnUse">
<stop stop-color="#932F2D"/>
<stop offset="0.2" stop-color="#892E2F" stop-opacity="0.83"/>
<stop offset="0.63" stop-color="#712C34" stop-opacity="0.41"/>
<stop offset="1" stop-color="#5A2A38" stop-opacity="0"/>
</linearGradient>
<linearGradient id="paint15_linear_2_8125" x1="161.669" y1="192.369" x2="177.312" y2="147.868" gradientUnits="userSpaceOnUse">
<stop stop-color="#932F2D"/>
<stop offset="0.26" stop-color="#922F2D" stop-opacity="0.98"/>
<stop offset="0.42" stop-color="#8F2F2E" stop-opacity="0.92"/>
<stop offset="0.56" stop-color="#892E2F" stop-opacity="0.82"/>
<stop offset="0.68" stop-color="#812D30" stop-opacity="0.68"/>
<stop offset="0.79" stop-color="#762C33" stop-opacity="0.5"/>
<stop offset="0.9" stop-color="#6A2B35" stop-opacity="0.28"/>
<stop offset="0.99" stop-color="#5B2A38" stop-opacity="0.02"/>
<stop offset="1" stop-color="#5A2A38" stop-opacity="0"/>
</linearGradient>
<linearGradient id="paint16_linear_2_8125" x1="163.333" y1="142.14" x2="173.591" y2="112.948" gradientUnits="userSpaceOnUse">
<stop stop-color="#932F2D"/>
<stop offset="0.26" stop-color="#922F2D" stop-opacity="0.98"/>
<stop offset="0.42" stop-color="#8F2F2E" stop-opacity="0.92"/>
<stop offset="0.56" stop-color="#892E2F" stop-opacity="0.82"/>
<stop offset="0.68" stop-color="#812D30" stop-opacity="0.68"/>
<stop offset="0.79" stop-color="#762C33" stop-opacity="0.5"/>
<stop offset="0.9" stop-color="#6A2B35" stop-opacity="0.28"/>
<stop offset="0.99" stop-color="#5B2A38" stop-opacity="0.02"/>
<stop offset="1" stop-color="#5A2A38" stop-opacity="0"/>
</linearGradient>
<linearGradient id="paint17_linear_2_8125" x1="173.589" y1="114.42" x2="166.716" y2="206.469" gradientUnits="userSpaceOnUse">
<stop stop-color="#FD903D"/>
<stop offset="0.29" stop-color="#FD8C3C"/>
<stop offset="0.56" stop-color="#FC813A"/>
<stop offset="0.82" stop-color="#FB6F37"/>
<stop offset="1" stop-color="#FA5D34"/>
</linearGradient>
<linearGradient id="paint18_linear_2_8125" x1="308.969" y1="165.819" x2="304.45" y2="217.44" gradientUnits="userSpaceOnUse">
<stop stop-color="#FD903D"/>
<stop offset="0.34" stop-color="#FC7939"/>
<stop offset="0.74" stop-color="#FA6435"/>
<stop offset="1" stop-color="#FA5D34"/>
</linearGradient>
<linearGradient id="paint19_linear_2_8125" x1="248.944" y1="173.347" x2="233.29" y2="220.265" gradientUnits="userSpaceOnUse">
<stop stop-color="#FDA460"/>
<stop offset="0.1" stop-color="#FD9A5A"/>
<stop offset="0.48" stop-color="#FB7945"/>
<stop offset="0.79" stop-color="#FA6439"/>
<stop offset="1" stop-color="#FA5D34"/>
</linearGradient>
<linearGradient id="paint20_linear_2_8125" x1="260.944" y1="178.298" x2="245.598" y2="224.292" gradientUnits="userSpaceOnUse">
<stop stop-color="#FDA460"/>
<stop offset="0.1" stop-color="#FD9A5A"/>
<stop offset="0.48" stop-color="#FB7945"/>
<stop offset="0.79" stop-color="#FA6439"/>
<stop offset="1" stop-color="#FA5D34"/>
</linearGradient>
<linearGradient id="paint21_linear_2_8125" x1="254.754" y1="175.986" x2="239.245" y2="222.465" gradientUnits="userSpaceOnUse">
<stop stop-color="#FDA460"/>
<stop offset="0.1" stop-color="#FD9A5A"/>
<stop offset="0.48" stop-color="#FB7945"/>
<stop offset="0.79" stop-color="#FA6439"/>
<stop offset="1" stop-color="#FA5D34"/>
</linearGradient>
<linearGradient id="paint22_linear_2_8125" x1="296.577" y1="169.313" x2="283.938" y2="224.131" gradientUnits="userSpaceOnUse">
<stop stop-color="#FD903D"/>
<stop offset="0.34" stop-color="#FC7939"/>
<stop offset="0.74" stop-color="#FA6435"/>
<stop offset="1" stop-color="#FA5D34"/>
</linearGradient>
<linearGradient id="paint23_linear_2_8125" x1="266.407" y1="113.939" x2="282.054" y2="115.108" gradientUnits="userSpaceOnUse">
<stop stop-color="#FDA460"/>
<stop offset="0.1" stop-color="#FD9A5A"/>
<stop offset="0.48" stop-color="#FB7945"/>
<stop offset="0.79" stop-color="#FA6439"/>
<stop offset="1" stop-color="#FA5D34"/>
</linearGradient>
<linearGradient id="paint24_linear_2_8125" x1="81.4856" y1="215.41" x2="110.739" y2="198.601" gradientUnits="userSpaceOnUse">
<stop stop-color="#342A43"/>
<stop offset="0.31" stop-color="#402F43"/>
<stop offset="0.87" stop-color="#613D44"/>
<stop offset="1" stop-color="#694044"/>
</linearGradient>
<linearGradient id="paint25_linear_2_8125" x1="111.919" y1="219.003" x2="140.661" y2="221.149" gradientUnits="userSpaceOnUse">
<stop stop-color="#FDA460"/>
<stop offset="0.1" stop-color="#FD9A5A"/>
<stop offset="0.48" stop-color="#FB7945"/>
<stop offset="0.79" stop-color="#FA6439"/>
<stop offset="1" stop-color="#FA5D34"/>
</linearGradient>
<linearGradient id="paint26_linear_2_8125" x1="74.4438" y1="208.768" x2="109.519" y2="211.387" gradientUnits="userSpaceOnUse">
<stop stop-color="#F98C3A"/>
<stop offset="0.3" stop-color="#F97938"/>
<stop offset="0.72" stop-color="#FA6435"/>
<stop offset="1" stop-color="#FA5D34"/>
</linearGradient>
<linearGradient id="paint27_linear_2_8125" x1="137.927" y1="229.606" x2="138.139" y2="205.744" gradientUnits="userSpaceOnUse">
<stop stop-color="#4C3442"/>
<stop offset="0.28" stop-color="#583843"/>
<stop offset="0.79" stop-color="#794244"/>
<stop offset="1" stop-color="#884745"/>
</linearGradient>
<linearGradient id="paint28_linear_2_8125" x1="156.558" y1="215.81" x2="145.318" y2="218.577" gradientUnits="userSpaceOnUse">
<stop stop-color="#805B5C"/>
<stop offset="1" stop-color="#653C42"/>
</linearGradient>
<linearGradient id="paint29_linear_2_8125" x1="223.635" y1="109.756" x2="218.117" y2="161.725" gradientUnits="userSpaceOnUse">
<stop stop-color="#FCEE47"/>
<stop offset="0.17" stop-color="#FCE244" stop-opacity="0.9"/>
<stop offset="0.55" stop-color="#FEC53E" stop-opacity="0.63"/>
<stop offset="0.98" stop-color="#FFA036" stop-opacity="0.3"/>
</linearGradient>
<linearGradient id="paint30_linear_2_8125" x1="205.916" y1="120.548" x2="195.407" y2="219.53" gradientUnits="userSpaceOnUse">
<stop stop-color="#FCEE47"/>
<stop offset="0.17" stop-color="#FCE244" stop-opacity="0.9"/>
<stop offset="0.55" stop-color="#FEC53E" stop-opacity="0.63"/>
<stop offset="0.98" stop-color="#FFA036" stop-opacity="0.3"/>
</linearGradient>
<linearGradient id="paint31_linear_2_8125" x1="165.455" y1="146.563" x2="161.615" y2="186.014" gradientUnits="userSpaceOnUse">
<stop stop-color="#FCEE47"/>
<stop offset="0.17" stop-color="#FCE244" stop-opacity="0.9"/>
<stop offset="0.55" stop-color="#FEC53E" stop-opacity="0.63"/>
<stop offset="0.98" stop-color="#FFA036" stop-opacity="0.3"/>
</linearGradient>
<linearGradient id="paint32_linear_2_8125" x1="307.188" y1="218.887" x2="306.865" y2="187.595" gradientUnits="userSpaceOnUse">
<stop stop-color="#FFC240"/>
<stop offset="0.18" stop-color="#FFBD3E" stop-opacity="0.89"/>
<stop offset="0.58" stop-color="#FFAF3A" stop-opacity="0.61"/>
<stop offset="0.98" stop-color="#FFA036" stop-opacity="0.3"/>
</linearGradient>
<linearGradient id="paint33_linear_2_8125" x1="302.278" y1="218.222" x2="302.135" y2="204.348" gradientUnits="userSpaceOnUse">
<stop stop-color="#FFC240"/>
<stop offset="0.18" stop-color="#FFBD3E" stop-opacity="0.89"/>
<stop offset="0.58" stop-color="#FFAF3A" stop-opacity="0.61"/>
<stop offset="0.98" stop-color="#FFA036" stop-opacity="0.3"/>
</linearGradient>
<linearGradient id="paint34_linear_2_8125" x1="183.061" y1="187.228" x2="179.564" y2="201.207" gradientUnits="userSpaceOnUse">
<stop stop-color="#864645"/>
<stop offset="0.13" stop-color="#884544" stop-opacity="0.86"/>
<stop offset="0.53" stop-color="#8D4241" stop-opacity="0.51"/>
<stop offset="0.83" stop-color="#904140" stop-opacity="0.28"/>
<stop offset="1" stop-color="#91403F" stop-opacity="0.2"/>
</linearGradient>
</defs>
</svg>
