<svg width="141" height="154" viewBox="0 0 141 154" fill="none" xmlns="http://www.w3.org/2000/svg">
<path d="M65.5641 28.993C66.7041 28.793 68.2341 27.623 69.1641 27.613C73.0541 27.613 74.4441 30.333 72.8541 34.253C70.8541 39.113 51.6841 67.573 46.4241 68.253C41.1641 68.933 41.8141 61.313 37.2041 67.563C32.5941 73.813 31.2841 77.283 27.3341 77.973C23.3841 78.663 12.8441 77.283 10.8741 80.753C8.90408 84.223 8.87408 90.473 8.87408 93.943C8.87408 97.413 10.1941 100.193 8.21408 104.353C6.23408 108.513 -2.97591 122.403 0.974091 119.633C4.92409 116.863 12.8241 107.133 16.1141 105.053C19.4041 102.973 22.0441 102.963 24.6741 98.113C27.3041 93.263 25.3341 93.253 28.6241 90.473C31.9141 87.693 32.5741 91.163 37.1841 87.003C41.7941 82.843 42.4441 75.913 49.7141 78.693C56.9841 81.473 58.2741 96.693 54.3241 107.843C50.3741 118.993 28.6441 127.993 28.6441 141.173C28.6441 154.353 33.9141 157.833 46.4241 149.503C58.9341 141.173 63.5441 118.993 66.8341 110.623C70.1241 102.253 78.0241 89.793 79.3441 80.773C80.6641 71.753 79.3441 57.173 81.9741 51.613C84.6041 46.053 91.8441 27.313 96.4441 23.843C101.044 20.373 106.294 18.393 110.904 14.223C115.514 10.053 124.604 5.52298 127.904 3.43299C131.204 1.34299 139.524 2.80299 140.184 3.50299C140.524 3.86299 139.404 1.88299 136.714 0.782985C135.019 0.171444 133.216 -0.0863764 131.417 0.0254137C129.618 0.137204 127.861 0.616236 126.254 1.43299C123.044 2.99299 117.154 6.70299 110.914 9.75299C101.464 14.383 93.9141 16.413 87.0141 18.673C82.7041 20.073 73.2041 22.823 68.3541 25.793C67.0543 26.4703 66.058 27.6131 65.5641 28.993Z" fill="#FF8E39"/>
<path opacity="0.72" d="M52.4441 114.993C56.6341 113.323 52.9841 137.053 44.6441 145.663C36.3041 154.273 27.4441 152.583 28.8841 140.393C30.3241 128.203 51.0741 115.533 52.4441 114.993Z" fill="#FFCF4B"/>
<path d="M46.1641 75.3229C55.7941 67.6229 60.8341 79.9329 66.7041 83.3229C72.5741 86.7129 75.5041 72.4229 76.7641 61.5229C78.0241 50.6229 84.7641 34.6929 87.6641 28.4129C90.5641 22.1329 65.8641 23.7929 71.7341 25.8929C77.6041 27.9929 76.7341 32.1829 71.3141 37.6329C65.8941 43.0829 59.1541 58.1729 54.9641 64.4529C50.7741 70.7329 45.7441 72.4529 43.2341 69.9029C40.7241 67.3529 39.0941 65.1329 36.1641 70.1629C33.2341 75.1929 34.0541 76.3929 28.8441 77.9929C21.2541 80.3429 12.3041 75.9929 10.6241 83.9929C9.81409 87.8529 10.0341 94.0929 11.4841 94.5529C12.9341 95.0129 15.8941 89.5529 18.9141 86.7129C24.7841 81.2629 29.3941 82.5229 34.0041 81.7129C38.6141 80.9029 44.0641 76.9929 46.1641 75.3229Z" fill="#FFD655"/>
</svg>
