<svg width="61" height="140" viewBox="0 0 61 140" fill="none" xmlns="http://www.w3.org/2000/svg">
<path d="M60.1806 137.737C59.9354 139.585 53.6423 139.2 51.4616 138.114C49.2809 137.027 43.1085 132.998 41.6522 132.998C40.1959 132.998 36.5702 131.9 35.1176 130.074C33.6651 128.248 22.9917 122.668 21.6863 121.2C18.4605 117.571 12.6315 105.815 12.6315 105.815C12.6315 105.815 9.27365 101.846 8.33421 99.6309C7.95693 98.782 5.95355 96.1712 4.45573 93.9301C2.05998 90.3421 0 86.5315 0 86.5315C0.233916 86.7164 1.96565 89.9912 4.68965 93.7C7.32103 97.1866 10.141 100.527 13.137 103.706C14.5325 105.153 16.1823 106.33 18.004 107.18C19.2604 107.973 20.5167 102.442 20.6752 101.495C20.8336 100.548 20.0451 89.1688 19.8904 87.9124C19.8225 87.3767 19.1359 82.8153 18.9057 79.3065C18.5963 74.5452 18.6794 70.629 18.0682 71.1119C17.008 71.9646 17.2457 72.0287 17.1287 73.4586C17.0118 74.8886 16.5364 80.627 16.5364 80.0234C16.5364 79.4197 15.7063 69.2821 16.061 68.4483C16.4156 67.6145 17.3664 65.5809 17.1287 63.9209C16.891 62.2608 14.865 52.342 15.2423 49.9614C15.6196 47.5807 17.3777 34.9228 17.7324 33.0138C18.087 31.1047 19.2717 29.7918 19.0378 28.8372C18.8039 27.8827 19.2717 5.92098 20.3394 5.08718C21.1743 4.37125 21.9329 3.57093 22.6031 2.69897C22.6031 2.69897 28.0209 -0.319305 28.8509 0.0277966C28.4736 -0.228757 22.5692 3.51768 22.4635 6.38126C22.3579 9.24485 22.0259 10.9389 22.1994 25.1398C22.2334 28.0638 21.675 39.3446 21.675 39.3446C21.675 39.3446 18.8265 47.1808 18.7133 50.7424C18.4228 59.9104 20.5997 64.3246 21.5014 71.4289C23.0709 83.8792 25.6817 90.5421 24.9838 93.8735C24.5235 96.0882 25.1611 108.248 25.6817 112.459C25.9496 114.617 27.4323 117.518 32.3031 120.872C36.4834 123.758 44.048 127.184 45.3647 128.418C50.0694 132.798 60.3617 136.367 60.1806 137.737Z" fill="url(#paint0_linear_3_1759)"/>
<path opacity="0.72" d="M21.1091 74.4966C22.4258 79.5899 24.9536 88.9466 24.4631 92.727C23.9726 96.5073 24.4631 106.686 24.6254 110.459C24.7084 112.346 24.1877 113.949 23.6746 114.232C23.1615 114.515 22.6522 113.534 21.2562 112.723C20.0904 112.036 18.4077 109.856 16.8156 108.196C14.5971 105.883 12.6843 104.147 13.7369 105.011C14.6952 105.796 16.3138 106.694 17.6795 107.766C18.8793 108.705 20.0225 109.599 21.177 109.135C23.6406 108.15 22.6559 96.4847 22.6559 93.1986C22.6559 89.9124 23.7878 90.5123 23.3086 87.2262C22.8295 83.94 21.1091 74.4966 21.1091 74.4966Z" fill="#FFCF4B"/>
<defs>
<linearGradient id="paint0_linear_3_1759" x1="60.2372" y1="138.182" x2="-3.60306" y2="5.91343" gradientUnits="userSpaceOnUse">
<stop stop-color="#E67A4B"/>
<stop offset="0.17" stop-color="#EB8544"/>
<stop offset="0.5" stop-color="#F29538"/>
<stop offset="0.7" stop-color="#F69D37"/>
<stop offset="1" stop-color="#F9A336"/>
</linearGradient>
</defs>
</svg>
