<svg width="141" height="154" viewBox="0 0 141 154" fill="none" xmlns="http://www.w3.org/2000/svg">
<path d="M74.6792 28.993C73.5392 28.793 72.0092 27.623 71.0792 27.613C67.1892 27.613 65.7992 30.333 67.3892 34.253C69.3892 39.113 88.5592 67.573 93.8192 68.253C99.0792 68.933 98.4292 61.313 103.039 67.563C107.649 73.813 108.959 77.283 112.909 77.973C116.859 78.663 127.399 77.283 129.369 80.753C131.339 84.223 131.369 90.473 131.369 93.943C131.369 97.413 130.049 100.193 132.029 104.353C134.009 108.513 143.219 122.403 139.269 119.633C135.319 116.863 127.419 107.133 124.129 105.053C120.839 102.973 118.199 102.963 115.569 98.113C112.939 93.263 114.909 93.253 111.619 90.473C108.329 87.693 107.669 91.163 103.059 87.003C98.4492 82.843 97.7992 75.913 90.5292 78.693C83.2592 81.473 81.9692 96.693 85.9192 107.843C89.8692 118.993 111.599 127.993 111.599 141.173C111.599 154.353 106.329 157.833 93.8192 149.503C81.3092 141.173 76.6992 118.993 73.4092 110.623C70.1192 102.253 62.2192 89.793 60.8992 80.773C59.5792 71.753 60.8992 57.173 58.2692 51.613C55.6392 46.053 48.3992 27.313 43.7992 23.843C39.1992 20.373 33.9492 18.393 29.3392 14.223C24.7292 10.053 15.6392 5.52298 12.3392 3.43299C9.03921 1.34299 0.719211 2.80299 0.059211 3.50299C-0.280789 3.86299 0.839212 1.88299 3.52921 0.782985C5.22473 0.171444 7.02752 -0.0863764 8.82648 0.0254137C10.6254 0.137204 12.3824 0.616236 13.9892 1.43299C17.1992 2.99299 23.0892 6.70299 29.3292 9.75299C38.7792 14.383 46.3292 16.413 53.2292 18.673C57.5392 20.073 67.0392 22.823 71.8892 25.793C73.1889 26.4703 74.1853 27.6131 74.6792 28.993Z" fill="#FF8E39"/>
<path opacity="0.72" d="M87.7992 114.993C83.6092 113.323 87.2592 137.053 95.5992 145.663C103.939 154.273 112.799 152.583 111.359 140.393C109.919 128.203 89.1692 115.533 87.7992 114.993Z" fill="#FFCF4B"/>
<path d="M94.0792 75.3229C84.4492 67.6229 79.4092 79.9329 73.5392 83.3229C67.6692 86.7129 64.7392 72.4229 63.4792 61.5229C62.2192 50.6229 55.4792 34.6929 52.5792 28.4129C49.6792 22.1329 74.3792 23.7929 68.5092 25.8929C62.6392 27.9929 63.5092 32.1829 68.9292 37.6329C74.3492 43.0829 81.0892 58.1729 85.2792 64.4529C89.4692 70.7329 94.4992 72.4529 97.0092 69.9029C99.5192 67.3529 101.149 65.1329 104.079 70.1629C107.009 75.1929 106.189 76.3929 111.399 77.9929C118.989 80.3429 127.939 75.9929 129.619 83.9929C130.429 87.8529 130.209 94.0929 128.759 94.5529C127.309 95.0129 124.349 89.5529 121.329 86.7129C115.459 81.2629 110.849 82.5229 106.239 81.7129C101.629 80.9029 96.1792 76.9929 94.0792 75.3229Z" fill="#FFD655"/>
</svg>
