<svg width="296" height="280" viewBox="0 0 296 280" fill="none" xmlns="http://www.w3.org/2000/svg">
<g filter="url(#filter0_d_2_8196)">
<path d="M-7.22971 216.042C-5.0083 218.404 -10.0065 218.162 -11.6366 219.867C-13.2667 221.572 -5.83807 223.212 -2.94698 222.67C-0.0558777 222.128 4.80179 228.727 4.80179 228.727C4.80179 228.727 14.5237 229.553 21.5113 229.011C22.818 228.91 24.0039 228.874 25.1048 228.883C29.9429 228.942 33.1149 229.981 36.2869 231.02C38.6716 231.797 57.645 230.347 74.4656 229.279L78.4413 229.027C87.451 228.482 95.3599 228.106 99.0219 228.357C109.904 229.092 144.796 229.867 150.059 229.769C155.321 229.671 159.709 229.658 159.859 231.859C159.905 232.47 160.944 233.035 162.557 233.522C166.729 234.77 174.719 235.528 179.146 235.417C185.31 235.26 220.265 228.727 226.645 227.923C226.645 227.923 238.781 225.718 243.083 224.431C244.566 223.99 250.675 222.928 251.557 221.556C253.213 218.979 248.816 215.48 247.794 214.121C247.794 214.121 246.654 214.353 246.637 214.34L243.371 216.231L214.087 195.693L207.139 192.753C207.139 192.753 -10.552 206.513 -14.2402 208.365C-17.9284 210.217 -9.45111 213.699 -7.22971 216.042Z" fill="#FFC240"/>
<path d="M74.1357 229.089L74.678 229.321C76.0239 229.233 77.3534 229.151 78.6569 229.073C87.6666 228.524 95.5755 228.148 99.2375 228.4C110.122 229.138 145.011 229.909 150.278 229.811C155.544 229.713 159.924 229.7 160.078 231.902C160.231 234.103 173.227 235.619 179.352 235.462C185.477 235.306 220.474 228.795 226.847 227.978C226.847 227.978 238.983 225.773 243.286 224.489C247.588 223.205 247.954 220.373 246.389 218.282C244.955 217.792 243.593 217.302 242.329 216.835C224.361 210.096 208.929 221.935 197.182 222.239C185.434 222.542 174.412 219.609 167.376 218.906C160.339 218.204 153.528 228.749 142.349 227.106C131.17 225.463 148.331 220.644 142.588 220.069C135.074 219.315 110.403 225.509 102.671 225.812C91.5083 226.253 129.743 213.689 133.313 213.297L100.972 216.084L74.1357 229.089Z" fill="#F8A940"/>
<path d="M13.3542 225.169C16.5295 225.515 20.5084 227.08 25.1145 228.87C29.9526 228.929 33.1247 229.968 36.2967 231.007C38.8742 231.85 60.7975 230.089 78.438 229.014C92.2957 224.522 102.939 220.079 100.672 220.236C100.672 220.236 29.688 217.646 27.3719 217.825C25.0558 218.005 3.3742 224.071 13.3542 225.169Z" fill="#FC923C"/>
<path d="M159.879 231.846C159.879 231.846 160.859 232.499 162.577 233.509C166.749 234.757 174.739 235.515 179.166 235.404C185.31 235.26 220.265 228.726 226.645 227.923C226.645 227.923 238.781 225.718 243.083 224.431C245.141 223.826 251.531 222.895 251.969 220.559C252.442 218.047 247.366 213.673 247.356 213.667L243.371 216.221C240.999 216.835 237.905 218.57 231.248 219.086C219.605 219.991 182.331 226.894 174.233 225.234C166.134 223.575 168.614 228.54 159.879 231.846Z" fill="#F98C3A"/>
<path d="M-15.7233 207.773L-15.5599 208.022C-13.9265 210.217 -6.16798 214.372 -5.34804 214.31C-4.52808 214.248 -5.07687 215.754 -4.23077 215.689C-3.38469 215.623 0.93071 216.208 1.67227 217.064C2.41383 217.92 4.25302 219.622 5.42578 219.351C6.36334 219.125 17.0784 217.913 21.7988 216.94C23.0043 216.685 23.8177 216.456 23.9778 216.254C24.765 215.274 23.8602 221.771 26.3429 223.042C28.8256 224.313 33.2391 223.98 34.4641 224.431C35.3168 224.732 36.1902 224.971 37.0775 225.146C37.0775 225.146 59.0955 225.091 62.1598 225.035C65.224 224.979 75.2856 224.748 75.939 224.336C76.2642 224.128 76.6354 224.004 77.0199 223.974C77.4044 223.944 77.7905 224.009 78.1441 224.163C78.8497 224.47 97.9113 222.098 100.685 220.243C101.077 219.971 100.776 216.042 100.776 216.042C100.776 216.042 107.963 215.228 110.541 215.195C113.118 215.163 130.7 211.576 133.333 213.18C135.584 214.549 139.004 213.412 140.908 213.343C144.632 213.246 148.305 212.449 151.735 210.994C153.554 210.23 151.225 205.977 151.859 206.695C152.388 207.316 161.626 205.363 166.069 204.17C170.512 202.978 176.379 201.112 176.379 201.112L178.029 201.658C178.029 201.658 204.542 195.778 206.123 195.18C207.704 194.582 206.718 191.23 206.718 191.23C206.718 191.23 203.98 186.912 201.04 181.414C197.812 175.41 194.304 167.984 193.788 163.234C192.788 154.133 180.146 139.714 177.97 128.489C177.725 127.238 177.47 126.039 177.192 124.895C175.017 115.748 171.966 110.019 170.051 108.535C167.885 106.869 152.084 95.9878 149.18 98.4085C146.276 100.829 142.529 115.069 142.529 115.069C142.529 115.069 123.435 105.922 121.393 106.066C119.351 106.21 117.473 108.578 117.032 107.137C116.591 105.697 111.204 87.7817 109.734 86.4292C108.264 85.0768 61.2222 67.0736 58.2266 68.0373C55.231 69.001 55.6132 69.7066 54.4665 72.7349C53.3199 75.7632 52.4673 97.1181 52.4673 97.1181C52.4673 97.1181 39.7269 109.859 38.5182 112.145C37.3094 114.432 34.6634 134.467 34.6634 134.467C34.6634 134.467 28.7277 127.953 27.7672 128.763C26.8068 129.573 14.87 148.854 13.5894 150.056C12.3089 151.258 13.2628 169.173 13.2628 169.173C13.2628 169.173 7.80725 169.226 6.50381 170.062C5.20038 170.898 -13.0053 183.694 -13.4986 186.301C-13.9919 188.908 -16.896 205.663 -15.7233 207.773Z" fill="#372638"/>
<path d="M3.48528 229.112C1.95643 231.026 -1.0392 229.87 -2.65951 230.317C-4.27983 230.765 -5.07366 231.232 -6.38364 230.768C-7.69361 230.304 -10.1633 228.318 -10.3299 227.037C-10.4965 225.757 -7.69033 218.841 -6.20722 218.563C-4.72411 218.286 -2.71505 219.099 -1.25481 219.543C0.205439 219.988 3.42647 224.117 3.97202 225.352C4.51757 226.586 3.55388 229.027 3.48528 229.112Z" fill="url(#paint0_linear_2_8196)"/>
<path d="M160.173 222.369C160.431 223.611 167.092 227.949 167.938 228.063C168.784 228.177 174.576 227.367 176.137 228.145C177.699 228.922 181.691 231.124 184.275 232.003C186.859 232.882 191.204 233.084 193.726 233.251C196.248 233.417 230.379 226.805 232.822 225.897C234.57 225.244 240.591 222.245 244.086 219.978C245.478 219.079 246.468 218.292 246.624 217.815C247.173 216.152 249.277 210.592 249.052 209.717C247.98 205.637 244.805 199.792 242.28 199.263C239.754 198.734 226.416 192.596 224.887 192.178C223.359 191.76 181.511 202.739 179.989 204.83C178.467 206.921 178.355 216.829 178.029 217.208C177.702 217.587 168.866 210.73 165.759 211.87C162.652 213.01 161.411 216.525 160.669 217.838C159.928 219.151 159.915 221.134 160.173 222.369Z" fill="url(#paint1_linear_2_8196)"/>
<path d="M163.286 130.23C164.73 131.576 165.246 138.805 167.301 140.975C169.356 143.144 191.04 166.197 192.755 167.524C194.47 168.85 192.429 174.237 191.831 177.193C191.233 180.15 193.138 180.293 194.876 181.904C196.326 183.25 199.861 181.999 200.984 181.548C197.757 175.544 194.248 168.118 193.732 163.368C192.733 154.267 180.09 139.831 177.914 128.623C177.669 127.372 177.415 126.173 177.137 125.029C176.552 123.834 176.157 123.047 176.013 122.837C175.105 121.449 169.013 119.594 166.673 120.946C164.334 122.298 161.561 125.121 160.882 126.924C160.202 128.727 161.839 128.891 163.286 130.23Z" fill="url(#paint2_linear_2_8196)"/>
<path d="M176.134 121.433C175.807 121.234 171.61 119.473 169.022 118.63C167.271 118.065 168.006 113.475 164.593 112.613C161.179 111.75 156.968 114.331 155.07 112.678C153.172 111.025 149.066 99.0718 150.572 98.1636C151.323 97.7128 156.52 100.245 161.368 103.087C166.216 105.929 170.711 109.081 171.296 109.904C174.024 113.769 176.134 121.433 176.134 121.433Z" fill="url(#paint3_linear_2_8196)"/>
<path d="M25.2877 138.89C24.7225 140.589 29.0445 140.739 31.8866 142.036C34.7286 143.333 37.8288 145.75 38.9003 146.267C39.7464 146.681 41.909 148.524 42.8825 148.347L48.3413 152.686C48.3413 152.686 55.8352 160.154 53.5387 163.064C52.232 164.727 39.1943 165.831 33.0364 170.114C34.1504 170.114 36.2771 170.689 40.341 173.054C48.4785 177.804 52.1013 181.711 55.6294 184.432C59.1575 187.153 58.8962 175.798 71.2544 177.245C83.6126 178.692 81.3454 186.033 81.94 178.81C82.5345 171.587 94.4125 182.028 95.141 184.364C95.141 184.364 95.0561 168.239 94.6281 160.32C96.6502 159.909 98.6234 159.494 98.6234 159.494C98.6234 159.494 127.044 152.483 126.936 150.889C126.868 149.909 122.383 127.878 117.659 109.728C114.647 98.1601 111.001 88.0004 110.08 86.452C107.702 82.4633 57.7071 66.7272 56.8675 68.1352C55.0153 71.2909 63.1822 77.7526 61.4116 77.0927C59.641 76.4328 55.2048 73.3229 56.8381 75.3221C58.4715 77.3214 61.5717 79.497 62.7477 83.1918C64.2472 87.8796 66.5208 87.3471 67.4127 92.7928C67.7592 94.8824 68.5323 96.8782 69.684 98.6559C70.8356 100.434 72.3409 101.955 74.1063 103.126C76.3636 104.55 78.4282 107.951 75.2627 107.66C72.0972 107.369 66.6254 104.948 66.6254 104.948C66.6254 104.948 59.3503 101.639 61.1731 103.044C58.7524 101.881 56.665 100.885 55.1361 100.104C51.0919 98.0229 56.0345 112.599 54.5481 115.102C53.0618 117.604 38.3776 114.174 38.3776 114.174L39.142 133.052C39.142 133.052 46.0839 144.486 47.309 146.182C47.9917 147.116 45.3946 147.044 42.9184 146.776C42.0782 145.776 41.3364 144.698 40.7036 143.555C39.0702 140.452 36.9435 137.512 29.5181 129.815C27.1563 127.375 26.6107 132.445 25.3203 133.735C24.03 135.026 25.7156 134.196 26.4408 134.614C27.1661 135.032 25.8561 137.198 25.2877 138.89Z" fill="url(#paint4_linear_2_8196)"/>
<path d="M117.737 110.074C117.737 110.074 109.933 106.288 108.767 102.779C107.6 99.2708 111.981 109.404 104.085 109.688C96.1895 109.973 93.4618 101.675 92.7627 104.677C92.0636 107.679 94.4908 111.743 89.3163 107.562C84.1417 103.38 72.5871 86.599 75.0797 91.6429C77.5722 96.6867 79.3493 108.666 76.3668 109.551C73.3842 110.437 66.2398 108.375 66.6057 109.326C66.9716 110.277 66.2137 116.562 63.0939 119.75C59.9741 122.939 58.785 123.344 58.785 123.344C58.785 123.344 67.6053 131.511 69.4576 136.267C71.3098 141.023 62.2707 150.902 59.8402 150.765C57.4097 150.628 49.6152 148.285 50.2914 149.216C50.9677 150.147 60.0166 162.571 58.0827 165.351C56.8152 167.171 48.2824 168.03 40.8701 168.49C36.9859 168.729 33.265 169.813 33.6015 170.124C34.5816 171.029 44.7314 177.83 44.3819 181.456C44.0323 185.082 39.632 187.392 40.8407 187.297C42.0494 187.202 56.6355 186.725 59.5691 189.443C62.5026 192.161 62.2935 180.721 69.6078 180.806C76.9221 180.891 85.4321 190.878 85.4321 190.878C85.4321 190.878 82.7664 184.066 87.1471 183.364C94.3536 182.224 99.5184 190.26 99.5184 190.26C99.5184 190.26 97.2088 183.563 98.816 180.492C100.423 177.422 100.678 168.236 100.678 168.236C100.678 168.236 117.763 110.397 117.737 110.074Z" fill="url(#paint5_linear_2_8196)"/>
<path d="M81.0548 115.866C78.7027 116.5 70.3463 111.008 70.3463 111.008C70.3463 111.008 73.5314 145.734 68.3405 151.092C61.9736 157.664 43.8724 149.321 43.8724 149.321C43.8724 149.321 50.6902 155.855 49.2332 159.141C47.7762 162.427 37.4728 166.2 37.4728 166.2L17.6141 170.689C17.6141 170.689 25.5916 171.457 30.9687 175.128C34.157 177.304 35.5421 182.577 36.2249 183.661C38.283 186.928 28.646 206.506 28.646 206.506C28.646 206.506 31.2823 199.348 40.1842 196.327C51.4219 192.511 69.7844 192.704 73.5314 193.422C77.9219 194.265 80.6399 200.178 80.6399 200.178C80.6399 200.178 90.2377 198.055 92.1455 197.787C95.5658 197.3 99.7734 206.934 99.7734 206.934C99.7734 206.934 102.112 184.703 101.273 173.018C99.8648 153.512 94.589 112.214 81.0548 115.866Z" fill="url(#paint6_linear_2_8196)"/>
<path d="M58.3114 166.684C67.8732 173.822 67.8896 180.287 67.8896 180.287C67.8896 180.287 69.8496 176.491 76.9516 178.81C81.0906 180.159 82.7795 182.034 82.7795 182.034C82.7795 182.034 79.1436 175.223 87.3693 176.664C95.595 178.104 99.3682 187.931 99.3682 187.931C99.3682 187.931 102.116 172.502 101.139 169.666C100.162 166.831 101.41 169.418 101.969 161.058C102.527 152.699 97.5486 141.252 97.3428 138.358C97.137 135.463 91.7435 119.662 88.9047 117.803C86.0659 115.944 84.2594 117.748 81.0906 116.748C77.9218 115.748 67.331 108.254 66.7723 111.195C66.2137 114.135 66.9814 119.495 63.2246 121.034C59.4678 122.573 54.7604 121.687 56.7434 122.367C57.9031 122.765 64.6914 123.562 68.3567 126.777C70.9538 129.064 70.0228 133.663 73.1393 135.235C76.3146 136.832 79.4539 143.075 79.4539 143.075C79.4539 143.075 78.0296 150.729 78.696 153.274C79.7643 157.351 76.344 163.688 73.3843 165.58C70.4246 167.471 58.3114 166.684 58.3114 166.684Z" fill="url(#paint7_linear_2_8196)"/>
<path d="M82.5149 140.981C84.7559 142.526 88.0945 146.685 89.5646 149.713C91.0346 152.741 91.0673 159.02 92.0898 161.633C92.7987 166.756 89.6266 163.796 83.1846 165.469C77.3044 166.994 69.7908 168.128 67.6903 167.84C65.5898 167.553 59.9742 167.331 59.9742 167.331C59.9742 167.331 52.1111 151.275 53.4406 152.519C54.4207 153.421 57.9651 159.84 62.4798 162.453C64.1687 163.433 66.0732 161.82 67.9092 162.166C74.6779 163.433 78.5752 159.553 81.3813 157.978C84.1875 156.403 82.5149 140.981 82.5149 140.981Z" fill="#572933"/>
<path d="M100.423 165.812C100.423 165.812 100.538 177.503 100.299 180.718C100.061 183.932 99.7635 189.956 99.525 190.257C99.2865 190.557 100.724 216.169 100.724 216.169C100.724 216.169 108.309 216.29 108.741 215.577C109.172 214.865 105.359 209.779 104.343 199.93C103.328 190.08 100.423 165.812 100.423 165.812Z" fill="#572933"/>
<path d="M120.498 106.53C122.334 106.386 138.876 111.799 142.035 114.043C145.194 116.288 147.07 116.627 148.18 119.27C149.291 121.913 152.953 140.736 153.237 144.682C153.521 148.629 155.037 203.04 152.757 200.237C150.477 197.434 143.283 186.65 142.444 181.505C142.16 179.744 142.803 172.793 142.529 168.167C141.996 159.288 144.378 145.626 144.113 146.136C143.705 146.913 143.76 154.104 140.141 151.905C136.521 149.707 136.782 140.504 135.724 141.827C134.666 143.15 130.925 148.9 130.713 145.937C130.5 142.974 128.625 132.948 127.812 131.275C126.999 129.603 122.441 117.555 122.258 114.834C122.075 112.113 120.498 106.53 120.498 106.53Z" fill="url(#paint8_linear_2_8196)"/>
<path d="M133.712 138.89C133.72 138.788 133.72 138.685 133.712 138.583C133.715 138.449 133.712 138.58 133.712 138.89Z" fill="url(#paint9_linear_2_8196)"/>
<path d="M121.625 114.118C124.94 116.33 128.828 118.499 129.73 119.044C130.631 119.59 132.934 119.721 133.045 121.256C133.156 122.791 134.352 124.65 134.3 126.715C134.179 132.997 137.789 129.802 139.04 131.216C141.17 133.627 146.174 144.512 145.43 146.113C144.685 147.714 143.669 151.836 142.333 157.187C140.997 162.538 135.842 181.626 135.094 183.227C134.345 184.827 128.733 188.208 129.194 186.631C129.654 185.053 127.854 160.859 128.214 158.053C128.573 155.247 127.835 148.824 127.835 148.824C127.835 148.824 119.524 117.058 119.109 115.239C118.694 113.419 117.515 110.682 117.675 110.136C117.835 109.59 118.306 111.907 121.625 114.118Z" fill="#6E2C2D"/>
<path d="M87.2715 128.267C85.282 124.239 83.714 120.671 79.7938 120.051C75.8737 119.43 68.5921 116.987 69.0135 119.724C69.4349 122.462 70.0425 125.209 71.0226 126.751C72.0026 128.293 78.2879 134.986 80.5452 136.43C82.8025 137.874 85.2232 135.604 86.2588 135.062C87.2944 134.519 87.9477 129.632 87.2715 128.267Z" fill="#4C2E36"/>
<path d="M62.6237 106.461C63.0581 106.758 70.2646 110.75 71.4243 111.106C72.584 111.462 74.0378 113.011 75.4719 114.233C76.7073 115.223 78.0794 116.029 79.5455 116.627C80.4221 116.985 81.3511 117.198 82.2961 117.258C83.6421 117.258 87.7647 118.61 88.7839 119.871C89.8032 121.132 90.7048 122.158 91.234 123.791C91.7632 125.425 92.4983 127.022 93.1941 129.632C93.8899 132.242 96.5556 143.353 97.0848 143.542C97.614 143.732 97.2057 130.877 96.9933 129.338C96.781 127.799 94.4159 119.322 93.609 118.163C92.8021 117.003 88.1077 114.925 86.6475 114.706C85.1872 114.487 80.1695 115.098 78.9836 114.412C77.7978 113.726 74.3318 111.443 72.9336 110.665C71.5354 109.888 68.3601 108.8 67.3801 108.209C66.4 107.617 62.6237 106.461 62.6237 106.461Z" fill="#922836"/>
<path d="M76.576 176.187C73.8939 176.393 69.3891 176.429 69.0167 175.351C68.6442 174.273 68.2294 172.564 69.0167 171.395C69.8039 170.225 72.0874 171.156 73.6293 172.143C75.1712 173.129 77.2881 173.917 77.3436 174.704C77.3992 175.491 77.2947 176.132 76.576 176.187Z" fill="#5F343D"/>
<path d="M163.991 130.318C167.637 137.744 173.102 145.95 174.863 148.824C177.562 153.222 190.952 167.465 193.32 167.282C194.461 167.19 189.436 169.872 189.495 176.05C189.56 182.704 190.475 189.59 190.603 191.175C190.821 194.229 176.271 201.093 176.271 201.093C176.271 201.093 161.79 187.781 161.277 180.653C160.764 173.525 158.99 161.888 158.99 161.888C158.99 161.888 158.405 153.744 158.696 151.16C158.892 149.412 156.736 137.054 156.318 130.694C156.102 127.666 162.058 126.382 163.991 130.318Z" fill="url(#paint10_linear_2_8196)"/>
<path d="M131.585 120.224C131.301 120.799 131.546 121.857 131.846 123.817C132.366 127.254 133.284 132.34 133.552 134.376C133.973 137.59 134.489 140.932 134.012 142.2C133.627 143.235 131.01 148.158 129.21 147.913C128.746 147.851 129.076 151.206 129.115 151.294C129.155 151.382 130.585 148.197 131.908 146.508C133.232 144.82 134.757 143.928 134.809 144.052C135.352 145.306 136.054 147.025 136.227 147.916C136.524 149.419 135.6 152.356 137.485 152.209C139.37 152.062 141.99 151.667 142.434 149.922C142.878 148.178 142.107 145.555 143.251 145.466C144.394 145.378 146.439 147.701 145.279 144.738C144.12 141.775 140.977 132.278 138.984 130.906C136.992 129.534 134.737 129.711 134.205 127.64C133.673 125.568 135.574 125.624 134.47 123.419C133.365 121.214 132.085 119.231 131.585 120.224Z" fill="url(#paint11_linear_2_8196)"/>
<path d="M179.639 191.923C179.754 191.201 177.679 185.648 176.699 180.257C175.259 172.319 174.429 164.129 173.432 163.682C171.737 162.93 170.492 163.861 169.088 161.326C167.683 158.791 169.11 155.103 167.258 152.16C165.406 149.217 162.861 148.828 161.322 144.535C159.784 140.243 155.73 132.811 157.105 130.701C158.48 128.59 161.14 130.204 160.669 128.414C160.199 126.624 159.424 125.229 158.382 124.765C157.34 124.301 155.71 125.336 154.907 123.576C154.103 121.815 152.698 116.457 152.009 113.958C151.682 112.795 149.536 112.475 147.54 112.155C145.253 111.789 143.133 111.554 143.541 112.201C143.868 112.74 146.576 112.011 148.357 113.05C150.604 114.357 151.999 117.499 152.169 118.502C152.466 120.302 157.464 140.328 157.647 142.866C157.83 145.404 161.607 153.13 163.397 159.2C163.995 161.219 165.086 166.504 166.477 172.92C169.257 185.752 172.782 202.507 172.782 202.507C172.782 202.507 179.358 193.71 179.639 191.923Z" fill="url(#paint12_linear_2_8196)"/>
<path d="M33.5984 170.228C34.6275 170.15 38.1523 168.33 42.7454 168.618C45.5385 168.791 53.5257 167.997 57.4164 167.478C61.3072 166.958 82.0708 169 84.0766 168.183C86.0824 167.367 86.9284 164.881 88.3822 164.985C89.8359 165.09 100.423 165.815 100.423 165.815C100.423 165.815 103.994 198.346 103.517 200.351C103.04 202.357 109.352 215.535 108.744 215.581L109.1 215.539L114.441 215.032C115.359 214.944 116.352 214.846 117.381 214.751C118.198 214.666 119.041 214.588 119.893 214.506C126.316 213.899 133.124 213.245 133.124 213.245C133.124 213.245 127.041 205.859 127.064 200.75C127.064 199.028 126.861 193.517 127.162 191.877C127.433 190.262 127.951 188.697 128.697 187.239C129.001 186.654 129.266 186.409 129.236 186.004C129.125 184.475 127.583 159.314 128.292 157.723C129.001 156.132 127.639 151.389 128.619 150.863C129.599 150.337 133.745 144.512 133.745 144.512C133.745 144.512 133.702 140.285 133.715 138.936C133.584 140.324 132.751 144.682 131.343 145.577C129.769 146.584 128.106 149.354 128.057 148.697C128.008 148.041 126.097 135.63 125.336 133.716C124.575 131.801 122.951 129.28 123.082 128.162C123.212 127.045 123.905 119.515 122.958 117.826C122.01 116.137 119.25 115.036 118.711 113.315C118.172 111.593 117.698 109.94 117.698 109.94C117.698 109.94 95.9415 113.008 91.4921 112.985L90.5121 112.145C88.1698 109.411 87.3237 108.039 86.2849 105.612C85.2461 103.185 81.7702 100.316 80.9111 98.4249C80.0519 96.5334 79.8624 95.6645 78.3499 93.7795C76.8374 91.8946 74.5245 90.0424 74.714 91.0779C74.9035 92.1135 77.1804 92.4173 78.0592 94.998C78.9379 97.5788 78.7975 98.3008 80.3002 100.179C81.8029 102.058 84.2791 103.214 84.8148 105.125C85.2786 106.883 85.4366 108.707 85.282 110.518C85.2327 111.325 85.1235 112.126 84.9553 112.916C84.4457 113.044 84.0798 113.243 83.9492 113.478C83.4395 114.458 80.9437 114.38 79.4704 113.204C77.9971 112.028 75.0015 111.322 74.077 110.473C73.1525 109.623 64.9627 106.742 63.5808 104.439C62.199 102.136 54.0745 97.5788 52.8658 97.6833C51.6571 97.7879 49.8441 99.026 50.3733 99.173C50.9025 99.32 54.6201 100.506 54.8684 101.417C55.1166 102.329 53.1011 103.403 52.5098 104.74C51.9185 106.076 53.5715 102.626 56.4495 104.063C59.3275 105.501 62.627 105.625 65.1881 107.464C67.7492 109.303 71.8033 110.28 74.3906 112.488C76.9779 114.697 78.6374 116.229 81.0483 115.853C83.4591 115.477 84.988 115.177 86.2489 115.82C87.5099 116.464 93.511 120.27 94.5433 122.596C95.5756 124.922 97.3037 142.484 97.3037 142.484C97.3037 142.484 94.1611 130.397 92.6191 126.121C91.1262 121.972 89.6791 121.126 89.5843 121.083C89.7248 121.443 94.3603 132.981 96.1636 143.898C97.993 154.982 97.173 160.771 97.6304 161.395C98.0877 162.019 84.0341 164.433 81.5709 164.623C79.1078 164.812 63.852 167.756 61.6632 165.946C59.4745 164.136 59.0498 163.95 58.5402 162.679C58.0306 161.408 53.3853 154.051 52.5947 151.69C51.9054 149.625 46.4989 143.702 45.7802 142.977C46.6851 144.009 54.2052 153.989 54.8814 157.678C55.5577 161.366 57.044 164.773 56.0803 165.727C55.1166 166.681 46.6067 166.707 43.3399 166.962C40.0732 167.217 32.5727 170.307 33.5984 170.228Z" fill="url(#paint13_linear_2_8196)"/>
<path d="M-15.7886 207.741L-15.622 207.989C-13.9886 210.184 -6.23005 214.34 -5.41336 214.278C-4.59666 214.216 -5.13895 215.722 -4.29613 215.656C-3.4533 215.591 0.86537 216.176 1.60693 217.032C2.34848 217.887 4.18767 219.589 5.36044 219.318C6.298 219.093 17.0163 217.881 21.7368 216.907C19.5317 210.939 16.0526 201.746 15.886 199.46C15.6998 196.846 14.6185 178.144 13.4555 171.365C13.1942 169.846 13.5274 169.16 13.1909 169.134C6.20979 168.634 4.1158 171.545 -1.00976 176.217C-6.13532 180.888 -9.83004 186.837 -11.7901 187.523C-13.7502 188.209 -15.7886 207.741 -15.7886 207.741Z" fill="url(#paint14_linear_2_8196)"/>
<path d="M176.849 202.919C171.685 204.154 166.543 206.186 164.086 207.114C162.737 207.626 160.538 207.509 158.624 208.035C157.056 208.466 153.855 208.976 153.538 208.887C153.221 208.799 157.621 207.744 159.745 206.313C161.741 204.977 163.769 203.331 166.108 203.507C170.946 203.87 174.883 201.348 176.461 200.979C176.98 200.858 177.937 201.096 179.123 200.979C181.547 200.721 184.758 200.09 185.983 199.852C187.012 199.652 191.821 198.46 196.659 197.294C201.559 196.114 206.42 195.36 206.074 195.386C205.8 195.406 201.968 196.787 197.081 198.055C189.894 199.923 181.217 202.501 179.639 205.268C178.659 206.993 178.744 208.93 178.571 210.981C178.274 214.441 178.179 217.734 177.859 217.293C177.349 216.594 168 211.413 165.955 212.131C163.273 213.079 162.342 215.333 161.466 215.895C160.591 216.457 152.737 219.586 152.319 218.881C152.094 218.502 155.099 217.62 157.804 215.725C160.137 214.091 162.152 211.426 162.753 210.923C164.06 209.838 165.21 207.283 172.599 206.526C177.581 205.99 182.014 201.671 176.849 202.919Z" fill="#FBD743"/>
<path d="M151.855 142.317C150.97 143.532 148.122 147.093 147.373 146.639C146.625 146.185 145.279 144.744 145.279 144.744C145.279 144.744 143.3 153.12 142.806 156.24C142.313 159.36 139.683 169.327 141.147 173.067C142.61 176.807 142.944 184.742 144.296 186.951C145.649 189.159 147.439 190.832 149.36 194.262C151.28 197.692 151.245 200.537 153.584 199.841C155.923 199.146 156.945 200.093 157.804 192.063C158.663 184.034 159.255 162.411 158.196 157.612C157.138 152.813 151.855 142.317 151.855 142.317Z" fill="url(#paint15_linear_2_8196)"/>
<path d="M143.218 112.537C143.584 112.665 148.059 112.24 149.81 113.72C151.561 115.2 152.349 119.211 153.636 123.193C154.923 127.175 157.066 136.077 157.556 138.808C158.046 141.539 159.653 147.103 157.504 145.041C155.354 142.98 152.91 139.7 152.038 136.603C151.166 133.507 149.337 124.892 148.477 121.883C147.618 118.875 148.069 118.225 146.772 117.094C145.475 115.964 142.911 114.089 142.911 114.089L143.218 112.537Z" fill="url(#paint16_linear_2_8196)"/>
<path d="M142.035 114.037C144.151 116.171 145.726 118.78 146.632 121.645C148.092 126.359 151.176 144.744 151.143 148.713C151.111 152.683 151.375 192.161 150.712 191.854C150.049 191.547 145.449 185.54 145.449 185.54C145.449 185.54 151.084 196.999 151.45 197.659C151.816 198.319 154.237 200.72 154.433 198.966C154.629 197.212 153.25 146.812 153.214 144.055C153.178 141.298 148.742 124.226 148.51 123.21C148.278 122.194 147.974 118.166 146.779 117.094C145.583 116.023 142.035 114.037 142.035 114.037Z" fill="#771010"/>
<path d="M128.475 187.709C129.053 187.332 129.68 187.034 130.337 186.824C130.624 186.73 130.918 186.657 131.216 186.605C131.759 186.552 132.306 186.552 132.849 186.605C135.577 186.814 140.467 187.719 141.64 189.019C143.113 190.652 144.224 191.453 146.142 195.879C146.154 195.903 146.165 195.927 146.174 195.951C148.069 200.329 150.34 202.236 150.732 203.899C151.008 205.017 151.396 206.104 151.891 207.143C151.891 207.143 153.374 206.885 155.511 206.529C158.31 206.075 161.972 205.477 163.913 205.167C167.337 204.611 176.327 201.119 176.327 201.119C176.327 201.119 172.011 193.08 170.711 189.751C169.411 186.422 162.907 158.893 164.086 156.799C165.265 154.705 166.837 154.3 165.693 153.245C164.55 152.19 159.241 144.878 159.078 142.605C158.915 140.331 156.043 132.292 157.02 131.067C157.997 129.842 157.749 127.832 156.22 125.092C154.691 122.351 150.928 114.351 150.585 113.233C150.382 112.58 143.862 111.6 143.45 111.812C143.038 112.025 143.162 112.792 143.162 112.792C143.162 112.792 147.818 111.734 149.948 115.566C152.077 119.398 155.426 131.475 156.899 138.195C158.533 145.731 155.592 142.389 153.561 136.888C153.067 135.562 148.732 120.806 148.334 118.836C147.935 116.866 145.877 115.719 145.067 114.974C144.395 114.437 143.634 114.02 142.819 113.743L142.117 114.109C143.522 115.144 144.868 115.089 146.125 117.859C147.383 120.629 151.705 140.021 151.872 142.301C152.038 144.581 153.659 196.787 152.888 197.137C152.117 197.487 144.499 184.07 144.113 182.371C143.728 180.672 144.985 176.011 144.051 174.08C143.205 172.355 142.467 166.028 142.571 162.856C142.571 162.483 142.607 162.163 142.643 161.892C142.989 159.278 144.57 147.1 144.276 148.233C143.77 150.21 142.235 157.658 142.235 157.658C141.039 160.228 140.043 162.886 139.255 165.609C137.325 172.666 135.071 182.708 134.587 183.109C133.836 183.74 130.174 184.599 129.455 185.795C129.176 186.258 128.922 186.735 128.694 187.226C128.55 187.516 128.488 187.673 128.475 187.709Z" fill="url(#paint17_linear_2_8196)"/>
<path d="M146.158 195.958C148.069 200.328 150.34 202.236 150.732 203.899C151.005 205.01 151.386 206.092 151.869 207.13C152.002 207.287 156.246 206.64 156.246 206.64C155.999 206.618 155.753 206.581 155.511 206.529C154.514 206.355 153.576 205.935 152.783 205.307C151.421 204.121 150.859 202.481 150.118 201.567C149.376 200.652 148.282 199.933 147.756 198.934C147.403 198.27 146.612 196.777 146.158 195.958Z" fill="#FFC240"/>
<path d="M13.0471 169.183C13.0471 169.183 6.3143 168.931 6.90232 170.434C7.49034 171.937 10.793 181.214 9.45694 182.609C8.12083 184.004 7.32048 185.745 6.46786 187.738C5.48783 190.025 5.72302 190.887 5.72302 190.887C5.72302 190.887 7.09507 187.562 8.41811 186.64C8.65444 186.454 8.92961 186.323 9.22333 186.257C9.51706 186.191 9.82186 186.191 10.1153 186.259C10.4087 186.326 10.6833 186.459 10.9187 186.646C11.1542 186.834 11.3445 187.072 11.4758 187.343C12.593 189.574 11.5117 194.556 10.0842 198.019C8.65659 201.481 7.61449 213.676 7.24535 215.251C6.8762 216.825 7.28455 219.115 7.28455 219.115C14.2068 218.498 21.8315 218.005 23.9451 216.557C23.9451 216.557 20.7567 206.47 18.1694 197.133C15.5821 187.797 13.0471 169.183 13.0471 169.183Z" fill="url(#paint18_linear_2_8196)"/>
<path d="M78.3562 224.068C79.3983 222.255 79.2154 215.649 79.529 213.892C79.8426 212.134 80.8357 209.694 81.5805 207.744C82.3254 205.794 81.6459 204.588 82.5606 203.255C83.4753 201.922 83.4361 198.777 85.0694 199.436C86.7028 200.096 90.979 204.177 92.6941 205.62C94.4091 207.064 94.9024 206.424 95.0527 206.633C95.203 206.842 94.2785 206.326 92.0342 204.588C89.7899 202.85 85.3732 196.578 84.5206 197.16C83.668 197.741 82.9754 201.321 82.492 202.243C82.0085 203.164 81.9823 205.591 81.4433 206.663C80.9043 207.734 79.4833 212.84 78.2125 213.088C76.9417 213.337 74.3218 212.213 73.5835 211.455C72.8452 210.697 71.1236 209.59 70.9701 209.38C70.8165 209.171 70.1272 209.511 71.1857 210.579C72.2441 211.648 76.5203 214.878 76.9025 216.574C77.2847 218.269 76.8045 222.631 76.3178 223.339C76.0059 223.788 75.6467 224.202 75.2463 224.574L78.3562 224.068Z" fill="url(#paint19_linear_2_8196)"/>
<path d="M69.7418 206.283C68.5462 204.552 67.919 203.258 67.2427 202.543C66.5665 201.828 65.1324 200.498 65.1324 200.498C65.7532 201.551 66.4521 202.555 67.2231 203.503C68.2946 204.764 69.7418 206.283 69.7418 206.283Z" fill="url(#paint20_linear_2_8196)"/>
<path d="M64.3779 198.734C64.0251 197.512 62.9503 192.508 62.8687 191.364C62.787 190.221 61.0491 188.424 60.8237 187.771C60.6963 187.405 61.3463 186.37 61.6502 184.948C61.8123 184.012 61.9084 183.066 61.9376 182.116C61.9376 182.116 61.9376 182.77 61.9376 183.387C61.9148 184.096 61.8756 184.759 62.3101 184.775C63.1137 184.808 66.6189 185.102 68.2294 185.18C69.84 185.259 78.3401 186.699 77.1771 186.693C76.7067 186.693 75.5437 186.304 74.2958 186.242C73.9005 186.223 73.5314 186.569 73.1263 186.53C71.6563 186.438 70.4378 185.742 69.8595 185.55C68.5822 185.171 63.816 185.605 63.0483 186.144C62.2807 186.683 61.8004 187.392 62.1206 188.137C62.4407 188.882 63.7736 191.27 63.6331 191.763C63.4926 192.256 64.3779 198.734 64.3779 198.734Z" fill="url(#paint21_linear_2_8196)"/>
<path d="M36.7214 225.254C35.663 222.696 34.5654 217.185 33.8957 215.163C33.226 213.14 31.6906 206.463 31.9356 204.934C32.1806 203.405 29.2732 197.218 29.5672 193.987C29.8383 191.047 28.94 182.041 27.5255 177.869C27.4059 177.511 27.2663 177.16 27.1073 176.817C25.4544 173.361 25.0525 175.092 23.6544 172.747C22.2562 170.401 21.5473 167.814 21.8413 169.48C22.1353 171.146 23.772 174.054 25.4348 175.063C27.0975 176.072 27.9273 181.352 28.1494 183.129C28.3716 184.906 29.3941 194 29.3712 196.297C29.3483 198.594 31.7363 203.392 31.5469 204.604C31.3574 205.816 31.3933 212.794 31.6645 213.97C31.9356 215.146 33.5657 219.805 33.6017 221.598C33.6004 222.529 33.6978 223.458 33.8924 224.368L36.7214 225.254Z" fill="url(#paint22_linear_2_8196)"/>
<path d="M38.0869 113.236C38.3025 113.439 40.537 114.305 42.8825 114.987C44.6659 115.446 46.4858 115.747 48.3217 115.889C49.3017 115.98 53.7314 115.703 53.7314 115.703C53.7314 115.703 49.2102 116.235 48.5046 116.154C47.799 116.072 44.8066 116.232 43.2941 115.794C41.7816 115.356 37.8746 113.929 37.8746 113.929L38.0869 113.236Z" fill="url(#paint23_linear_2_8196)"/>
<path d="M244.589 205.611C244.262 207.607 239.918 215.829 237.5 214.046C235.083 212.262 232.358 211.122 229.987 209.828C229.261 209.433 228.523 208.038 225.893 207.081C219.896 204.899 209.778 202.703 208.253 203.507C206.045 204.663 203.679 206.12 201.373 205.794C199.067 205.467 182.351 201.857 184.245 202.697C186.14 203.536 220.601 190.718 225.792 192.792C229.908 194.425 235.864 196.862 239.735 198.541C240.715 198.963 242.368 199.009 242.776 199.384C244.739 201.191 244.589 205.611 244.589 205.611Z" fill="url(#paint24_linear_2_8196)"/>
<path d="M207.319 208.672C207.319 208.672 205.032 208.734 204.473 209.191C203.862 209.701 202.997 210.397 202.053 211.063C201.501 211.451 200.98 211.882 200.494 212.35C198.861 213.902 197.531 216.055 196.434 216.512C193.882 217.58 193.108 220.903 190.184 222.438C187.261 223.973 184.539 225.486 182.998 226.476C181.456 227.466 180.012 229.971 180.012 229.971C180.012 229.971 182.753 231.497 183.341 231.235C183.929 230.974 186.829 226.394 188.953 225.133C191.076 223.872 194.725 220.984 195.869 220.027C197.012 219.07 196.8 217.296 198.482 215.428C198.982 214.872 200.442 212.7 201.275 211.89C202.389 210.818 202.944 211.07 203.888 210.126C204.147 209.871 204.486 209.351 204.996 209.146C205.74 208.866 206.524 208.706 207.319 208.672Z" fill="url(#paint25_linear_2_8196)"/>
<path d="M209.729 201.253C211.324 200.926 212.189 198.884 213.846 199.41C215.502 199.936 227.929 206.796 228.752 206.95C229.575 207.104 231.94 209.096 233.58 209.403C235.22 209.71 240.28 212.582 242.247 214.604C244.214 216.626 246.82 218.609 246.206 218.658C245.592 218.707 243.877 221.389 243.106 220.657C242.992 220.546 243.723 219.592 243.465 219.204C242.877 218.309 241.94 216.894 240.767 215.966C237.755 213.578 235.841 211.661 233.835 210.841C232.028 210.102 225.034 210.648 219.723 210.736C217.479 210.784 215.236 210.655 213.013 210.351C215.536 210.525 218.068 210.551 220.595 210.429C224.972 210.178 229.373 209.361 228.657 208.469C227.328 206.836 220.686 204.52 218.785 203.363C216.884 202.207 214.538 200.648 213.32 200.524C212.101 200.4 209.729 201.253 209.729 201.253Z" fill="url(#paint26_linear_2_8196)"/>
<path d="M178.689 224.764L179.995 229.971C179.995 229.971 184.089 217.231 185.683 218.194C187.277 219.158 179.973 204.83 179.973 204.83C178.45 206.931 178.339 216.829 178.012 217.208C177.999 217.247 178.689 224.764 178.689 224.764Z" fill="url(#paint27_linear_2_8196)"/>
<path d="M164.638 219.253C164.71 219.406 164.789 219.553 164.874 219.7C165.141 220.158 165.331 220.814 165.769 221.056C167.121 221.824 175.994 223.535 175.994 223.535C175.994 223.535 178.078 217.825 178.11 217.299C176.317 216.394 168.996 211.063 166.249 212.072C166.249 212.072 164.57 212.585 163.858 214.137C163.835 214.754 163.799 217.414 164.638 219.253Z" fill="url(#paint28_linear_2_8196)"/>
<path d="M184.275 231.993C186.842 232.875 191.204 233.074 193.726 233.241C196.248 233.408 230.379 226.805 232.822 225.897C234.325 225.335 241.104 222.32 243.057 220.625C243.384 220.35 243.501 219.609 243.524 219.452C243.678 218.328 236.795 215.248 236.795 215.248C235.445 215.352 221.421 226.136 219.04 226.139C216.658 226.142 199.501 221.811 196.979 222.186C194.457 222.562 184.448 231.666 184.275 231.993Z" fill="#372638"/>
<path d="M109.123 215.417C108.397 215.473 107.087 210.948 105.343 207.809C104.226 205.797 103.014 201.929 103.105 201.374C103.334 199.93 102.671 192.243 102.452 189.404C102.305 187.356 101.162 175.063 100.714 169.317C100.541 167.089 100.332 165.942 100.492 166.23C101.064 167.255 101.567 172.802 101.949 175.808C102.331 178.813 103.373 186.408 104.402 189.182C105.431 191.955 106.336 190.639 106.78 194.533C107.225 198.427 109.619 215.378 109.123 215.417Z" fill="#BB312E"/>
<path d="M117.737 109.875C117.966 110.201 117.613 111.707 118.018 113.292C118.423 114.876 119.596 116.529 119.204 116.49C118.427 116.415 114.8 117.447 114.761 116.895C114.722 116.343 113.409 114.229 112.599 113.739C111.788 113.249 101.544 112.38 101.818 112.759C102.093 113.138 108.316 115.304 109.737 115.333C111.158 115.363 111.148 115.222 112.468 115.66C113.788 116.098 114.657 117.431 113.752 117.362C112.847 117.293 110.26 117.218 110.25 118.884C110.24 120.55 110.541 131.889 111.478 134.173C112.416 136.456 112.22 146.315 112.151 143.549C112.082 140.782 110.443 132.314 109.538 132.383C108.633 132.451 109.89 158.638 109.913 157.935C109.913 157.831 106.255 139.968 106.255 139.968C106.255 139.968 105.575 133.337 105.81 132.526C106.637 129.691 107.522 122.275 106.725 121.922C105.928 121.57 101.22 120.688 101.498 122.742C101.776 124.797 102.054 137.672 102.174 139.325C102.295 140.978 101.122 126.516 99.3682 123.602C97.614 120.688 87.8757 114.376 88.7643 115.97C89.6529 117.565 88.4376 116.83 87.0688 115.686C85.7001 114.543 83.2467 115.843 81.2834 115.441C80.5353 115.288 78.5524 113.432 76.6838 112.112C75.8955 111.572 75.0763 111.078 74.2304 110.633L78.2845 112.566C78.2845 112.566 80.7607 114.363 82.8319 114.481C84.903 114.598 90.793 111.933 92.7269 111.92C94.6608 111.907 117.453 109.489 117.737 109.875Z" fill="url(#paint29_linear_2_8196)"/>
<path d="M121.683 117.019C123.317 119.937 122.84 125.797 121.445 125.905C120.05 126.013 118.799 123.292 118.799 123.292C118.799 123.292 120.076 128.845 118.613 130.479C117.149 132.112 116.979 132.305 116.532 133.281C116.084 134.258 117.25 148.132 116.836 152.127C116.421 156.123 114.261 170.065 113.778 168.216C113.294 166.367 111.772 147.616 111.772 150.069C111.772 152.523 111.266 173.286 111.55 177.226C111.707 179.428 113.487 186.478 114.617 195.905C115.127 200.172 116.76 214.853 116.76 214.853L118.427 214.624C118.427 214.624 116.398 202.563 116.11 196.526C115.715 188.16 115.408 178.461 115.823 177.115C116.352 175.543 117.002 174.014 117.767 172.541C118.048 171.986 118.237 171.633 118.237 171.633C118.237 171.633 120.089 181.358 120.775 183.58C121.461 185.801 120.677 168.987 120.677 164.081C120.677 159.174 119.91 149.726 120.782 147.204C121.654 144.682 122.866 147.858 122.935 151.232C123.003 154.607 123.833 166.478 124.209 164.375C124.584 162.271 123.748 150.635 125.212 153.921C126.675 157.207 124.15 144.003 124.147 139.096C124.143 134.19 121.282 116.294 121.683 117.019Z" fill="url(#paint30_linear_2_8196)"/>
<g opacity="0.41">
<path d="M105.062 135.914C105.062 135.979 105.092 136.113 105.124 136.316C105.128 136.179 105.107 136.043 105.062 135.914Z" fill="#FFB948"/>
</g>
<g opacity="0.41">
<path d="M99.0285 155.247C99.1167 156.488 101.315 171.003 101.711 173.214C102.037 174.995 103.102 184.527 104.556 189.332C104.909 190.502 105.863 191.502 106.189 191.92C106.705 192.629 107.006 195.334 107.44 198.927C108.215 205.186 108.94 213.611 109.106 215.535L114.448 215.029C114.209 213.872 113.735 201.478 112.409 188.95C112.203 186.99 111.576 182.577 111.325 180.692C110.963 177.874 110.76 175.039 110.714 172.198C110.626 170.957 108.427 185.886 107.081 180.012C105.735 174.139 103.102 160.157 105.229 160.738C107.355 161.32 108.296 171.192 108.649 166.442C108.881 163.378 106.931 151.454 106.075 143.49C105.712 140.122 105.317 137.44 105.147 136.372C105.147 137.182 104.869 138.701 104.798 141.847C104.683 147.002 105.712 155.156 105.124 155.76C104.017 156.858 98.9403 154.015 99.0285 155.247Z" fill="#FFB948"/>
</g>
<g opacity="0.41">
<path d="M119.005 144.852C120.07 154.375 120.543 184.25 121.06 182.42C122.272 178.101 125.819 176.213 126.27 179.856C126.721 183.498 125.898 193.168 125.911 196.026C125.924 198.885 127.149 205.33 127.048 203.909C126.892 200.201 126.93 196.487 127.162 192.782C127.228 191.61 127.448 190.451 127.815 189.336C128.145 188.335 128.574 187.37 129.096 186.455C129.096 186.455 128.269 187.761 128.472 185.292C128.674 182.822 127.704 178.722 127.557 171.378C127.41 164.035 127.436 151.154 126.783 155.293C126.13 159.432 127.309 170.023 125.581 170.304C124.578 170.467 124.241 169.487 123.993 166.031C123.745 162.575 122.824 152.572 123.013 149.903C123.203 147.234 122.16 143.294 121.112 141.945C120.063 140.596 119.005 144.852 119.005 144.852Z" fill="#FFB948"/>
</g>
<g opacity="0.41">
<path d="M122.507 195.709C123.029 198.757 124.604 201.723 124.085 205.016C123.565 208.309 123.291 215.006 123.033 211.438C122.775 207.871 122.164 203.539 122.265 200.766C122.366 197.992 122.507 195.709 122.507 195.709Z" fill="#FFB948"/>
</g>
<g opacity="0.41">
<path d="M120.145 190.202C120.54 193.586 121.291 195.641 120.968 197.454C120.645 199.267 120.775 203.161 120.462 200.907C120.148 198.653 119.616 195.445 119.625 193.495C119.621 192.376 119.796 191.264 120.145 190.202Z" fill="#FFB948"/>
</g>
<g opacity="0.41">
<path d="M159.536 150.03C159.983 151.062 162.348 153.013 162.41 153.859C162.472 154.705 163.528 167.422 163.818 171.454C164.109 175.485 164.619 178.02 166.2 179.389C167.781 180.757 167.902 179.121 167.902 179.121C167.902 179.121 169.862 188.078 171.152 190.747C172.443 193.416 176.307 201.1 176.307 201.1L172.844 202.436C172.844 202.436 171.057 195.435 169.614 189.617C168.444 184.9 167.696 180.908 166.18 181.777C162.799 183.737 167.095 204.272 167.095 204.272C167.095 204.272 160.604 206.026 161.13 205.559C161.656 205.092 158.516 182.303 156.814 179.235C155.112 176.168 152.933 196.98 152.933 196.98L153.018 189.127L152.822 178.379L152.146 145.777L159.536 150.03Z" fill="#FFB948"/>
</g>
<path d="M151.934 144.529C151.653 145.799 157.579 148.122 158.232 149.102C158.885 150.082 162.103 165.789 162.152 168.657C162.201 171.525 162.152 187.13 161.754 184.501C161.355 181.871 158.526 177.814 158.082 174.776C157.638 171.737 156.275 159.954 155.259 159.226C154.243 158.497 153.345 161.454 153.374 164.126C153.404 166.798 152.744 187.957 153.048 186.902C153.352 185.847 152.071 143.898 151.934 144.529Z" fill="url(#paint31_linear_2_8196)"/>
<path d="M128.678 187.238L128.697 187.215C128.808 187.068 129.439 186.931 130.331 186.817C131.046 186.732 131.925 186.657 132.836 186.601C135.208 186.461 137.802 186.471 138.298 186.722C139.229 187.199 143.127 184.416 142.545 183.504C141.964 182.593 143.594 178.467 143.29 176.007C142.986 173.547 142.209 166.318 142.169 163.985C142.169 163.985 142.307 163.567 142.542 162.868C142.542 162.496 142.578 162.176 142.614 161.905C142.96 159.291 144.541 147.113 144.247 148.246C143.741 150.223 142.205 157.671 142.205 157.671C141.009 160.241 140.013 162.899 139.226 165.622C137.295 172.678 135.041 182.72 134.558 183.122C133.806 183.753 130.144 184.612 129.426 185.807C129.151 186.271 128.901 186.748 128.678 187.238Z" fill="#FF9543"/>
<g opacity="0.41">
<path d="M11.2176 219.602C13.9291 216.009 12.5636 204.147 13.6383 199.214C13.7461 198.724 14.0173 193.661 13.7036 187.876C13.377 181.79 9.81293 169.804 10.0579 169.647C10.4892 169.369 12.7367 177.621 14.4615 186.379C15.4416 191.306 19.4336 217.776 20.5737 218.198C19.7537 218.488 17.859 218.41 17.859 218.41C17.859 218.41 15.9545 197.767 15.1835 198.731C14.4125 199.695 15.7846 218.795 15.7846 218.795L11.2176 219.602Z" fill="#FFB948"/>
</g>
<path d="M13.7364 186.7C14.099 189.378 13.9324 197.598 13.2497 203.243C12.5669 208.888 12.9491 213.098 12.6616 214.925C12.3908 216.365 12.0163 217.785 11.5411 219.171C11.5411 219.171 14.1546 219.152 14.1056 218.704C14.0566 218.257 13.9389 212.853 13.7299 209.982C13.5208 207.11 14.2428 200.744 14.184 198.764C14.1252 196.784 13.7364 186.7 13.7364 186.7Z" fill="url(#paint32_linear_2_8196)"/>
<path d="M16.1407 203.935C16.4249 206.222 18.2543 217.675 16.2877 218.338L19.4565 217.891C19.4565 217.891 18.8227 217.907 18.4176 217.103C18.0126 216.3 16.1407 203.935 16.1407 203.935Z" fill="url(#paint33_linear_2_8196)"/>
<path d="M145.547 194.141C145.776 194.775 146.949 197.718 147.86 199.166C148.772 200.613 150.212 201.946 150.728 203.497C151.245 205.049 152.953 208.241 152.649 209.636C152.345 211.031 151.104 211.563 147.266 212.439C144.682 213.028 142.054 213.401 139.409 213.556C138.138 213.654 134.525 214.634 132.967 213.213C131.409 211.792 127.208 203.804 126.816 203.04C126.424 202.276 126.786 193.285 127.074 190.731C127.361 188.176 128.001 187.301 128.488 186.811C128.975 186.321 133.192 185.991 134.143 186.134C135.094 186.278 140.647 187.725 141.434 188.389C142.222 189.052 144.198 190.342 145.547 194.141Z" fill="#372638"/>
<path d="M145.505 194.778C143.257 197.408 142.499 200.75 140.262 201.413C138.024 202.076 135.688 201.606 135.224 201.315C134.76 201.024 135.933 196.346 134.79 195.288C133.646 194.229 131.69 192.416 131.291 191.139C130.892 189.862 130.523 187.787 130.964 187.588C131.405 187.389 135.809 187.278 138.749 187.856C141.689 188.434 142.098 189.633 142.826 190.414C143.871 191.56 145.505 194.778 145.505 194.778Z" fill="url(#paint34_linear_2_8196)"/>
</g>
<defs>
<filter id="filter0_d_2_8196" x="-83.9999" y="0" width="380" height="279.473" filterUnits="userSpaceOnUse" color-interpolation-filters="sRGB">
<feFlood flood-opacity="0" result="BackgroundImageFix"/>
<feColorMatrix in="SourceAlpha" type="matrix" values="0 0 0 0 0 0 0 0 0 0 0 0 0 0 0 0 0 0 127 0" result="hardAlpha"/>
<feOffset dx="-12" dy="-12"/>
<feGaussianBlur stdDeviation="28"/>
<feComposite in2="hardAlpha" operator="out"/>
<feColorMatrix type="matrix" values="0 0 0 0 0 0 0 0 0 0 0 0 0 0 0 0 0 0 0.35 0"/>
<feBlend mode="normal" in2="BackgroundImageFix" result="effect1_dropShadow_2_8196"/>
<feBlend mode="normal" in="SourceGraphic" in2="effect1_dropShadow_2_8196" result="shape"/>
</filter>
<linearGradient id="paint0_linear_2_8196" x1="3.96008" y1="224.019" x2="-10.4878" y2="225.098" gradientUnits="userSpaceOnUse">
<stop stop-color="#2C1F39"/>
<stop offset="0.52" stop-color="#4B3037"/>
<stop offset="1" stop-color="#543847"/>
</linearGradient>
<linearGradient id="paint1_linear_2_8196" x1="212.919" y1="235.44" x2="197.407" y2="198.758" gradientUnits="userSpaceOnUse">
<stop stop-color="#2C1F39"/>
<stop offset="0.59" stop-color="#4B3037"/>
<stop offset="1" stop-color="#543847"/>
</linearGradient>
<linearGradient id="paint2_linear_2_8196" x1="197.446" y1="179.975" x2="165.727" y2="121.019" gradientUnits="userSpaceOnUse">
<stop stop-color="#714748"/>
<stop offset="1" stop-color="#653C42"/>
</linearGradient>
<linearGradient id="paint3_linear_2_8196" x1="175.196" y1="108.893" x2="151.083" y2="110.693" gradientUnits="userSpaceOnUse">
<stop stop-color="#654249"/>
<stop offset="1" stop-color="#663D42"/>
</linearGradient>
<linearGradient id="paint4_linear_2_8196" x1="39.5955" y1="108.285" x2="120.218" y2="158.656" gradientUnits="userSpaceOnUse">
<stop offset="0.01" stop-color="#33334F"/>
<stop offset="0.45" stop-color="#603E4A"/>
<stop offset="0.8" stop-color="#7D4446"/>
<stop offset="1" stop-color="#884745"/>
</linearGradient>
<linearGradient id="paint5_linear_2_8196" x1="64.2057" y1="189.92" x2="83.2497" y2="110.349" gradientUnits="userSpaceOnUse">
<stop stop-color="#4C3442"/>
<stop offset="0.28" stop-color="#583843"/>
<stop offset="0.79" stop-color="#794244"/>
<stop offset="1" stop-color="#884745"/>
</linearGradient>
<linearGradient id="paint6_linear_2_8196" x1="100.9" y1="154.612" x2="20.7776" y2="176.623" gradientUnits="userSpaceOnUse">
<stop stop-color="#932F2D" stop-opacity="0.6"/>
<stop offset="0.31" stop-color="#7E2D31" stop-opacity="0.38"/>
<stop offset="0.77" stop-color="#642B36" stop-opacity="0.11"/>
<stop offset="1" stop-color="#5A2A38" stop-opacity="0"/>
</linearGradient>
<linearGradient id="paint7_linear_2_8196" x1="101.194" y1="147.9" x2="57.1471" y2="151.189" gradientUnits="userSpaceOnUse">
<stop stop-color="#954441"/>
<stop offset="0.14" stop-color="#944441" stop-opacity="0.92"/>
<stop offset="0.4" stop-color="#904543" stop-opacity="0.71"/>
<stop offset="0.75" stop-color="#894745" stop-opacity="0.37"/>
<stop offset="0.81" stop-color="#884745" stop-opacity="0.3"/>
</linearGradient>
<linearGradient id="paint8_linear_2_8196" x1="133.184" y1="107.499" x2="150.824" y2="187.253" gradientUnits="userSpaceOnUse">
<stop stop-color="#483548"/>
<stop offset="0.25" stop-color="#563543"/>
<stop offset="0.7" stop-color="#6B343C"/>
<stop offset="1" stop-color="#723439"/>
</linearGradient>
<linearGradient id="paint9_linear_2_8196" x1="133.699" y1="138.578" x2="133.73" y2="138.86" gradientUnits="userSpaceOnUse">
<stop stop-color="#FD903D"/>
<stop offset="0.34" stop-color="#FC7939"/>
<stop offset="0.74" stop-color="#FA6435"/>
<stop offset="1" stop-color="#FA5D34"/>
</linearGradient>
<linearGradient id="paint10_linear_2_8196" x1="156.903" y1="169.912" x2="183.587" y2="156.297" gradientUnits="userSpaceOnUse">
<stop stop-color="#932F2D"/>
<stop offset="0.14" stop-color="#892E2F" stop-opacity="0.83"/>
<stop offset="0.55" stop-color="#702C34" stop-opacity="0.39"/>
<stop offset="0.85" stop-color="#602B37" stop-opacity="0.11"/>
<stop offset="1" stop-color="#5A2A38" stop-opacity="0"/>
</linearGradient>
<linearGradient id="paint11_linear_2_8196" x1="131.243" y1="120.459" x2="138.113" y2="152.017" gradientUnits="userSpaceOnUse">
<stop stop-color="#954441"/>
<stop offset="0.14" stop-color="#944441" stop-opacity="0.92"/>
<stop offset="0.4" stop-color="#904543" stop-opacity="0.71"/>
<stop offset="0.75" stop-color="#894745" stop-opacity="0.37"/>
<stop offset="0.81" stop-color="#884745" stop-opacity="0.3"/>
</linearGradient>
<linearGradient id="paint12_linear_2_8196" x1="176.946" y1="155.764" x2="146.92" y2="158.006" gradientUnits="userSpaceOnUse">
<stop stop-color="#C23933"/>
<stop offset="0.1" stop-color="#C83F32"/>
<stop offset="0.67" stop-color="#E5592D"/>
<stop offset="1" stop-color="#F0632B"/>
</linearGradient>
<linearGradient id="paint13_linear_2_8196" x1="79.0989" y1="116.969" x2="90.9958" y2="216.332" gradientUnits="userSpaceOnUse">
<stop stop-color="#FD903D"/>
<stop offset="0.34" stop-color="#FC7939"/>
<stop offset="0.74" stop-color="#FA6435"/>
<stop offset="1" stop-color="#FA5D34"/>
</linearGradient>
<linearGradient id="paint14_linear_2_8196" x1="19.9641" y1="193.325" x2="-16.672" y2="196.061" gradientUnits="userSpaceOnUse">
<stop stop-color="#932F2D"/>
<stop offset="0.2" stop-color="#892E2F" stop-opacity="0.83"/>
<stop offset="0.63" stop-color="#712C34" stop-opacity="0.41"/>
<stop offset="1" stop-color="#5A2A38" stop-opacity="0"/>
</linearGradient>
<linearGradient id="paint15_linear_2_8196" x1="158.331" y1="192.369" x2="142.688" y2="147.868" gradientUnits="userSpaceOnUse">
<stop stop-color="#932F2D"/>
<stop offset="0.26" stop-color="#922F2D" stop-opacity="0.98"/>
<stop offset="0.42" stop-color="#8F2F2E" stop-opacity="0.92"/>
<stop offset="0.56" stop-color="#892E2F" stop-opacity="0.82"/>
<stop offset="0.68" stop-color="#812D30" stop-opacity="0.68"/>
<stop offset="0.79" stop-color="#762C33" stop-opacity="0.5"/>
<stop offset="0.9" stop-color="#6A2B35" stop-opacity="0.28"/>
<stop offset="0.99" stop-color="#5B2A38" stop-opacity="0.02"/>
<stop offset="1" stop-color="#5A2A38" stop-opacity="0"/>
</linearGradient>
<linearGradient id="paint16_linear_2_8196" x1="156.667" y1="142.14" x2="146.409" y2="112.948" gradientUnits="userSpaceOnUse">
<stop stop-color="#932F2D"/>
<stop offset="0.26" stop-color="#922F2D" stop-opacity="0.98"/>
<stop offset="0.42" stop-color="#8F2F2E" stop-opacity="0.92"/>
<stop offset="0.56" stop-color="#892E2F" stop-opacity="0.82"/>
<stop offset="0.68" stop-color="#812D30" stop-opacity="0.68"/>
<stop offset="0.79" stop-color="#762C33" stop-opacity="0.5"/>
<stop offset="0.9" stop-color="#6A2B35" stop-opacity="0.28"/>
<stop offset="0.99" stop-color="#5B2A38" stop-opacity="0.02"/>
<stop offset="1" stop-color="#5A2A38" stop-opacity="0"/>
</linearGradient>
<linearGradient id="paint17_linear_2_8196" x1="146.411" y1="114.42" x2="153.284" y2="206.469" gradientUnits="userSpaceOnUse">
<stop stop-color="#FD903D"/>
<stop offset="0.29" stop-color="#FD8C3C"/>
<stop offset="0.56" stop-color="#FC813A"/>
<stop offset="0.82" stop-color="#FB6F37"/>
<stop offset="1" stop-color="#FA5D34"/>
</linearGradient>
<linearGradient id="paint18_linear_2_8196" x1="11.0311" y1="165.819" x2="15.5503" y2="217.44" gradientUnits="userSpaceOnUse">
<stop stop-color="#FD903D"/>
<stop offset="0.34" stop-color="#FC7939"/>
<stop offset="0.74" stop-color="#FA6435"/>
<stop offset="1" stop-color="#FA5D34"/>
</linearGradient>
<linearGradient id="paint19_linear_2_8196" x1="71.0564" y1="173.347" x2="86.7097" y2="220.265" gradientUnits="userSpaceOnUse">
<stop stop-color="#FDA460"/>
<stop offset="0.1" stop-color="#FD9A5A"/>
<stop offset="0.48" stop-color="#FB7945"/>
<stop offset="0.79" stop-color="#FA6439"/>
<stop offset="1" stop-color="#FA5D34"/>
</linearGradient>
<linearGradient id="paint20_linear_2_8196" x1="59.0565" y1="178.298" x2="74.4016" y2="224.292" gradientUnits="userSpaceOnUse">
<stop stop-color="#FDA460"/>
<stop offset="0.1" stop-color="#FD9A5A"/>
<stop offset="0.48" stop-color="#FB7945"/>
<stop offset="0.79" stop-color="#FA6439"/>
<stop offset="1" stop-color="#FA5D34"/>
</linearGradient>
<linearGradient id="paint21_linear_2_8196" x1="65.2457" y1="175.986" x2="80.7548" y2="222.465" gradientUnits="userSpaceOnUse">
<stop stop-color="#FDA460"/>
<stop offset="0.1" stop-color="#FD9A5A"/>
<stop offset="0.48" stop-color="#FB7945"/>
<stop offset="0.79" stop-color="#FA6439"/>
<stop offset="1" stop-color="#FA5D34"/>
</linearGradient>
<linearGradient id="paint22_linear_2_8196" x1="23.4225" y1="169.313" x2="36.0621" y2="224.131" gradientUnits="userSpaceOnUse">
<stop stop-color="#FD903D"/>
<stop offset="0.34" stop-color="#FC7939"/>
<stop offset="0.74" stop-color="#FA6435"/>
<stop offset="1" stop-color="#FA5D34"/>
</linearGradient>
<linearGradient id="paint23_linear_2_8196" x1="53.5928" y1="113.939" x2="37.9461" y2="115.108" gradientUnits="userSpaceOnUse">
<stop stop-color="#FDA460"/>
<stop offset="0.1" stop-color="#FD9A5A"/>
<stop offset="0.48" stop-color="#FB7945"/>
<stop offset="0.79" stop-color="#FA6439"/>
<stop offset="1" stop-color="#FA5D34"/>
</linearGradient>
<linearGradient id="paint24_linear_2_8196" x1="238.514" y1="215.41" x2="209.261" y2="198.601" gradientUnits="userSpaceOnUse">
<stop stop-color="#342A43"/>
<stop offset="0.31" stop-color="#402F43"/>
<stop offset="0.87" stop-color="#613D44"/>
<stop offset="1" stop-color="#694044"/>
</linearGradient>
<linearGradient id="paint25_linear_2_8196" x1="208.081" y1="219.003" x2="179.339" y2="221.149" gradientUnits="userSpaceOnUse">
<stop stop-color="#FDA460"/>
<stop offset="0.1" stop-color="#FD9A5A"/>
<stop offset="0.48" stop-color="#FB7945"/>
<stop offset="0.79" stop-color="#FA6439"/>
<stop offset="1" stop-color="#FA5D34"/>
</linearGradient>
<linearGradient id="paint26_linear_2_8196" x1="245.556" y1="208.768" x2="210.481" y2="211.387" gradientUnits="userSpaceOnUse">
<stop stop-color="#F98C3A"/>
<stop offset="0.3" stop-color="#F97938"/>
<stop offset="0.72" stop-color="#FA6435"/>
<stop offset="1" stop-color="#FA5D34"/>
</linearGradient>
<linearGradient id="paint27_linear_2_8196" x1="182.073" y1="229.606" x2="181.861" y2="205.744" gradientUnits="userSpaceOnUse">
<stop stop-color="#4C3442"/>
<stop offset="0.28" stop-color="#583843"/>
<stop offset="0.79" stop-color="#794244"/>
<stop offset="1" stop-color="#884745"/>
</linearGradient>
<linearGradient id="paint28_linear_2_8196" x1="163.442" y1="215.81" x2="174.682" y2="218.577" gradientUnits="userSpaceOnUse">
<stop stop-color="#805B5C"/>
<stop offset="1" stop-color="#653C42"/>
</linearGradient>
<linearGradient id="paint29_linear_2_8196" x1="96.3647" y1="109.756" x2="101.883" y2="161.725" gradientUnits="userSpaceOnUse">
<stop stop-color="#FCEE47"/>
<stop offset="0.17" stop-color="#FCE244" stop-opacity="0.9"/>
<stop offset="0.55" stop-color="#FEC53E" stop-opacity="0.63"/>
<stop offset="0.98" stop-color="#FFA036" stop-opacity="0.3"/>
</linearGradient>
<linearGradient id="paint30_linear_2_8196" x1="114.084" y1="120.548" x2="124.593" y2="219.53" gradientUnits="userSpaceOnUse">
<stop stop-color="#FCEE47"/>
<stop offset="0.17" stop-color="#FCE244" stop-opacity="0.9"/>
<stop offset="0.55" stop-color="#FEC53E" stop-opacity="0.63"/>
<stop offset="0.98" stop-color="#FFA036" stop-opacity="0.3"/>
</linearGradient>
<linearGradient id="paint31_linear_2_8196" x1="154.545" y1="146.563" x2="158.385" y2="186.014" gradientUnits="userSpaceOnUse">
<stop stop-color="#FCEE47"/>
<stop offset="0.17" stop-color="#FCE244" stop-opacity="0.9"/>
<stop offset="0.55" stop-color="#FEC53E" stop-opacity="0.63"/>
<stop offset="0.98" stop-color="#FFA036" stop-opacity="0.3"/>
</linearGradient>
<linearGradient id="paint32_linear_2_8196" x1="12.8115" y1="218.887" x2="13.1351" y2="187.595" gradientUnits="userSpaceOnUse">
<stop stop-color="#FFC240"/>
<stop offset="0.18" stop-color="#FFBD3E" stop-opacity="0.89"/>
<stop offset="0.58" stop-color="#FFAF3A" stop-opacity="0.61"/>
<stop offset="0.98" stop-color="#FFA036" stop-opacity="0.3"/>
</linearGradient>
<linearGradient id="paint33_linear_2_8196" x1="17.7215" y1="218.222" x2="17.8649" y2="204.348" gradientUnits="userSpaceOnUse">
<stop stop-color="#FFC240"/>
<stop offset="0.18" stop-color="#FFBD3E" stop-opacity="0.89"/>
<stop offset="0.58" stop-color="#FFAF3A" stop-opacity="0.61"/>
<stop offset="0.98" stop-color="#FFA036" stop-opacity="0.3"/>
</linearGradient>
<linearGradient id="paint34_linear_2_8196" x1="136.939" y1="187.228" x2="140.436" y2="201.207" gradientUnits="userSpaceOnUse">
<stop stop-color="#864645"/>
<stop offset="0.13" stop-color="#884544" stop-opacity="0.86"/>
<stop offset="0.53" stop-color="#8D4241" stop-opacity="0.51"/>
<stop offset="0.83" stop-color="#904140" stop-opacity="0.28"/>
<stop offset="1" stop-color="#91403F" stop-opacity="0.2"/>
</linearGradient>
</defs>
</svg>
