<svg width="223" height="280" viewBox="0 0 223 280" fill="none" xmlns="http://www.w3.org/2000/svg">
<g filter="url(#filter0_d_2_8778)">
<path d="M159.586 229.145C158.483 230.091 145.397 232.211 144.351 232.39C143.306 232.57 133.215 232.583 127.584 231.9C123.191 231.367 117.05 233.218 113.256 233.356C112.188 233.391 111.3 233.288 110.691 232.958C107.959 231.457 93.1087 229.565 90.3188 228.837C88.8753 228.404 87.4919 227.791 86.2015 227.013C84.8643 226.253 83.7355 225.502 83.0974 225.191C81.8468 224.582 81.0932 220.904 80.4968 218.531C80.3461 217.928 79.6951 216.835 78.7908 215.51C76.1613 211.662 71.4154 205.89 70.928 204.883C70.2546 203.543 70.7228 200.734 70.928 197.906C71.1333 195.077 69.3087 188.738 68.0773 184.511C66.8459 180.285 80.7277 136.607 81.3401 135.35C81.3401 135.35 81.6223 133.849 82.0841 132.194C82.0841 132.194 82.0841 132.194 82.0841 132.175C82.3857 130.999 82.8249 129.862 83.3924 128.789C84.5725 126.813 88.5584 121.939 92.8585 116.318C97.1587 110.697 126.965 71.8573 128.668 69.898C129.95 68.4326 138.342 72.6782 143.117 75.1089C143.88 75.5065 144.554 75.8464 145.092 76.1126C145.631 76.3787 146.035 76.5775 146.243 76.6673C148.001 77.3087 149.697 84.078 150.598 86.8165C151.733 90.2829 155.517 95.8209 157.188 99.4636C158.115 101.481 158.769 109.404 158.121 111.168C157.473 112.932 159.74 113.615 159.849 115.693C159.933 117.408 161.296 128.07 161.838 132.585C161.95 133.522 162.027 134.189 162.056 134.468C162.193 136.033 169.752 145.646 170.573 148.295C171.393 150.944 160.69 228.19 159.586 229.145Z" fill="url(#paint0_linear_2_8778)"/>
<path opacity="0.34" d="M153.667 136.174C153.606 136.224 153.531 136.255 153.452 136.26C153.374 136.266 153.295 136.247 153.228 136.206C150.932 135.144 147.667 150.928 146.105 151.999C144.544 153.07 133.349 159.653 132.904 161.699C132.48 163.623 133.276 180.532 134.042 183.639C132.015 179.182 130.162 174.311 129.873 172.528C129.261 168.946 127.09 160.525 127.741 157.777C128.392 155.029 130.559 149.735 130.736 147.391C130.912 145.047 131.589 138.018 132.483 135.872C133.378 133.727 135.068 128.994 135.539 126.666C136.011 124.338 139.609 119.611 140.147 118.329C140.686 117.046 142.45 113.451 142.45 113.451C142.45 113.451 142.678 123.969 148.254 130.126C150.216 132.313 152.076 134.362 153.667 136.174Z" fill="url(#paint1_linear_2_8778)"/>
<path d="M136.832 190.085C136.832 190.085 130.374 214.494 127.154 215.671C123.935 216.848 118.207 220.984 117.774 222.94C117.412 224.598 114.247 231.278 113.256 233.356C112.188 233.391 111.3 233.288 110.691 232.958C107.959 231.457 93.1087 229.565 90.3188 228.837C88.8753 228.404 87.4919 227.791 86.2015 227.013C84.8643 226.253 83.7355 225.502 83.0974 225.191C81.8468 224.582 81.0932 220.904 80.4968 218.531C80.3461 217.928 79.6951 216.835 78.7908 215.51C76.1613 211.662 71.4154 205.89 70.928 204.883C70.2546 203.543 70.7228 200.734 70.928 197.906C71.1333 195.077 69.3087 188.738 68.0773 184.511C66.8459 180.285 80.7277 136.607 81.3401 135.35C81.3401 135.35 81.6223 133.849 82.0841 132.194C82.0841 132.194 91.1782 144.877 93.4037 145.614C95.6291 146.352 128.337 154.513 129.104 155.709C129.45 156.254 126.186 158.422 128.106 165.897C130.422 174.901 136.832 190.085 136.832 190.085Z" fill="url(#paint2_linear_2_8778)"/>
<path d="M160.539 167.477C159.952 167.432 157.374 164.434 157.156 165.451C156.938 166.467 157.031 168.978 156.335 170.405C155.639 171.832 151.743 176.543 148.751 181.038C145.759 185.534 141.113 192.406 139.189 192.409C138.227 192.409 135.982 188.314 133.943 183.787C131.916 179.329 130.062 174.458 129.774 172.675C129.161 169.094 126.99 160.673 127.638 157.925C128.286 155.177 130.457 149.882 130.633 147.538C130.81 145.194 131.489 138.165 132.384 136.02C133.279 133.874 134.965 129.138 135.44 126.813C135.915 124.489 139.509 119.759 140.048 118.476C140.587 117.193 142.35 113.599 142.35 113.599C142.35 113.599 142.575 124.117 148.155 130.273C150.127 132.464 152.003 134.513 153.577 136.321C154.254 137.094 154.885 137.819 155.443 138.492L155.463 138.521C157.326 140.746 158.515 142.417 158.669 143.305C158.99 145.101 156.425 155.372 157.707 159.894C158.99 164.415 161.126 167.522 160.539 167.477Z" fill="url(#paint3_linear_2_8778)"/>
<path d="M142.495 115.18C142.354 117.078 136.78 123.447 136.402 125.762C136.024 128.077 133.901 133.631 132.875 135.889C131.849 138.146 130.874 145.509 130.851 148.677C130.832 151.21 129.248 154.824 128.344 156.828C128.11 157.338 127.924 157.752 127.815 158.002C127.295 159.233 117.835 158.098 114.885 157.877C111.935 157.656 109.088 155.953 107.071 154.526C105.053 153.099 101.844 153.5 99.9645 153.141C98.0854 152.781 94.0321 150.149 91.781 149.132C91.1397 148.847 90.2867 148.116 89.3343 147.154C86.8748 144.675 83.8156 140.67 82.5778 138.893C81.3401 137.117 81.6992 134.584 82.0808 132.207C82.0808 132.207 82.0808 132.207 82.0808 132.188C82.3825 131.007 82.8227 129.866 83.3923 128.789C84.5724 126.814 88.5583 121.94 92.8585 116.318C93.8205 115.036 95.722 111.999 98.6882 108.135C108.818 94.9457 127.35 71.4022 128.668 69.8983C130.152 68.1987 141.212 74.1856 145.092 76.1128C144.72 77.2737 144.204 78.8834 143.886 79.8518C143.335 81.5065 143.027 88.4907 142.678 93.1275C142.328 97.7644 142.639 113.285 142.495 115.18Z" fill="url(#paint4_linear_2_8778)"/>
<path d="M128.347 156.834C128.113 157.344 127.927 157.758 127.818 158.008C127.298 159.239 117.839 158.104 114.889 157.883C111.938 157.662 109.091 155.959 107.074 154.532C105.057 153.105 101.847 153.506 99.9678 153.147C98.0887 152.788 94.0354 150.155 91.7843 149.138C91.143 148.853 90.29 148.122 89.3376 147.16C95.3737 145.683 101.655 145.51 107.763 146.653C118.781 148.693 127.552 156.129 128.347 156.834Z" fill="#583B51"/>
<path d="M173.555 232.066C173.424 232.212 173.268 232.331 173.093 232.419C170.303 234.058 153.08 236.379 149.517 234.984C146.705 233.865 144.015 232.791 143.425 232.525C142.142 231.932 142.992 215.921 143.309 213.487C143.309 213.419 143.325 213.359 143.335 213.31C143.547 212.118 147.529 208.779 150.332 206.201C151.461 205.165 152.824 203.915 153.34 203.514C155.142 202.122 162.639 198.451 163.515 198.175C164.39 197.899 165.705 196.135 166.721 196.212C167.738 196.289 170.749 199.06 172.134 201.038C173.459 202.93 174.116 206.051 174.126 206.111C174.222 206.782 174.59 209.959 175.431 212.47C176.531 215.757 178.172 218.544 178.387 219.525C178.782 221.237 174.683 230.617 173.555 232.066Z" fill="url(#paint5_linear_2_8778)"/>
<path d="M172.051 206.076C171.698 206.91 169.854 210.056 168.312 210.78C166.545 211.627 165.779 212.063 165.445 213.246C165.112 214.43 164.467 216.588 164.467 216.588C164.467 216.588 161.729 217.354 159.567 216.947C157.406 216.54 152.211 220.795 151.23 220.949C150.249 221.103 143.483 216.957 143.357 215.481C143.325 215.097 143.313 214.378 143.332 213.477C143.332 213.41 143.348 213.349 143.357 213.301C143.656 211.627 150.778 205.659 152.58 204.261C154.382 202.863 162.668 198.441 163.537 198.169C164.406 197.896 165.727 196.129 166.744 196.206C167.76 196.283 170.771 199.054 172.157 201.032C173.475 202.921 172.404 205.255 172.051 206.076Z" fill="#613F57"/>
<path opacity="0.4" d="M147.241 143.007C147.032 143.498 147.209 145.521 146.397 145.502C145.586 145.483 145.499 142.571 144.22 141.635C142.941 140.699 141.857 140.942 142.197 138.611C142.537 136.28 140.914 135.475 140.17 134.24C139.602 133.317 138.724 134.134 137.977 135.09C137.229 136.046 135.899 137.123 135.437 138.778C135.222 139.541 134.523 140.202 134.097 141.144C133.818 141.763 133.878 142.639 133.478 143.267C133.208 143.697 132.516 144.2 132.253 144.595C132.221 144.64 130.518 149.132 130.489 149.177C130.46 149.222 131.31 143.02 131.416 142.507V142.465C131.586 141.6 131.842 140.327 131.983 139.579C132.006 139.461 132.028 139.358 132.041 139.259C132.266 138.376 132.589 137.521 133.003 136.709C133.263 136.158 133.542 135.597 133.808 135.061C134.497 133.637 135.161 130.171 135.552 127.91C135.575 127.785 135.591 127.66 135.613 127.545C135.902 125.81 137.047 124.142 138.41 122.212C138.81 121.632 139.24 121.035 139.667 120.4C140.783 118.752 141.612 116.928 142.12 115.003C142.12 115.003 142.181 115.231 142.264 115.603C142.492 116.565 142.998 118.438 143.341 119.849C143.819 121.814 144.983 126.057 145.471 126.262C145.657 126.342 147.026 129.257 147.026 129.257C147.026 129.257 145.214 129.097 145.15 129.443C144.829 131.172 144.461 133.115 144.576 133.904C144.797 135.436 145.16 135.125 146.032 136.879C146.904 138.633 145.836 138.832 145.907 140.189C145.977 141.545 147.443 142.514 147.241 143.007Z" fill="#322133"/>
<path opacity="0.52" d="M138.503 126.31C137.717 127.766 136.649 132.249 135.902 133.208C135.155 134.167 135.902 137.085 135.44 138.739C134.978 140.394 132.015 144.777 130.816 146.634C130.845 146.426 131.377 142.751 131.419 142.465V142.427C131.496 141.843 131.608 141.144 131.72 140.535C131.772 140.262 131.871 139.894 131.987 139.528C132.266 138.643 132.673 137.562 132.997 136.671C133.247 136.01 133.452 135.462 133.532 135.196C133.763 134.42 134.76 129.786 135.238 128.558C135.286 128.436 135.392 128.199 135.559 127.872C136.101 126.727 137.23 124.489 138.416 122.174C140.221 118.611 142.152 114.869 142.238 114.663C142.28 114.574 142.28 114.936 142.27 115.565C142.281 116.504 142.122 117.438 141.802 118.322C141.587 118.877 141.007 119.374 140.901 119.926C140.661 121.122 141.187 122.129 141.026 122.847C140.6 124.79 138.701 125.941 138.503 126.31Z" fill="#543243"/>
<path d="M173.093 232.419C170.303 234.058 153.08 236.38 149.518 234.985C149.232 234.802 149.107 229.793 149.319 228.44C149.53 227.087 151.278 220.968 151.278 220.968L151.381 220.901C153.417 219.557 155.523 218.319 157.688 217.194C158.846 216.611 159.84 216.652 161.158 216.649C162.476 216.646 163.794 216.418 164.454 216.591C164.537 216.615 164.617 216.648 164.692 216.691C165.67 217.332 168.033 223.794 168.427 224.618C168.822 225.442 167.465 227.183 167.616 228.446C167.703 229.261 169.736 229.963 170.611 230.486C171.478 231.078 172.307 231.724 173.093 232.419Z" fill="#3D2B45"/>
<g opacity="0.43">
<path d="M79.631 191.04C81.7474 191.508 87.5162 191.171 87.4232 192.403C87.3302 193.634 85.8808 196.466 87.1026 196.866C88.3243 197.267 89.3088 198.425 89.0971 199.182C88.8855 199.938 88.1512 201.426 87.2405 201.208C86.3298 200.99 85.9129 200.336 83.6297 199.855C81.3466 199.374 77.7038 198.172 77.6204 197.081C77.537 195.991 78.5824 190.806 79.631 191.04Z" fill="#1F102D"/>
<path d="M95.4881 182.719C96.6713 186.467 93.2691 188.972 95.9466 189.562C98.6242 190.152 99.8748 189.081 100.92 190.716C101.966 192.352 103.806 193.852 106.692 191.733C109.578 189.613 107.85 189.292 106.577 185.499C105.304 181.705 106.372 177.896 102.754 176.841C99.1373 175.786 94.2343 178.733 95.4881 182.719Z" fill="#1F102D"/>
<path d="M111.13 184.287C109.469 187.529 112.047 190.19 114.616 187.077C117.184 183.963 112.955 180.727 111.13 184.287Z" fill="#1F102D"/>
<path d="M109.424 196.597C104.65 199.727 105.868 205.086 110.361 204.839C114.853 204.592 115.626 204.653 114.744 200.888C113.862 197.123 112.086 194.866 109.424 196.597Z" fill="#1F102D"/>
</g>
<path opacity="0.41" d="M82.2668 175.754C79.1339 182.016 86.4163 181.237 88.9207 176.254C90.1585 173.795 86.7722 176.023 85.2394 175.68C83.7066 175.337 83.899 172.48 82.2668 175.754Z" fill="#1F102D"/>
<path opacity="0.72" d="M104.803 207.041C103.967 208.212 99.4291 210.851 98.9769 211.932C98.5248 213.012 99.8011 217.453 99.4419 218.912C99.0828 220.372 98.3741 222.995 98.1143 223.097C97.9476 223.165 98.3741 219.393 97.7424 217.223C97.4217 216.139 96.8926 215.452 96.4853 215.343C95.2764 215 92.6373 216.915 91.4637 217.816C90.29 218.717 88.3885 220.801 87.7664 222.494C87.3206 223.697 86.5895 225.861 86.2111 227.013C84.8739 226.253 83.7452 225.502 83.1071 225.191C81.8564 224.582 81.1029 220.904 80.5064 218.531C80.3557 217.928 79.7048 216.835 78.8005 215.51C78.7171 214.093 78.4413 209.902 78.095 207.628C77.6845 204.877 76.5782 199.829 77.0143 198.993C77.4505 198.156 79.0057 193.936 78.9768 192.698C78.948 191.46 77.7615 186.823 77.9283 186.22C78.095 185.617 80.5353 180.506 80.4936 179.39C80.4519 178.274 79.6567 177.065 79.7016 176.45C79.7464 175.834 79.1276 174.105 79.1276 174.105C79.3454 174.324 79.5128 174.588 79.6182 174.878C79.7112 175.26 80.2339 177.537 80.67 178.316C81.1061 179.095 81.2728 180.224 80.8463 180.929C80.4198 181.635 78.4894 184.877 78.2617 186.336C78.0341 187.795 80.3204 193.035 79.9613 194.494C79.6021 195.953 77.6493 199.881 77.6942 202.616C77.7391 205.351 80.686 212.9 80.5385 214.872C80.391 216.844 83.4598 218.813 84.0658 219.23C84.6719 219.647 88.1191 214.702 89.6711 213.949C91.2232 213.195 93.5192 213.282 94.0098 212.294C95.3213 209.661 96.4116 205.034 96.7547 205.432C97.0978 205.829 98.0374 208.706 99.7145 207.962C101.392 207.218 103.562 205.573 103.902 204.354C104.242 203.136 105.881 199.544 104.951 198.73C104.021 197.915 102.62 196.693 102.793 196.091C102.966 195.488 102.87 191.758 103.213 192.156C103.556 192.554 103.534 196.145 103.986 196.674C104.438 197.203 105.993 198.069 106.022 199.307C106.051 200.545 105.631 205.861 104.803 207.041Z" fill="#F27E35"/>
<path d="M93.843 201.449C93.1824 202.873 94.805 203.425 94.8916 202.315C94.9782 201.206 94.3112 200.446 93.843 201.449Z" fill="#AB7E7B"/>
<path d="M98.3292 194.972C96.6874 196.386 98.8712 199.076 99.4035 197.216C99.9358 195.356 99.5189 193.949 98.3292 194.972Z" fill="#AB6E6D"/>
<path d="M81.3402 135.35C81.4011 134.596 85.1561 126.865 88.8823 121.532C92.6085 116.2 107.045 98.3801 109.867 94.0222C112.689 89.6643 127.369 68.5387 128.418 68.4104C129.466 68.2821 138.83 71.1585 138.65 73.384C138.618 73.8105 140.866 72.3835 142.081 79.6851C143.242 86.6532 143.418 102.257 141.696 107.035C135.819 123.341 127.266 147.975 120.311 152.249C109.197 159.108 80.5577 144.903 81.3402 135.35Z" fill="url(#paint6_linear_2_8778)"/>
<path opacity="0.78" d="M108.356 201.036C107.115 203.114 110.136 205.233 110.989 202.61C111.842 199.987 109.482 199.163 108.356 201.036Z" fill="#F8B870"/>
<path d="M70.4919 170.944C70.5978 170.517 70.8447 169.661 71.1878 168.52C70.8479 169.722 70.5914 170.604 70.4919 170.944Z" fill="url(#paint7_linear_2_8778)"/>
<path d="M149.527 180.032C149.245 180.378 148.357 181.689 147.282 183.213C144.544 187.141 139.859 193.285 138.772 193.734C137.271 194.359 133.657 184.005 132.743 181.276C131.913 178.774 130.357 177.158 129.62 174.712C128.882 172.265 128.312 170.254 128.142 169.462C127.606 167.003 127.385 162.892 126.102 160.747C124.819 158.601 112.596 157.796 110.697 158.758C108.799 159.72 112.124 171.906 111.467 171.104C110.809 170.302 109.745 163.729 109.35 161.853C108.956 159.977 108.465 158.406 106.464 156.196C104.463 153.987 99.3135 153.615 97.8961 153.127C96.4788 152.64 92.2652 149.921 90.6939 149.042C89.1226 148.163 85.079 143.533 84.2228 142.914C83.3666 142.295 81.9781 141.433 80.6955 141.33C79.6405 141.253 73.5542 160.612 71.2678 168.221C72.5505 163.815 74.8818 155.661 75.491 153.445C76.2382 150.758 79.3904 141.58 79.6597 139.752C79.9291 137.925 82.4816 131.094 82.8664 129.533C82.9722 129.119 84.1491 127.429 85.7813 125.162C90.4214 118.822 98.9287 107.984 98.9287 107.984C97.5883 111.745 99.384 113.756 102.389 113.72C105.393 113.685 107.757 109.154 108.353 108.141C108.622 107.689 110.96 103.122 110.96 103.122C110.96 103.122 108.366 108.484 108.206 108.763C106.981 110.886 104.787 114.407 104.608 115.362C104.38 116.546 104.483 120.153 103.883 121.173C103.283 122.193 97.7518 124.418 98.0468 124.059C98.3419 123.7 99.8233 123.001 101.225 121.776C102.626 120.551 102.187 119.72 101.645 118.207C101.103 116.693 99.182 116.283 97.4761 116.549C95.7701 116.815 96.1934 116.18 90.8254 121.487C87.9959 124.26 85.7117 127.54 84.0914 131.155C83.652 132.117 83.3442 132.864 83.0909 133.333C82.5842 134.295 82.2122 136.446 82.7061 138.175C83.0484 139.186 83.7203 140.053 84.614 140.637C85.7524 141.279 89.2669 147.275 90.0654 147.888C92.3581 149.503 94.8114 150.877 97.3863 151.989C99.9965 153.047 104.556 153.826 105.474 153.711C106.391 153.596 109.193 155.613 110.149 156.251C111.104 156.889 125.797 160.137 127.385 157.37C128.972 154.603 130.502 147.006 130.71 144.408C130.919 141.811 131.887 138.957 132.634 137.187C133.381 135.417 134.209 132.547 134.237 130.395C134.266 128.244 138.631 120.455 140.478 116.138C142.081 112.37 142.722 94.8748 142.857 90.5586C142.777 95.048 142.395 113.647 142.216 114.737C142.014 115.962 141.254 117.774 140.196 119.662C139.137 121.551 136.104 127.65 135.482 129.157C134.86 130.665 134.783 132.839 134.465 134.288C134.148 135.738 132.644 139.23 132.163 140.233C131.682 141.237 131.137 144.203 130.976 146.268C130.708 148.752 130.279 151.215 129.694 153.644C129.241 155.478 127.869 159.935 128.049 161.513C128.228 163.091 128.728 167.07 129.12 168.568C129.511 170.065 132.557 178.63 133.773 181.715C134.988 184.8 136.915 192.108 139.564 190.825C140.917 190.184 144.351 186.9 146.74 183.578C149.03 180.397 151.701 176.863 152.099 176.35C152.913 175.305 150.537 178.813 149.527 180.032Z" fill="url(#paint8_linear_2_8778)"/>
<path d="M103.88 121.186C103.28 122.208 97.7489 124.431 98.0439 124.072C98.3389 123.712 99.8204 123.013 101.222 121.788C102.623 120.563 102.184 119.733 101.642 118.219C101.1 116.706 99.179 116.295 97.4731 116.562C95.7671 116.828 96.1904 116.193 90.8224 121.5C87.9929 124.273 85.7087 127.553 84.0884 131.168C84.4828 129.526 85.0889 127.413 85.8136 125.187C90.4536 118.848 98.961 108.009 98.961 108.009C97.6206 111.771 99.4163 113.781 102.421 113.746C105.426 113.711 109.979 104.953 108.193 108.785C106.968 110.905 104.836 114.432 104.666 115.388C104.377 116.558 104.48 120.166 103.88 121.186Z" fill="#F98031"/>
<path d="M108.491 107.452C109.86 105.03 110.559 102.472 111.47 100.313C112.112 98.8063 112.647 97.3537 113.231 96.2955C113.923 95.0353 115.514 93.5217 116.877 92.0498C118.106 90.7285 119.257 89.3366 120.324 87.8811C121.927 85.6557 121.607 78.1424 122.248 77.1836C122.889 76.2249 125.881 73.3356 126.689 71.4822C127.497 69.6287 128.873 67.6341 130.178 68.0574C131.483 68.4807 134.748 70.8729 136.623 71.1262C138.499 71.3796 145.538 75.6701 146.138 76.6097C146.737 77.5492 146.712 79.4315 146.721 80.4929C146.721 82.1925 147.452 82.6767 147.363 83.2122C147.331 83.3854 147.068 83.0743 146.837 82.9845C146.542 82.8755 146.292 82.9845 146.516 83.3822C146.708 83.7221 149.226 90.4786 152.157 97.219C155.254 104.344 158.281 110.831 158.281 110.831C158.186 111.086 158.137 111.355 158.137 111.627C158.138 111.95 158.171 112.272 158.236 112.589C158.156 112.137 146.311 83.1353 145.163 83.6066C144.015 84.078 142.1 81.362 141.26 82.1957C140.42 83.0294 136.303 77.1965 133.715 73.7814C131.127 70.3662 128.677 79.9414 127.674 81.843C126.67 83.7445 121.26 88.282 121.26 91.6201C121.26 94.9583 125.75 89.5262 125.948 88.3076C126.147 87.0891 126.535 85.3415 126.779 85.3607C127.023 85.3799 127.067 85.04 126.801 85.9443C126.535 86.8486 126.66 89.3947 126.269 89.8436C125.878 90.2926 122.325 93.8039 121.036 95.0994C119.747 96.3949 119.432 96.1223 118.576 95.7792C117.72 95.4361 116.742 97.482 114.497 99.8132C112.253 102.144 107.192 110.257 106.872 110.979C106.555 111.593 106.189 112.181 105.778 112.736L107.237 109.597C107.237 109.597 107.722 108.821 108.491 107.452Z" fill="#F98031"/>
<path d="M86.8428 123.587C89.6903 119.957 94.5805 114.185 96.5398 114.42C98.4991 114.654 96.7129 112.611 98.9224 108.006C98.4157 107.929 86.8428 123.587 86.8428 123.587Z" fill="#FCBF54"/>
<path d="M109.386 105.883C111.778 100.172 117.996 94.676 119.682 91.0941C121.369 87.5122 121.411 87.2717 121.638 85.8576C121.882 84.3312 121.889 79.1235 121.889 79.1235C121.855 80.5545 121.743 81.9826 121.552 83.4013C121.387 85.0462 120.919 86.6464 120.173 88.1215C118.727 90.8215 114.674 93.8422 113.218 96.2953C111.762 98.7484 109.386 105.883 109.386 105.883Z" fill="#FCBF54"/>
<path d="M134.799 70.5234C136.213 71.6233 137.387 74.2849 137.71 75.3078C138.034 76.3307 139.141 78.8031 139.997 79.3675C140.853 79.9318 142.652 82.4555 143.139 81.2915C143.627 80.1275 144.166 79.5727 144.496 80.4962C144.826 81.4198 145.811 82.8884 146.099 81.811C146.237 81.2883 146.211 79.3162 145.868 77.7545C145.509 76.1095 144.932 75.404 144.906 75.8305C144.849 77.328 143.582 77.7866 142.546 77.2895C140.471 76.2987 139.189 74.3202 138.65 73.3838C138.111 72.4474 137.076 71.2161 136.688 71.0942C136.3 70.9724 134.799 70.5234 134.799 70.5234Z" fill="#FCBF54"/>
<path d="M97.8418 127.189C96.5046 128.683 97.9797 132.711 100.407 129.587C102.835 126.464 99.0475 125.848 97.8418 127.189Z" fill="#F8A650"/>
<path d="M94.1636 129.228C93.1311 130.113 93.9905 131.527 94.7312 130.482C95.472 129.437 95.2251 128.314 94.1636 129.228Z" fill="#F8A650"/>
<path opacity="0.59" d="M159.455 199.955C161.741 198.896 163.268 198.114 163.425 198.072C161.289 199.223 156.938 201.571 153.677 203.924C151.371 205.592 149.649 208.292 149.543 208.779C149.49 209.063 149.473 209.351 149.492 209.639C149.489 209.657 149.489 209.675 149.492 209.693C149.534 210.598 149.768 211.71 149.851 212.685C149.854 212.711 149.854 212.736 149.851 212.762C149.913 213.238 149.89 213.721 149.784 214.189C149.784 214.208 149.784 214.231 149.784 214.25C149.648 214.702 149.439 215.129 149.165 215.513C149.107 215.639 149.077 215.776 149.077 215.914C149.077 216.053 149.107 216.189 149.165 216.315C149.315 216.806 149.485 217.316 149.623 217.858C149.656 217.957 149.683 218.059 149.703 218.162C149.71 218.182 149.716 218.202 149.719 218.223C149.74 218.312 149.756 218.402 149.768 218.492C149.834 218.853 149.866 219.219 149.864 219.586C149.864 220.91 151.99 220.372 151.99 220.372L151.214 221.032C151.036 222.034 150.801 223.024 150.508 223.998C150.143 225.255 149.421 226.958 149.226 228.414C148.867 230.979 149.447 233.545 149.434 234.157C149.427 234.466 149.52 234.769 149.7 235.02C149.7 235.02 147.391 234.314 145.439 233.484C143.425 232.618 142.604 232.095 142.646 231.508C142.732 230.38 142.543 216.944 142.966 213.852C143.085 212.977 143.547 212.271 144.249 211.483C144.249 211.483 144.249 211.483 144.249 211.463C144.746 210.902 145.362 210.296 146.054 209.562C147.151 208.404 148.639 207.503 150.159 206.285C151.143 205.493 152.083 204.361 153.154 203.639C155.15 202.24 157.257 201.008 159.455 199.955Z" fill="url(#paint9_linear_2_8778)"/>
<path opacity="0.59" d="M164.576 197.495C164.237 197.724 163.876 197.92 163.499 198.079C163.989 197.816 164.364 197.614 164.576 197.495Z" fill="url(#paint10_linear_2_8778)"/>
<path d="M149.841 218.505C149.857 218.948 149.79 219.118 149.822 218.679C149.83 218.53 149.82 218.382 149.793 218.236C149.793 218.217 149.793 218.194 149.793 218.175C149.771 218.069 149.739 217.973 149.71 217.854C149.514 217.213 149.171 216.604 149.251 216.312C149.263 216.264 149.272 216.214 149.277 216.165C149.319 216.4 149.393 216.629 149.498 216.844C149.715 217.372 149.832 217.935 149.841 218.505Z" fill="#F4875C"/>
<path d="M159.545 199.903C161.831 198.848 163.268 198.114 163.425 198.072C161.289 199.223 156.938 201.571 153.677 203.924C151.371 205.592 149.649 208.292 149.543 208.779C149.49 209.063 149.473 209.351 149.492 209.639C149.488 209.657 149.488 209.675 149.492 209.693C149.549 210.697 149.669 211.696 149.851 212.685C149.854 212.711 149.854 212.736 149.851 212.762C149.872 213.26 149.844 213.758 149.768 214.25C149.737 214.423 149.69 214.593 149.626 214.757C149.485 215.097 149.21 215.334 149.162 215.773C149.162 215.69 149.162 215.6 149.162 215.513C149.121 215.168 149.176 214.817 149.319 214.5C149.639 213.772 149.38 212.435 148.956 211.839C148.533 211.242 148.594 210.312 147.189 210.299C146.33 210.299 144.974 211.159 144.14 212.134C143.611 212.752 143.422 213.554 143.264 213.759C143.255 213.499 143.304 213.241 143.409 213.003C143.463 212.897 143.803 212.265 144.236 211.483C144.236 211.483 144.236 211.483 144.236 211.463C144.733 210.902 145.349 210.296 146.041 209.562C147.09 208.456 148.607 207.538 150.146 206.256C151.275 205.326 152.391 204.011 153.548 203.235C154.518 202.618 155.523 202.056 156.556 201.552C157.592 200.994 158.589 200.343 159.545 199.903Z" fill="#F4875C"/>
<path d="M164.576 197.495C164.237 197.724 163.876 197.92 163.499 198.079C163.989 197.816 164.364 197.614 164.576 197.495Z" fill="#F4875C"/>
<path d="M153.337 219.563C152.452 220.096 151.676 220.567 151.467 221.01C151.259 221.452 149.469 227.728 149.344 228.459C149.219 229.19 149.687 232.502 149.665 233.134C149.642 233.766 150.325 234.632 150.515 234.927C150.712 235.145 150.97 235.3 151.255 235.372C151.255 235.372 150.056 235.142 149.755 235.029C149.453 234.917 148.084 234.426 148.187 234.471C148.289 234.516 149.28 234.94 149.418 234.529C149.456 234.407 149.319 233.753 149.287 233.08C149.21 231.419 149.117 228.911 149.068 228.545C148.998 228.045 150.627 224.056 150.691 223.665C150.755 223.274 151.037 220.978 151.188 220.814C151.339 220.651 153.337 219.563 153.337 219.563Z" fill="#C3654C"/>
<path d="M158.333 216.918C158.469 216.853 158.613 216.807 158.762 216.78C159.333 216.657 159.913 216.578 160.497 216.546C161.27 216.546 162.148 216.626 162.896 216.578C163.575 216.533 164.448 216.578 164.566 215.882C164.81 214.824 165.15 213.79 165.583 212.794C166.356 211.332 168.52 210.37 169.229 209.886C170.271 209.174 170.454 208.183 171.191 207.548C171.483 207.295 171.919 206.144 172.246 205.599C172.743 204.774 172.567 202.123 172.567 202.123C172.567 202.123 173.157 206.031 171.589 207.196C171.018 207.619 169.694 210.168 169.178 210.402C168.276 210.819 167.305 211.063 166.593 212.201C165.471 213.99 165.06 214.542 165.253 215.937C165.445 217.332 166.397 218.502 166.792 219.801C167.186 221.1 167.526 221.741 167.869 222.976C168.119 223.883 168.296 224.358 168.296 224.358L167.735 222.911C167.415 222.003 167.024 221.122 166.564 220.276C165.923 219.291 165.281 217.71 164.204 217.582C163.242 217.47 162.703 216.668 159.814 216.716C159.436 216.729 158.333 216.918 158.333 216.918Z" fill="#6B5D77"/>
<path opacity="0.56" d="M145.923 131.822C145.22 133.746 145.525 134.16 147.141 134.282C148.757 134.404 149.178 132.807 148.145 131.768C147.112 130.729 146.949 129.016 145.923 131.822Z" fill="#322133"/>
<path opacity="0.36" d="M138.438 135.462C137.595 136.209 138.644 137.386 139.288 136.533C139.933 135.68 139.686 134.353 138.438 135.462Z" fill="#322133"/>
<path d="M157.804 159.743C156.447 158.909 154.119 153.519 155.543 152.804C156.967 152.089 158.281 149.174 155.254 145.653C152.227 142.132 158.352 145.073 157.9 142.982C157.512 141.18 156.082 139.089 155.549 138.371C157.412 140.596 158.605 142.267 158.756 143.155C159.07 144.951 156.524 155.231 157.804 159.743Z" fill="#3D2A40"/>
<path d="M145.301 148.497C143.925 150.209 146.641 151.976 146.583 150.482C146.526 148.988 145.997 147.622 145.301 148.497Z" fill="#3D2A40"/>
<path d="M143.431 145.932C142.864 146.737 144.166 147.59 144.409 146.634C144.653 145.679 143.816 145.396 143.431 145.932Z" fill="#3D2A40"/>
<g opacity="0.55">
<path d="M127.709 219.044C122.684 223.367 125.968 225.724 129.848 223.534C133.728 221.343 131.682 215.623 127.709 219.044Z" fill="#311A36"/>
<path d="M131.913 213.057C130.768 214.24 132.82 215.523 133.452 214.372C134.084 213.221 133.096 211.839 131.913 213.057Z" fill="#311A36"/>
<path d="M133.738 217.992C133.023 219.817 137.117 219.448 135.79 218.255C134.462 217.062 134.264 216.617 133.738 217.992Z" fill="#311A36"/>
</g>
</g>
<defs>
<filter id="filter0_d_2_8778" x="0" y="0" width="222.414" height="279.413" filterUnits="userSpaceOnUse" color-interpolation-filters="sRGB">
<feFlood flood-opacity="0" result="BackgroundImageFix"/>
<feColorMatrix in="SourceAlpha" type="matrix" values="0 0 0 0 0 0 0 0 0 0 0 0 0 0 0 0 0 0 127 0" result="hardAlpha"/>
<feOffset dx="-12" dy="-12"/>
<feGaussianBlur stdDeviation="28"/>
<feComposite in2="hardAlpha" operator="out"/>
<feColorMatrix type="matrix" values="0 0 0 0 0 0 0 0 0 0 0 0 0 0 0 0 0 0 0.35 0"/>
<feBlend mode="normal" in2="BackgroundImageFix" result="effect1_dropShadow_2_8778"/>
<feBlend mode="normal" in="SourceGraphic" in2="effect1_dropShadow_2_8778" result="shape"/>
</filter>
<linearGradient id="paint0_linear_2_8778" x1="161.067" y1="81.4531" x2="101.737" y2="229.996" gradientUnits="userSpaceOnUse">
<stop stop-color="#371627"/>
<stop offset="0.26" stop-color="#2B122D"/>
<stop offset="0.57" stop-color="#220E31"/>
<stop offset="0.66" stop-color="#20102F"/>
<stop offset="1" stop-color="#1D132B"/>
</linearGradient>
<linearGradient id="paint1_linear_2_8778" x1="128.684" y1="149.203" x2="152.974" y2="151.146" gradientUnits="userSpaceOnUse">
<stop stop-color="#A34231"/>
<stop offset="0.44" stop-color="#7F4448"/>
<stop offset="0.83" stop-color="#6A475F"/>
</linearGradient>
<linearGradient id="paint2_linear_2_8778" x1="85.0073" y1="139.754" x2="116.319" y2="227.157" gradientUnits="userSpaceOnUse">
<stop stop-color="#2B213A"/>
<stop offset="1" stop-color="#2C152F"/>
</linearGradient>
<linearGradient id="paint3_linear_2_8778" x1="143.12" y1="193.844" x2="146.241" y2="117.564" gradientUnits="userSpaceOnUse">
<stop stop-color="#46425B"/>
<stop offset="0.29" stop-color="#4B4258" stop-opacity="0.84"/>
<stop offset="0.98" stop-color="#574253" stop-opacity="0.5"/>
</linearGradient>
<linearGradient id="paint4_linear_2_8778" x1="106.561" y1="79.2132" x2="126.873" y2="158.807" gradientUnits="userSpaceOnUse">
<stop stop-color="#A34231"/>
<stop offset="0.44" stop-color="#7F4448"/>
<stop offset="0.83" stop-color="#6A475F"/>
</linearGradient>
<linearGradient id="paint5_linear_2_8778" x1="143.199" y1="216.26" x2="178.713" y2="219.101" gradientUnits="userSpaceOnUse">
<stop stop-color="#371627"/>
<stop offset="0.46" stop-color="#2B122D"/>
<stop offset="1" stop-color="#220E31"/>
</linearGradient>
<linearGradient id="paint6_linear_2_8778" x1="90.354" y1="95.35" x2="131.295" y2="121.154" gradientUnits="userSpaceOnUse">
<stop stop-color="#932F2D"/>
<stop offset="0.2" stop-color="#8C3335" stop-opacity="0.83"/>
<stop offset="0.63" stop-color="#7B3D4B" stop-opacity="0.41"/>
<stop offset="1" stop-color="#6A475F" stop-opacity="0"/>
</linearGradient>
<linearGradient id="paint7_linear_2_8778" x1="70.4898" y1="170.755" x2="71.0198" y2="171.069" gradientUnits="userSpaceOnUse">
<stop stop-color="#F88D45"/>
<stop offset="0.07" stop-color="#F88F47" stop-opacity="0.99"/>
<stop offset="0.12" stop-color="#F8944D" stop-opacity="0.95"/>
<stop offset="0.17" stop-color="#F79C58" stop-opacity="0.89"/>
<stop offset="0.22" stop-color="#F7A868" stop-opacity="0.79"/>
<stop offset="0.26" stop-color="#F6B87C" stop-opacity="0.68"/>
<stop offset="0.3" stop-color="#F5CB94" stop-opacity="0.54"/>
<stop offset="0.33" stop-color="#F4DDAB" stop-opacity="0.4"/>
<stop offset="0.66" stop-color="#FB8D2C"/>
<stop offset="0.84" stop-color="#787387"/>
</linearGradient>
<linearGradient id="paint8_linear_2_8778" x1="82.7711" y1="116.11" x2="153.647" y2="158.07" gradientUnits="userSpaceOnUse">
<stop stop-color="#F88D45"/>
<stop offset="0.07" stop-color="#F88F47" stop-opacity="0.99"/>
<stop offset="0.12" stop-color="#F8944D" stop-opacity="0.95"/>
<stop offset="0.17" stop-color="#F79C58" stop-opacity="0.89"/>
<stop offset="0.22" stop-color="#F7A868" stop-opacity="0.79"/>
<stop offset="0.26" stop-color="#F6B87C" stop-opacity="0.68"/>
<stop offset="0.3" stop-color="#F5CB94" stop-opacity="0.54"/>
<stop offset="0.33" stop-color="#F4DDAB" stop-opacity="0.4"/>
<stop offset="0.66" stop-color="#FB8D2C"/>
<stop offset="0.84" stop-color="#787387"/>
</linearGradient>
<linearGradient id="paint9_linear_2_8778" x1="149.689" y1="198.065" x2="157.069" y2="238.731" gradientUnits="userSpaceOnUse">
<stop stop-color="#F78F6A"/>
<stop offset="0.32" stop-color="#C76554"/>
<stop offset="0.53" stop-color="#AC4D47"/>
<stop offset="0.71" stop-color="#A24540"/>
<stop offset="1" stop-color="#89312D"/>
</linearGradient>
<linearGradient id="paint10_linear_2_8778" x1="164.126" y1="199.284" x2="164.21" y2="199.736" gradientUnits="userSpaceOnUse">
<stop stop-color="#F78F6A"/>
<stop offset="0.32" stop-color="#C76554"/>
<stop offset="0.53" stop-color="#AC4D47"/>
<stop offset="0.71" stop-color="#A24540"/>
<stop offset="1" stop-color="#89312D"/>
</linearGradient>
</defs>
</svg>
