<svg width="1540" height="641" viewBox="0 0 1540 641" fill="none" xmlns="http://www.w3.org/2000/svg">
<g filter="url(#filter0_d_2_834)">
<path d="M-0.000169754 82.7475V596.785H1540V331.727L1517.79 324.139C1517.79 324.139 1517.78 324.139 1517.78 324.133L1517.66 324.093C1517.66 324.093 1517.61 324.08 1517.59 324.073L1512.33 322.277C1512.28 322.257 1512.23 322.237 1512.17 322.218L1501.82 318.683L1216.56 221.236L1094.03 179.373H1094.02L883.078 107.309C837.404 91.7045 787.874 95.4492 744.741 117.727C744.32 117.937 743.892 118.154 743.471 118.378L708.768 136.647L701.917 140.254C650.755 167.178 590.866 167.691 539.309 141.636L527.726 135.779H527.72L477.42 110.362L450.108 96.5614C405.191 73.8563 353.64 71.1909 306.874 89.1576C286.466 96.9958 265.058 100.938 243.603 100.938C228.203 100.938 212.783 98.9043 197.699 94.824L169.742 87.2622H169.729L166.55 86.4C166.55 86.4 166.537 86.3934 166.53 86.3934L158.982 84.3533L133.447 77.4496L133.434 77.443L123.891 74.8632H123.878L121.107 74.1129C89.5765 65.5837 56.506 65.9852 25.1597 75.2844L0.00641787 82.7475H-0.000169754Z" fill="url(#paint0_linear_2_834)"/>
</g>
<defs>
<filter id="filter0_d_2_834" x="-68.0001" y="0" width="1652" height="640.785" filterUnits="userSpaceOnUse" color-interpolation-filters="sRGB">
<feFlood flood-opacity="0" result="BackgroundImageFix"/>
<feColorMatrix in="SourceAlpha" type="matrix" values="0 0 0 0 0 0 0 0 0 0 0 0 0 0 0 0 0 0 127 0" result="hardAlpha"/>
<feOffset dx="-12" dy="-12"/>
<feGaussianBlur stdDeviation="28"/>
<feComposite in2="hardAlpha" operator="out"/>
<feColorMatrix type="matrix" values="0 0 0 0 0 0 0 0 0 0 0 0 0 0 0 0 0 0 0.35 0"/>
<feBlend mode="normal" in2="BackgroundImageFix" result="effect1_dropShadow_2_834"/>
<feBlend mode="normal" in="SourceGraphic" in2="effect1_dropShadow_2_834" result="shape"/>
</filter>
<linearGradient id="paint0_linear_2_834" x1="770" y1="77.7964" x2="770" y2="242.388" gradientUnits="userSpaceOnUse">
<stop stop-color="#4A1A00"/>
<stop offset="1" stop-color="#1A0D08"/>
</linearGradient>
</defs>
</svg>
