<svg width="1540" height="610" viewBox="0 0 1540 610" fill="none" xmlns="http://www.w3.org/2000/svg">
<g filter="url(#filter0_d_2_832)">
<path d="M1540 68V565.762H0V126.671L1.86248 125.98H1.86906L126.734 79.5895C142.865 73.6006 159.976 71.7711 176.758 74.16C179.719 74.5746 182.674 75.1274 185.609 75.8185C187.038 76.1475 188.459 76.5095 189.874 76.9044L254.186 94.8447L257.97 95.8977L279.694 101.959L284.9 103.413L445.981 148.35H445.988L583.134 186.606C605.523 192.852 629.143 191.299 650.683 182.164L784.084 125.612L831.238 105.625L874.213 87.408C903.368 75.0485 935.945 76.7069 963.915 91.9819C979.078 100.261 995.623 104.565 1012.28 104.756H1012.29C1012.69 104.769 1013.09 104.769 1013.5 104.769C1024.4 104.769 1035.33 103.012 1045.94 99.4647L1057.59 95.5752C1085.44 86.2563 1115.53 89.2968 1141.35 104.026L1157.61 113.292C1179.01 125.5 1203.48 129.738 1227.29 125.368L1427.99 88.5465L1442.68 85.8548L1448.89 84.7163H1448.9L1478.19 79.3394L1540 68Z" fill="#4A1A00"/>
</g>
<defs>
<filter id="filter0_d_2_832" x="-68" y="0" width="1652" height="609.762" filterUnits="userSpaceOnUse" color-interpolation-filters="sRGB">
<feFlood flood-opacity="0" result="BackgroundImageFix"/>
<feColorMatrix in="SourceAlpha" type="matrix" values="0 0 0 0 0 0 0 0 0 0 0 0 0 0 0 0 0 0 127 0" result="hardAlpha"/>
<feOffset dx="-12" dy="-12"/>
<feGaussianBlur stdDeviation="28"/>
<feComposite in2="hardAlpha" operator="out"/>
<feColorMatrix type="matrix" values="0 0 0 0 0 0 0 0 0 0 0 0 0 0 0 0 0 0 0.35 0"/>
<feBlend mode="normal" in2="BackgroundImageFix" result="effect1_dropShadow_2_832"/>
<feBlend mode="normal" in="SourceGraphic" in2="effect1_dropShadow_2_832" result="shape"/>
</filter>
</defs>
</svg>
