<svg width="145" height="126" viewBox="0 0 145 126" fill="none" xmlns="http://www.w3.org/2000/svg">
<path d="M129.961 120.557C128.792 122.399 121.781 121.195 119.611 121.69C117.547 122.154 109.234 122.239 106.009 121.515C105.826 121.477 105.645 121.431 105.467 121.375C102.76 120.502 90.2753 116.412 89.469 115.142C89.0054 114.437 87.1902 112.754 85.6944 111.426C84.5258 110.394 83.5675 109.572 83.5675 109.572L80.72 108.824L80.6655 108.804L78.6867 108.29L77.8842 108.076L68.9522 105.739L60.7097 103.565L40.6877 98.2909C40.6877 98.2909 38.7401 97.5469 38.5726 97.4339C37.3416 96.5146 23.3808 89.168 22.3602 87.8163C21.3396 86.4646 -0.166526 63.9068 0.000973304 60.7048C0.168473 57.5029 4.35985 50.6704 6.62304 46.6583C8.88623 42.6461 19.3413 29.215 20.8254 27.2673C22.3095 25.3196 24.7208 23.8511 26.162 22.9552C27.6033 22.0592 43.9715 16.9797 43.9715 16.9797C43.9715 16.9797 43.3443 16.0215 43.7494 15.332C43.8038 15.2256 43.881 15.1325 43.9754 15.0593C44.7973 14.4127 54.3798 4.09786 55.9964 3.30321C57.6129 2.50856 61.2512 0.576476 63.4365 0.093455C64.4648 -0.140265 94.2096 1.16467 94.2096 1.16467C94.2096 1.16467 118.75 13.696 119.724 14.3426C121.325 15.4255 131.281 29.4526 133.747 36.3707C134.038 37.1203 134.221 37.9071 134.293 38.7079C134.507 44.025 132.551 58.8857 131.371 60.7321C130.191 62.5785 128.714 64.5417 128.714 64.5417C128.714 64.5417 139.454 101.695 138.932 104.161C138.41 106.627 131.133 118.714 129.961 120.557Z" fill="url(#paint0_linear_3_1760)"/>
<path opacity="0.34" d="M124.441 38.6027C124.441 38.6027 99.776 28.6112 98.7321 28.4748C97.6881 28.3385 98.1244 17.8367 97.9179 16.0292C97.7115 14.2218 91.3855 1.04001 94.0343 1.43343C100.89 4.49906 118.419 13.0104 119.907 14.0231C120.503 14.4127 122.244 16.6252 124.359 19.5818C124.374 19.6017 124.387 19.6225 124.398 19.6441C127.106 23.7887 130.202 28.8449 131.916 31.6768C132.738 33.0285 133.241 33.8738 133.241 33.8738L133.178 34.2321C133.151 34.3996 133.097 34.6606 133.03 35.0424C132.832 36.1993 124.441 38.6027 124.441 38.6027Z" fill="url(#paint1_linear_3_1760)"/>
<path opacity="0.65" d="M130.409 62.3994C130.178 62.7697 129.896 63.1054 129.571 63.3966C129.472 63.4911 129.356 63.5663 129.229 63.6187C129.179 63.6066 129.127 63.6066 129.077 63.6187C128.551 63.7316 126.311 64.4873 124.301 64.5419C115.342 64.7873 95.1834 64.5419 92.1139 62.2475C88.1952 59.3182 78.1608 50.9238 75.364 51.0523C72.4581 51.1848 68.8315 47.7997 66.7709 47.6011C62.7236 47.2115 48.7628 39.0002 47.2436 38.2016C45.7244 37.4031 48.5953 30.1967 48.9459 29.5072C49.2964 28.8178 46.745 19.5235 46.745 19.5235C46.745 19.5235 58.6335 12.5781 58.5284 13.9571C58.4232 15.336 65.3958 24.4745 65.3958 24.4745L87.2487 32.6547L88.6003 22.6748L96.5741 12.582L97.7738 17.1941C97.7738 17.6654 97.5129 22.1373 97.3843 22.5852L97.5245 35.2178L109.44 43.5265C109.44 43.5265 123.982 40.4531 124.527 40.1415L125.142 39.752C127.6 38.2795 134 36.6162 134 36.6162C134 36.6162 134.219 53.0078 132.392 58.1457C131.896 59.6349 131.231 61.0621 130.409 62.3994Z" fill="#2A2038"/>
<path d="M18.8037 46.047C18.5895 46.2418 18.4532 46.3275 18.4142 46.2691C18.0403 45.6964 18.2467 45.6926 18.8037 46.047Z" fill="#5C4361"/>
<path d="M82.6833 56.5994C81.7445 57.7407 76.4507 59.6416 73.1631 60.7752C69.8754 61.9087 68.0991 65.4496 67.1837 65.8001H67.1253C66.0307 65.9754 60.2228 62.3294 58.1271 61.227C56.0314 60.1246 34.7006 56.872 33.0295 56.6111C31.3584 56.3501 30.0378 55.0529 28.207 53.6623C26.7891 52.6028 20.7163 47.2467 18.8037 46.0469C19.7425 45.2094 22.1576 42.397 24.2572 41.1739C26.8281 39.6664 37.9103 37.7421 45.1829 38.7081C52.4555 39.6742 68.0368 47.0558 72.3879 49.1437C72.8551 49.3676 73.3448 49.5412 73.8486 49.6618C77.4791 50.5265 80.2097 47.9868 81.8458 47.5856C83.6883 47.1337 83.6181 55.4619 82.6833 56.5994Z" fill="#543D59"/>
<path d="M24.7285 23.6991C26.201 25.1949 29.103 36.4486 32.4841 36.0629C35.8653 35.6773 44.8947 36.1058 44.8596 34.2866C44.8245 32.4675 42.9587 28.6034 44.7934 28.1281C46.6281 27.6529 48.716 27.3062 47.4578 26.644C46.1996 25.9818 47.2124 16.8511 43.9754 16.9485C40.7383 17.0459 34.6694 19.1961 31.6388 20.1271C28.6083 21.0581 24.7285 23.6991 24.7285 23.6991Z" fill="#6E424F"/>
<path d="M24.7286 23.6992C21.8655 25.5339 13.2373 34.166 14.328 39.2065C14.6513 40.6984 16.4276 43.3161 18.4103 43.3629C20.8955 43.4213 23.8638 40.6127 26.5555 39.8298C29.2471 39.0468 31.7012 38.5638 31.5103 38.0613C31.0117 36.7681 24.7286 23.6992 24.7286 23.6992Z" fill="#3D2B41"/>
<path d="M33.4034 56.6382C35.0979 57.09 40.3644 81.5683 44.2714 78.4248C48.1784 75.2812 67.8265 69.076 65.9684 65.9402C64.1103 62.8045 60.9045 61.5385 56.9507 59.4623C52.997 57.3861 33.4034 56.6382 33.4034 56.6382Z" fill="#2B2843"/>
<path d="M144.518 90.3714C146.286 90.3247 132.793 119.773 129.326 122.313C125.859 124.853 105.004 125.538 104.661 122.948C104.318 120.358 103.882 98.8515 103.882 98.8515C103.882 98.8515 101.381 85.0348 104.77 84.7621C108.159 84.4895 144.518 90.3714 144.518 90.3714Z" fill="url(#paint2_linear_3_1760)"/>
<path d="M44.2715 78.4248C44.2715 78.4248 35.0084 58.7845 33.4035 56.6382C31.7986 54.4919 20.9696 44.0173 18.3675 46.1208C15.7654 48.2243 7.99034 56.7395 10.1561 60.0505C12.322 63.3615 42.6198 80.1621 44.2715 78.4248Z" fill="#292138"/>
<path d="M94.2681 124.382C94.2427 124.369 94.2191 124.354 94.1979 124.335C94.1979 124.335 94.1979 124.335 94.1785 124.335C90.326 120.942 89.282 118.843 84.5492 114.511C82.8781 112.976 81.4329 111.589 80.389 110.503C80.389 110.503 80.3695 110.503 80.3695 110.483C79.3879 109.463 78.7841 108.707 78.7179 108.345C78.7179 108.345 78.7179 108.345 78.7179 108.321C78.6745 107.746 78.7059 107.167 78.8114 106.599C79.2282 103.717 80.6227 98.3998 81.6822 94.598C81.7134 94.4928 81.7407 94.3954 81.764 94.298C82.434 91.8946 82.9326 90.1651 82.9326 90.1651C83.6377 89.9002 105.615 99.4282 105.615 99.4282C105.615 100.012 105.381 115.656 105.405 123.723C105.416 126.906 95.6081 125.231 94.2681 124.382Z" fill="url(#paint3_linear_3_1760)"/>
<path d="M104.785 94.7306C105.342 96.3744 105.155 99.6465 105.155 99.6465C105.155 99.6465 82.3249 94.4034 82.2314 91.104C82.1379 87.8047 89.1378 59.1623 91.0699 60.1089C98.2529 63.638 109.553 64.9547 110.613 65.1222C114.547 65.7259 122.151 65.4844 126.194 65.0365C127.13 64.9496 128.041 64.6852 128.878 64.2574C128.878 64.2574 133.587 76.3057 136.365 79.3323C136.754 79.7219 137.144 80.24 137.596 80.8009C140.42 84.4041 144.218 90.5081 144.218 90.5081C144.218 90.5081 113.114 95.9615 110.617 95.0656C108.12 94.1697 104.248 93.0984 104.785 94.7306Z" fill="#453854"/>
<path opacity="0.33" d="M138.102 81.5877C138.102 81.5877 117.609 75.7953 116.627 74.8644C115.646 73.9334 107.567 64.5651 107.567 64.5651C108.782 65.091 110.484 64.8027 111.544 64.9546C115.505 65.5623 122.692 65.1884 126.58 64.7832C127.374 64.7305 128.155 64.5585 128.897 64.2729L132.524 72.8661L135.278 77.9066L138.102 81.5877Z" fill="#2A2038"/>
<path d="M44.2714 78.4248L40.9409 97.9443L22.5706 87.4892L9.5095 72.7259C8.53177 67.3698 9.08491 62.1423 10.4561 56.9849L44.2714 78.4248Z" fill="#2B1D36"/>
<path d="M40.9214 97.9246C39.6905 98.5518 22.5705 87.489 22.5705 87.489C22.5705 87.489 9.01868 72.8075 8.47723 71.9817C7.93578 71.1559 8.60188 57.5963 10.4561 56.9847C12.3102 56.3731 44.9336 77.5092 44.2714 78.409C43.6092 79.3088 40.9214 97.9246 40.9214 97.9246Z" fill="url(#paint4_linear_3_1760)"/>
<path opacity="0.6" d="M83.9492 22.5033C83.9492 22.5033 97.3024 12.5858 96.574 11.7717C95.8456 10.9576 91.736 1.05953 89.8896 0.950461C88.0432 0.841392 71.7335 0 71.7335 0C71.7335 0 61.9367 4.30824 62.5015 5.45346C63.0664 6.59869 64.7686 12.2352 67.4291 14.4945C70.0897 16.7538 83.9492 22.5033 83.9492 22.5033Z" fill="#69465A"/>
<path d="M130.409 62.3993L129.571 63.3965L128.89 64.2145C128.89 64.2145 128.964 63.9964 129.077 63.6264C129.544 62.1305 130.689 58.1729 130.401 56.1746C130.089 54.0555 126.775 43.3862 125.131 39.7674C127.604 38.2755 133.997 36.4097 133.997 36.4097C133.997 36.4097 134.421 37.0212 134.409 38.7469C134.378 43.7212 133.732 54.3282 132.376 58.1261C131.886 59.6213 131.226 61.0551 130.409 62.3993Z" fill="url(#paint5_linear_3_1760)"/>
<path d="M82.6833 56.5993C81.7445 57.7406 76.4507 59.6415 73.1631 60.7751C69.8754 61.9086 68.0991 65.4495 67.1837 65.8H67.1253C65.9996 65.7767 72.5788 52.7935 73.837 49.6539C77.4674 50.5187 80.198 47.9789 81.8341 47.5777C83.6883 47.1336 83.6181 55.4618 82.6833 56.5993Z" fill="#6E424F"/>
<path d="M82.0367 47.6127C82.0367 47.6127 82.8158 47.4608 83.5637 48.5982C85.9516 52.2598 90.5753 60.6738 90.474 61.2152C90.3377 61.9436 86.8708 73.4427 86.5514 74.0698C86.232 74.6969 82.6834 56.5953 82.6834 56.5953C82.9455 54.6333 83.0406 52.6526 82.9677 50.6744C82.8197 47.6867 82.0367 47.6127 82.0367 47.6127Z" fill="url(#paint6_linear_3_1760)"/>
<path d="M78.6867 108.329V108.29C78.6867 108.29 76.5404 110.059 76.2794 110.066C75.3951 110.098 69.0769 108.824 67.9862 108.676C67.9369 108.672 67.8875 108.672 67.8382 108.676C67.4487 108.676 60.7526 103.674 60.7526 103.674C60.7526 103.674 60.7214 103.608 60.7097 103.569C60.1099 102.143 59.584 94.7772 59.584 94.7772C59.6229 94.3877 77.0312 89.9392 79.232 89.3822L79.4541 89.3237L79.9059 90.2625C80.3734 91.2441 81.5614 94.7421 81.5614 94.7421L78.6867 108.329Z" fill="url(#paint7_linear_3_1760)"/>
<path d="M119.109 89.7369C119.444 89.6784 124.562 92.1481 125.22 93.0674C125.879 93.9867 122.365 108.154 123.097 109.12C123.83 110.086 121.672 108.731 121.672 108.731L122.217 103.834C122.217 103.834 124.32 94.4307 124.134 93.7062C124.116 93.481 124.054 93.2615 123.95 93.0608C123.846 92.8601 123.703 92.6822 123.53 92.5376C122.061 91.3262 119.109 89.7369 119.109 89.7369Z" fill="#2A2038"/>
<path d="M59.5995 94.7772C60.9239 94.2669 73.3383 94.0994 73.3383 94.0994L79.4968 89.203C79.4968 89.203 76.2676 80.2126 74.8692 80.2437C73.4708 80.2749 64.1531 82.1174 62.9495 84.0845C60.9668 87.3293 59.5995 94.7772 59.5995 94.7772Z" fill="#453854"/>
<path d="M14.3552 62.6138C13.7281 62.0529 9.62241 57.3746 10.2379 55.758C10.8533 54.1415 19.7425 44.407 22.4848 42.9774C25.2271 41.5478 32.5386 39.1133 34.8135 38.8211C37.0884 38.529 43.2859 38.4744 46.4995 39.9313C46.4995 39.9313 45.6114 38.0888 42.1056 37.6214C38.1116 37.048 34.0401 37.37 30.1859 38.564C25.4336 39.9547 21.3201 41.6803 20.058 42.9657C18.7959 44.2512 8.06428 55.6489 8.23567 56.3112C8.40707 56.9734 9.23677 59.926 9.79381 60.2065L14.3552 62.6138Z" fill="#2A2038"/>
<path d="M78.6516 108.372C78.6516 108.372 76.5559 110.074 76.3144 110.082C75.4302 110.113 69.1119 108.839 68.0212 108.691C68.29 107.803 68.6211 106.794 68.9873 105.743C70.783 100.531 73.354 94.0956 73.354 94.0956L79.2671 89.3823L79.5047 89.1875L79.941 90.2626L81.6783 94.5786L78.6516 108.372Z" fill="url(#paint8_linear_3_1760)"/>
<path d="M94.1628 124.319C94.1628 124.319 94.1628 124.319 94.1908 124.319C94.1908 124.319 94.1708 124.335 94.1628 124.319Z" fill="#2A2038"/>
<path opacity="0.36" d="M94.268 124.382C94.2447 124.365 94.2237 124.346 94.2057 124.323C94.7121 123.727 100.98 98.7974 100.98 98.7974L105.627 99.4128C105.627 99.9971 105.393 115.641 105.416 123.708C105.416 126.906 95.608 125.231 94.268 124.382Z" fill="#2A2038"/>
<path opacity="0.4" d="M81.4446 111.562C81.8341 111.173 83.9298 109.459 84.4323 108.119C84.9348 106.779 85.5503 93.6633 85.0478 93.6009C84.5453 93.5386 82.8002 90.9365 82.8002 90.9365C82.8002 90.9365 78.4374 108.559 78.6867 108.29C78.936 108.021 81.4446 111.562 81.4446 111.562Z" fill="url(#paint9_linear_3_1760)"/>
<path d="M124.134 93.6944C124.024 95.1045 120.791 107.951 120.978 108.497C121.165 109.042 117.367 107.515 116.421 107.675C115.474 107.834 110.765 112.415 111.641 111.847C112.518 111.278 115.883 108.528 117.441 109.007C118.999 109.486 123.771 110.588 124.356 110.888C124.94 111.188 122.287 120.183 121.703 121.437C121.399 122.095 116.557 123.135 112.374 123.462C108.509 123.759 105.424 123.361 105.401 123.462C106.106 123.817 107.586 124.129 109.226 124.121C114.742 124.094 122.669 123.618 123.549 122.929C125.193 121.659 126.276 111.375 126.342 110.362C126.408 109.35 132.754 110.191 133.743 109.634C134.733 109.077 139.423 103.557 140.506 102.323C141.285 101.423 143.232 95.5291 144.175 92.3816C144.358 91.8049 144.509 91.2184 144.627 90.6248C144.678 90.4067 144.05 92.7906 143.069 95.5213C142.173 97.9987 140.915 100.819 140.732 101.162C140.342 101.886 134.386 107.971 133.689 108.613C132.992 109.256 129.836 109.178 127.795 109.147C125.754 109.116 122.868 108.777 122.194 108.204C121.52 107.632 124.585 94.676 124.78 93.5346C124.975 92.3933 118.392 89.5302 117.414 88.9343C116.67 88.498 124.235 92.2765 124.134 93.6944Z" fill="#A23E3E"/>
<path d="M95.7366 17.7744C95.9469 17.3615 99.1606 13.7467 99.9279 13.4506C100.695 13.1546 114.574 11.5848 114.2 11.5614C113.826 11.538 100.929 11.6315 99.9981 12.0989C99.0671 12.5664 96.5819 15.9553 96.5819 15.9553L95.7366 17.7744Z" fill="#2A2038"/>
<path d="M85.6554 110.919C85.8813 111.27 82.6911 103.035 82.469 101.38C82.247 99.7243 82.5664 92.5374 82.8936 89.799C83.2208 87.0606 87.7433 70.9767 89.317 67.8682C90.8907 64.7598 92.0165 64.3313 97.1739 65.5038C102.331 66.6763 109.004 66.9334 110.574 67.4203C112.144 67.9072 117.437 67.6073 118.992 67.2294C120.546 66.8516 124.161 68.0669 125.306 67.2995C126.451 66.5322 128.379 67.206 128.379 67.206L131.433 70.1314L128.936 64.2495C128.936 64.2495 126.498 65.8699 124.722 65.8076C122.945 65.7453 119.689 63.5016 118.715 64.5261C117.741 65.5505 117.706 66.2205 115.435 66.2244C113.164 66.2283 100.497 64.3547 97.7309 63.2406C94.9652 62.1265 92.0165 59.8945 89.7611 61.9551C87.5057 64.0158 81.094 88.011 80.7356 90.2158C80.3772 92.4205 81.0122 102.502 81.2186 103.296C81.4251 104.091 85.484 110.658 85.6554 110.919Z" fill="#2A2038"/>
<path d="M59.6229 94.8204C59.6229 94.8204 62.2172 94.536 64.7258 94.3296C64.5233 94.3296 64.3363 94.3296 64.1026 94.3296C62.6 94.392 61.1034 94.556 59.6229 94.8204Z" fill="url(#paint10_linear_3_1760)"/>
<path d="M108.599 8.7334C106.398 8.80351 97.7738 10.2682 96.5818 12.5586C95.3899 14.8491 90.4934 21.662 90.1234 23.0994C89.7533 24.5368 88.8535 30.594 89.0561 32.3313C89.2586 34.0686 104.248 57.799 104.088 58.5547C103.928 59.3104 102.795 61.2814 100.582 62.4851C101.023 62.8746 106.083 63.7783 106.083 63.7783C106.083 63.7783 104.606 62.7188 105.49 60.479C106.375 58.2392 97.8322 43.7875 97.1817 42.5916C96.5312 41.3958 90.9726 33.831 91.2102 31.9846C91.4478 30.1382 93.6565 25.7794 93.7772 23.4772C93.898 21.1751 97.283 13.104 100.282 12.7066C103.282 12.3093 114.493 11.503 114.493 11.503L108.599 8.7334Z" fill="#EF823D"/>
<path opacity="0.43" d="M90.1662 34.7075C90.1662 34.7075 83.3065 43.5772 84.6582 45.8949C86.0099 48.2126 88.8457 57.5459 90.0026 57.4407C91.1595 57.3355 104.076 58.5781 104.076 58.5781C104.076 58.5781 100.528 51.921 97.2752 46.8259C94.0226 41.7308 90.1662 34.7075 90.1662 34.7075Z" fill="url(#paint11_linear_3_1760)"/>
<path d="M38.7478 17.9612C40.0138 18.3858 42.7483 20.0413 43.282 22.955C43.8156 25.8687 45.3816 28.019 44.061 28.28C42.7405 28.5409 43.0171 28.167 43.0132 28.8409C43.0093 29.5148 44.1156 32.9738 41.4551 34.6839C38.7945 36.3939 46.4138 35.1357 46.2346 34.4463C46.0554 33.7568 47.8317 26.9088 47.8317 26.9088C47.8317 26.9088 45.9659 19.5934 45.8568 19.2272C45.7477 18.861 44.509 17.1081 43.9714 16.9796C43.4339 16.8511 38.7478 17.9612 38.7478 17.9612Z" fill="#653646"/>
<path d="M105.537 117.393C105.537 117.393 98.3503 122.964 95.7989 122.403C92.1801 121.6 89.4846 114.558 88.2498 113.443C85.5503 111.06 82.1185 102.965 82.0834 100.293C82.0562 98.0374 81.6939 93.9902 82.7807 88.7782C85.0517 78.031 89.8702 64.113 90.7934 63.1976C92.1568 61.8381 96.8039 63.9104 99.0827 64.5687C101.361 65.227 114.777 67.1435 116.425 67.1007C118.072 67.0578 118.649 66.3022 119.424 65.5659C120.199 64.8297 124.262 66.5164 125.431 66.2203C126.599 65.9243 128.691 64.4168 128.936 64.2727C127.427 64.7485 125.839 64.9219 124.262 64.783C122.034 64.6194 119.346 63.3105 118.622 63.6533C118.201 63.8559 118.555 65.9087 114.045 65.0946C110.788 64.5025 106.098 64.2688 93.7889 59.4542C91.1011 58.4024 86.3099 61.5927 85.2192 60.6033C84.1285 59.6139 83.6026 58.3713 83.252 56.6651C82.6249 53.5878 83.3416 48.5433 82.1536 47.7058C80.9655 46.8683 77.4246 50.2222 73.8137 49.6535C72.0763 49.3808 53.3554 40.3047 51.7544 39.4555C50.1534 38.6063 46.8463 33.8891 46.745 32.9347C46.6437 31.9804 49.125 28.237 49.7171 27.8708C50.3092 27.5046 48.2603 25.9543 47.9876 24.9026C47.8045 24.1858 46.819 20.2515 45.7166 18.1247C45.1791 17.0885 44.4078 16.8899 44.065 16.9288L43.2859 17.1353C43.2859 17.1353 45.1596 17.3846 45.553 20.5515C45.6037 20.941 46.0906 23.843 46.262 26.0283C46.3671 27.4228 44.026 28.7161 43.6833 28.2564C43.3405 27.7968 43.1808 28.2564 43.0522 28.8485C42.9237 29.4406 45.0544 32.4985 43.8313 33.4333C42.2462 34.6243 40.3868 35.3973 38.4246 35.6809C36.0484 36.0043 25.3557 39.3114 21.2851 41.1617C19.4971 41.9797 17.1444 45.4894 14.4839 48.5628C11.1261 52.4309 7.56574 55.9639 7.28138 56.4119C7.12946 56.6651 4.765 58.5154 4.05605 58.5816C3.52274 58.637 2.98373 58.5853 2.47065 58.4297C1.77191 58.153 1.18529 57.6513 0.803445 57.004L0.316528 58.2271C1.04851 58.499 1.80331 58.705 2.57193 58.8426C4.35209 59.0335 7.16842 58.3401 7.30865 58.196C8.57853 56.8832 9.64585 60.798 10.1328 61.3122C10.6197 61.8264 37.9026 80.2747 39.7957 81.568C41.6889 82.8612 39.3789 96.6039 39.3439 97.344C39.3088 98.0842 40.1853 98.6607 40.9293 98.4893C41.6733 98.3179 42.0238 90.5116 43.3677 85.958C45.1245 80.0137 54.7927 75.6977 58.5323 72.8502C62.2718 70.0027 66.6618 70.5636 68.5394 68.9549C70.4169 67.3461 71.718 63.5014 73.1787 62.2549C74.6395 61.0084 79.8008 58.8893 81.0746 59.8164C82.3483 60.7435 83.8675 64.6622 83.2131 65.8035C82.5587 66.9449 80.4162 65.8035 79.5281 66.9254C78.64 68.0473 85.8502 68.2615 85.6087 71.5219C85.3672 74.7823 79.7462 88.4549 79.5476 89.3041C79.493 89.53 77.2377 90.9051 75.4575 92.3113C74.2889 93.2267 73.1514 94.3096 72.8126 94.3018C71.9439 94.3018 70.1832 94.2161 69.0652 94.1187C67.6185 94.1043 66.1722 94.1745 64.7336 94.3291C65.9221 94.2911 67.1111 94.3865 68.2784 94.6134C68.2784 94.6134 71.5738 94.7653 72.8632 95.2484C73.3696 95.4392 77.2454 92.2723 78.7607 91.949C80.759 91.5244 80.4123 97.2545 80.2059 99.0074C79.844 101.272 79.2809 103.5 78.5231 105.664C77.9455 107.146 77.2755 108.59 76.517 109.988L78.7179 108.36C79.3255 107.928 79.6917 105.174 81.207 105.181C82.7223 105.189 86.75 114.92 87.385 115.208C89.1028 116.007 93.8279 124.241 95.2652 124.456C96.7026 124.67 105.44 118.305 105.44 118.305L105.537 117.393ZM80.9966 55.6095C80.0306 57.1403 74.6278 59.7736 72.1542 61.0279C70.9545 61.6355 70.3819 62.6405 70.1248 62.5042C69.3457 62.0874 69.4041 61.4369 69.0497 60.4942C68.6952 59.5515 71.8348 55.5822 71.0635 56.1198C70.2923 56.6573 67.2539 61.2655 67.9473 61.8303C68.6406 62.3951 69.4041 62.8898 68.8744 63.9338C68.3446 64.9777 67.4759 64.7596 65.9529 65.4608C65.7815 65.5426 65.4582 66.9994 64.5544 67.6149C61.1421 69.9521 53.4255 74.1474 51.3103 75.1562C47.9058 76.7923 44.9064 79.2113 43.7456 78.9152C42.1212 78.5062 11.3208 61.2811 10.6898 60.2683C10.0588 59.2555 8.72266 56.2171 8.87847 55.9834C9.57963 54.8888 12.4388 51.5817 15.111 48.9056C15.8394 48.1772 19.575 43.604 25.2389 40.9669C30.9027 38.3298 38.5648 37.6091 41.5564 38.4311C47.5591 40.0788 60.0203 44.2 60.9591 44.6636C71.5154 49.9301 71.9439 52.6295 72.4892 52.5399C73.0346 52.4504 79.7813 50.0898 80.5292 50.53C81.7251 51.2389 81.9627 54.0786 81.0005 55.6095H80.9966Z" fill="url(#paint12_linear_3_1760)"/>
<defs>
<linearGradient id="paint0_linear_3_1760" x1="92.1277" y1="1.71395" x2="63.8389" y2="102.641" gradientUnits="userSpaceOnUse">
<stop stop-color="#453041"/>
<stop offset="0.09" stop-color="#412E40"/>
<stop offset="1" stop-color="#1E1B38"/>
</linearGradient>
<linearGradient id="paint1_linear_3_1760" x1="88.989" y1="10.8633" x2="133.874" y2="34.0624" gradientUnits="userSpaceOnUse">
<stop stop-color="#704556"/>
<stop offset="1" stop-color="#4F3F5F" stop-opacity="0.98"/>
</linearGradient>
<linearGradient id="paint2_linear_3_1760" x1="106.162" y1="104.489" x2="140.011" y2="101.845" gradientUnits="userSpaceOnUse">
<stop offset="0.01" stop-color="#211931"/>
<stop offset="0.41" stop-color="#2A203B"/>
<stop offset="1" stop-color="#332846"/>
</linearGradient>
<linearGradient id="paint3_linear_3_1760" x1="99.4092" y1="100.532" x2="85.934" y2="118.691" gradientUnits="userSpaceOnUse">
<stop offset="0.01" stop-color="#33273F"/>
<stop offset="0.76" stop-color="#41283C"/>
<stop offset="1" stop-color="#46293B"/>
</linearGradient>
<linearGradient id="paint4_linear_3_1760" x1="29.1781" y1="67.8618" x2="21.228" y2="88.9465" gradientUnits="userSpaceOnUse">
<stop offset="0.01" stop-color="#33273F" stop-opacity="0"/>
<stop offset="0.24" stop-color="#34273F" stop-opacity="0.06"/>
<stop offset="0.48" stop-color="#38273E" stop-opacity="0.25"/>
<stop offset="0.73" stop-color="#3D283D" stop-opacity="0.55"/>
<stop offset="0.99" stop-color="#46293B" stop-opacity="0.98"/>
<stop offset="1" stop-color="#46293B"/>
</linearGradient>
<linearGradient id="paint5_linear_3_1760" x1="129.912" y1="38.6173" x2="130.876" y2="62.4203" gradientUnits="userSpaceOnUse">
<stop offset="0.01" stop-color="#211931"/>
<stop offset="0.12" stop-color="#221A32" stop-opacity="0.95"/>
<stop offset="1" stop-color="#2A2038" stop-opacity="0.65"/>
</linearGradient>
<linearGradient id="paint6_linear_3_1760" x1="77.2204" y1="57.3382" x2="91.5836" y2="64.7619" gradientUnits="userSpaceOnUse">
<stop offset="0.01" stop-color="#211931"/>
<stop offset="0.12" stop-color="#221A32" stop-opacity="0.95"/>
<stop offset="1" stop-color="#2A2038" stop-opacity="0.65"/>
</linearGradient>
<linearGradient id="paint7_linear_3_1760" x1="74.7978" y1="88.7389" x2="66.4468" y2="108.228" gradientUnits="userSpaceOnUse">
<stop stop-color="#312644"/>
<stop offset="1" stop-color="#1E1B38"/>
</linearGradient>
<linearGradient id="paint8_linear_3_1760" x1="80.5249" y1="91.0533" x2="72.1486" y2="110.609" gradientUnits="userSpaceOnUse">
<stop offset="0.01" stop-color="#211931"/>
<stop offset="0.12" stop-color="#221A32" stop-opacity="0.95"/>
<stop offset="1" stop-color="#2A2038" stop-opacity="0.65"/>
</linearGradient>
<linearGradient id="paint9_linear_3_1760" x1="86.2963" y1="93.7156" x2="79.0209" y2="110.699" gradientUnits="userSpaceOnUse">
<stop stop-color="#312644"/>
<stop offset="1" stop-color="#1E1B38"/>
</linearGradient>
<linearGradient id="paint10_linear_3_1760" x1="88.8657" y1="38.8448" x2="55.2244" y2="109.501" gradientUnits="userSpaceOnUse">
<stop offset="0.01" stop-color="#F58F3D"/>
<stop offset="0.09" stop-color="#F5873B"/>
<stop offset="0.39" stop-color="#F66A36"/>
<stop offset="0.57" stop-color="#F65F34"/>
<stop offset="0.71" stop-color="#D04D33"/>
<stop offset="0.99" stop-color="#7D2730"/>
</linearGradient>
<linearGradient id="paint11_linear_3_1760" x1="84.8556" y1="43.5941" x2="106.343" y2="54.7" gradientUnits="userSpaceOnUse">
<stop stop-color="#704556"/>
<stop offset="1" stop-color="#4F3F5F" stop-opacity="0.98"/>
</linearGradient>
<linearGradient id="paint12_linear_3_1760" x1="79.382" y1="32.7825" x2="45.1048" y2="104.762" gradientUnits="userSpaceOnUse">
<stop offset="0.01" stop-color="#F58F3D"/>
<stop offset="0.09" stop-color="#F5873B"/>
<stop offset="0.39" stop-color="#F66A36"/>
<stop offset="0.57" stop-color="#F65F34"/>
<stop offset="0.71" stop-color="#D04D33"/>
<stop offset="0.99" stop-color="#7D2730"/>
</linearGradient>
</defs>
</svg>
