<svg width="179" height="193" viewBox="0 0 179 193" fill="none" xmlns="http://www.w3.org/2000/svg">
<g filter="url(#filter0_d_2_8266)">
<path d="M91.4745 72.458C91.0473 73.4916 90.6701 74.555 90.345 75.6426C90.2389 76.1579 92.8844 80.9656 93.3973 80.5182C93.9102 80.0707 98.4507 79.4319 98.999 78.6358C99.5473 77.8397 100.889 77.1608 100.237 75.766C99.5852 74.3712 91.4745 72.458 91.4745 72.458Z" fill="url(#paint0_linear_2_8266)"/>
<path d="M72.0618 138.291C78.4847 139.526 87.9219 140.164 88.0457 143.053C88.1695 145.941 90.532 150.332 105.005 146.919C111.542 145.376 115.486 141.584 120.794 139.236C123.354 138.103 127.821 137.967 130.075 137.366C133.001 136.588 134.239 135.341 134.474 134.792C135.79 131.706 131.442 130.018 126.654 128.265C126.343 128.151 122.821 125.436 121.408 125.297C116.32 124.785 72.0618 138.291 72.0618 138.291Z" fill="#F9883A"/>
<path d="M87.4014 139.822C92.475 140.933 89.582 141.608 93.1497 145.271C95.5854 147.777 103.292 145.904 110.599 144.194C113.98 143.401 122.27 137.659 124.837 136.73C127.594 135.736 130.992 135.017 132.069 134.138C133.782 132.74 133.648 131.635 129.767 130.561C126.735 129.722 105.907 126.917 101.561 126.223C97.2151 125.528 73.9315 129.438 70.5761 130.626C68.0494 131.518 65.8815 135.955 71.7232 138.341C73.6713 139.124 86.8279 139.698 87.4014 139.822Z" fill="url(#paint1_linear_2_8266)"/>
<path d="M74.9043 90.6772C73.6232 90.1711 79.8314 129.938 82.0448 133.94C84.2582 137.943 99.335 144.096 99.8985 140.985C100.462 137.875 103.421 111.454 103.421 111.454C103.421 111.454 106.93 95.0343 104.5 93.837C102.069 92.6397 74.9043 90.6772 74.9043 90.6772Z" fill="url(#paint2_linear_2_8266)"/>
<path d="M128.862 87.715C128.862 87.715 126.841 115.932 126.8 119.595C126.8 120.098 123.586 133.549 123.473 134.021L113.459 140.914C111.341 142.467 109.156 143.881 106.915 145.151C106.915 145.151 106.915 145.151 106.898 145.151C106.881 145.168 106.862 145.18 106.842 145.188C105.753 145.892 98.8146 141.556 98.8146 141.556L101.872 108.748C101.872 108.748 120.484 93.6028 126.795 88.9987C128.023 88.1285 128.784 87.6348 128.862 87.715Z" fill="url(#paint3_linear_2_8266)"/>
<path opacity="0.42" d="M106.849 145.21C106.873 145.194 106.895 145.174 106.915 145.151C106.832 144.911 106.769 109.479 106.769 109.479L101.897 108.862L98.8297 141.575C98.8297 141.575 105.76 145.914 106.849 145.21Z" fill="url(#paint4_linear_2_8266)"/>
<path d="M98.476 104.965C98.476 104.965 98.6781 141.995 98.8221 141.578C98.9661 141.161 101.425 109.047 101.879 108.77C102.334 108.492 104.858 105.965 103.33 104.394C101.801 102.823 98.476 104.965 98.476 104.965Z" fill="#2A2038"/>
<path opacity="0.47" d="M128.862 87.715C128.862 87.715 126.841 115.932 126.8 119.595C126.8 120.098 123.586 133.549 123.473 134.021C123.377 133.351 119.65 107.174 119.65 107.174C119.65 107.174 118.783 108.816 121.446 101.962C122.947 98.1111 125.075 92.7943 126.808 89.0018C128.023 88.1285 128.784 87.6348 128.862 87.715Z" fill="url(#paint5_linear_2_8266)"/>
<path d="M102.756 106.029C102.15 107.914 101.796 108.806 101.796 108.806C101.796 108.806 119.122 111.309 119.594 107.263C120.067 103.218 129.987 89.7637 128.943 87.6592C126.586 82.8947 120.031 76.3868 120.031 76.3868L119.665 76.1707L116.901 75.5536L116.8 74.8099C116.8 74.8099 102.544 68.0427 102.14 68.0057C100.657 67.8761 95.9973 69.9806 91.4745 72.4523C90.9035 72.7609 98.4861 76.7725 97.9252 77.0811C97.296 77.4421 88.5258 74.1125 87.927 74.4735C84.9329 76.288 82.4567 78.0191 81.6734 79.0128C81.3525 79.417 80.9887 79.9385 80.597 80.5125C78.1107 84.2401 74.6062 90.8098 74.6062 90.8098C74.6062 90.8098 96.5557 105.44 98.476 104.964C100.396 104.489 103.36 104.144 102.756 106.029Z" fill="url(#paint6_linear_2_8266)"/>
<path d="M104.404 83.7926C104.404 84.0765 114.622 88.3349 115.708 88.7021C116.795 89.0693 125.815 93.4913 126.32 94.2257C126.826 94.9602 127.419 101.058 127.018 100.647C126.616 100.237 116.191 90.856 112.615 89.668C109.04 88.4799 104.56 85.7058 104.136 84.5332C103.711 83.3606 104.404 83.7926 104.404 83.7926Z" fill="url(#paint7_linear_2_8266)"/>
<path d="M101.938 108.288C102.152 107.291 112.262 91.3159 112.262 91.3159C112.262 91.3159 112.262 90.4117 111.847 90.5629C111.433 90.7142 98.2461 104.758 98.476 104.961C98.7059 105.165 101.938 108.288 101.938 108.288Z" fill="#2A2038"/>
<path d="M79.4373 99.8264C79.4145 99.3265 79.0583 93.0747 79.5636 92.5408C80.069 92.007 96.9297 83.9006 98.1147 82.8113C99.2997 81.722 105.288 78.1239 106.814 77.658C108.737 77.0717 116.668 74.8252 116.668 74.8252L116.777 75.5072C116.777 75.5072 97.5007 86.1069 96.3309 86.721C95.161 87.3351 80.5541 93.4944 80.218 94.5065C79.882 95.5187 79.4373 99.8264 79.4373 99.8264Z" fill="#2A2038"/>
<path d="M102.837 81.4504C104.237 79.9661 117.717 75.2602 117.717 75.2602C118.168 75.1966 118.626 75.2406 119.064 75.3898C119.569 75.612 120.16 76.1212 119.822 76.3156C119.104 76.7105 103.58 81.7589 104.409 83.7987C105.237 85.8384 125.08 92.9327 126.464 96.6819C127.849 100.431 126.439 120.393 125.843 123.572C125.843 123.572 126.689 101.9 124.362 98.9099C123.152 97.367 114.94 90.6245 113.146 91.4237C111.352 92.2229 102.152 107.704 102.152 107.704C103.405 104.454 104.823 101.304 106.4 98.2711C109.028 93.2073 108.861 93.3338 109.108 91.8588C109.356 90.3838 104.095 85.2058 103.272 85.2613C100.833 85.4156 82.0347 91.865 81.4384 95.0434C80.8421 98.2217 81.1428 105.174 81.8048 109.315C82.4668 113.456 85.0541 120.116 85.5241 125.223C85.6908 127.037 86.5727 134.073 86.7874 135.588C87.2246 138.775 89.1828 138.982 89.6249 139.331C90.4916 140.044 83.4168 136.424 83.1641 135.409C81.6734 128.981 74.068 111.574 74.068 111.574C74.068 111.574 76.3673 108.099 76.7589 107.686C77.1506 107.272 79.743 107.297 79.7632 104.569C79.7834 101.841 79.5105 95.6204 80.2534 93.8183C80.9962 92.0162 95.6309 86.4123 97.622 85.1009C99.613 83.7894 102.837 81.4504 102.837 81.4504Z" fill="url(#paint8_linear_2_8266)"/>
<path d="M100.755 92.1309C95.4969 93.4084 87.126 97.5866 86.5372 98.5555C85.9485 99.5245 88.8441 128.815 88.8441 128.815L89.0336 112.738C89.0336 112.738 88.6546 100.601 88.882 99.759C88.9427 99.5276 100.755 92.1309 100.755 92.1309Z" fill="#2A2038"/>
<path d="M99.7343 142.066C99.2087 141.914 99.2669 137.27 99.5448 134.66C99.8227 132.049 100.694 122.147 100.737 120.104C100.78 118.061 101.885 110.563 101.665 111.504C101.445 112.445 99.1532 137.656 98.6984 139.171C98.4735 139.918 96.3056 140.662 93.7738 140.39C91.1839 140.112 88.2959 138.754 88.2959 138.754C88.2959 138.754 96.7932 143.192 97.9429 142.744C99.0925 142.297 99.7343 142.066 99.7343 142.066Z" fill="#F88A3B"/>
<path d="M83.3688 137.415V137.39C83.3688 137.39 81.8704 139.346 81.6809 139.368C81.0341 139.442 76.3294 138.405 75.5208 138.3C75.4678 138.3 75.4299 138.3 75.4122 138.3C75.1342 138.328 69.9772 133.384 69.9772 133.384C69.9772 133.384 69.952 133.32 69.9393 133.276C69.434 131.811 68.7139 124.102 68.7139 124.102C68.7265 123.68 81.3196 118.199 82.9165 117.511L83.0782 117.437C83.0782 117.437 83.2222 117.81 83.4547 118.403C83.8413 119.409 84.9126 122.874 84.9126 122.874L83.3688 137.415Z" fill="url(#paint9_linear_2_8266)"/>
<path d="M68.7113 124.09C69.6613 123.495 78.7802 122.732 78.7802 122.732L83.0756 117.286C83.0756 117.286 80.2963 108.029 79.2704 108.127C78.2446 108.226 71.4755 110.596 70.6796 112.722C69.3784 116.209 68.7113 124.09 68.7113 124.09Z" fill="url(#paint10_linear_2_8266)"/>
<path d="M83.3334 137.461C83.3334 137.461 81.8679 139.346 81.6784 139.368C81.0316 139.442 76.3269 138.405 75.5183 138.3C75.675 137.353 75.8746 136.282 76.0944 135.159C77.1784 129.604 78.7803 122.729 78.7803 122.729L82.9115 117.502L83.0807 117.286L83.4496 118.393L84.9328 122.843L83.3334 137.461Z" fill="url(#paint11_linear_2_8266)"/>
<path d="M126.535 116.395C126.333 121.388 125.974 124.301 126.27 126.356C126.565 128.411 129.302 129.25 129.302 129.25C129.302 129.25 127.162 128.325 125.787 128.633C125.303 128.727 124.858 129.016 124.524 129.454C124.814 128.991 126.212 120.582 126.04 114.071C125.868 107.56 126.737 111.405 126.535 116.395Z" fill="url(#paint12_linear_2_8266)"/>
<path d="M103.09 85.0176C106.839 86.0668 120.089 93.3153 122.881 95.2008C123.867 95.8673 124.726 96.0494 125.095 96.5956C126.725 99.0148 126.917 104.548 126.909 104.594C126.901 104.64 126.578 96.9628 126.386 96.6264C124.943 94.093 119.384 91.6336 114.763 89.4272C110.48 87.3844 103.09 85.0176 103.09 85.0176Z" fill="url(#paint13_linear_2_8266)"/>
</g>
<defs>
<filter id="filter0_d_2_8266" x="0" y="0" width="178.712" height="192.162" filterUnits="userSpaceOnUse" color-interpolation-filters="sRGB">
<feFlood flood-opacity="0" result="BackgroundImageFix"/>
<feColorMatrix in="SourceAlpha" type="matrix" values="0 0 0 0 0 0 0 0 0 0 0 0 0 0 0 0 0 0 127 0" result="hardAlpha"/>
<feOffset dx="-12" dy="-12"/>
<feGaussianBlur stdDeviation="28"/>
<feComposite in2="hardAlpha" operator="out"/>
<feColorMatrix type="matrix" values="0 0 0 0 0 0 0 0 0 0 0 0 0 0 0 0 0 0 0.35 0"/>
<feBlend mode="normal" in2="BackgroundImageFix" result="effect1_dropShadow_2_8266"/>
<feBlend mode="normal" in="SourceGraphic" in2="effect1_dropShadow_2_8266" result="shape"/>
</filter>
<linearGradient id="paint0_linear_2_8266" x1="90.4009" y1="76.72" x2="100.433" y2="76.3093" gradientUnits="userSpaceOnUse">
<stop stop-color="#31223F"/>
<stop offset="0.99" stop-color="#2C1F3B"/>
</linearGradient>
<linearGradient id="paint1_linear_2_8266" x1="68.0302" y1="138.367" x2="133.179" y2="135.7" gradientUnits="userSpaceOnUse">
<stop stop-color="#FD903D"/>
<stop offset="0.3" stop-color="#FD953D" stop-opacity="0.99"/>
<stop offset="0.56" stop-color="#FDA53F" stop-opacity="0.94"/>
<stop offset="0.82" stop-color="#FDBE41" stop-opacity="0.87"/>
<stop offset="1" stop-color="#FDD743" stop-opacity="0.8"/>
</linearGradient>
<linearGradient id="paint2_linear_2_8266" x1="89.9058" y1="91.6058" x2="92.7563" y2="138.286" gradientUnits="userSpaceOnUse">
<stop stop-color="#31223F"/>
<stop offset="0.99" stop-color="#2C1F3B"/>
</linearGradient>
<linearGradient id="paint3_linear_2_8266" x1="115.927" y1="95.9876" x2="109.084" y2="146.09" gradientUnits="userSpaceOnUse">
<stop offset="0.01" stop-color="#33273F"/>
<stop offset="0.76" stop-color="#41283C"/>
<stop offset="1" stop-color="#46293B"/>
</linearGradient>
<linearGradient id="paint4_linear_2_8266" x1="105.155" y1="109.608" x2="101.435" y2="144.808" gradientUnits="userSpaceOnUse">
<stop stop-color="#31223F"/>
<stop offset="0.99" stop-color="#2C1F3B"/>
</linearGradient>
<linearGradient id="paint5_linear_2_8266" x1="123.824" y1="132.405" x2="124.477" y2="91.9339" gradientUnits="userSpaceOnUse">
<stop offset="0.01" stop-color="#211931"/>
<stop offset="0.41" stop-color="#2A203B"/>
<stop offset="1" stop-color="#332846"/>
</linearGradient>
<linearGradient id="paint6_linear_2_8266" x1="74.5778" y1="90.9672" x2="129.081" y2="88.7358" gradientUnits="userSpaceOnUse">
<stop offset="0.01" stop-color="#33334F"/>
<stop offset="0.45" stop-color="#603E4A"/>
<stop offset="0.8" stop-color="#7D4446"/>
<stop offset="1" stop-color="#884745"/>
</linearGradient>
<linearGradient id="paint7_linear_2_8266" x1="104.371" y1="93.0673" x2="126.829" y2="92.1479" gradientUnits="userSpaceOnUse">
<stop stop-color="#31223F"/>
<stop offset="0.99" stop-color="#2C1F3B"/>
</linearGradient>
<linearGradient id="paint8_linear_2_8266" x1="73.883" y1="109.326" x2="127.251" y2="107.141" gradientUnits="userSpaceOnUse">
<stop stop-color="#FD903D"/>
<stop offset="0.29" stop-color="#FD8C3C"/>
<stop offset="0.56" stop-color="#FC813A"/>
<stop offset="0.82" stop-color="#FB6F37"/>
<stop offset="1" stop-color="#FA5D34"/>
</linearGradient>
<linearGradient id="paint9_linear_2_8266" x1="80.0989" y1="117.223" x2="71.5252" y2="136.375" gradientUnits="userSpaceOnUse">
<stop stop-color="#31223F"/>
<stop offset="0.99" stop-color="#2C1F3B"/>
</linearGradient>
<linearGradient id="paint10_linear_2_8266" x1="68.2863" y1="116.536" x2="82.9457" y2="115.935" gradientUnits="userSpaceOnUse">
<stop offset="0.01" stop-color="#33334F"/>
<stop offset="0.34" stop-color="#3E334A"/>
<stop offset="0.91" stop-color="#5A323B"/>
<stop offset="1" stop-color="#5F3239"/>
</linearGradient>
<linearGradient id="paint11_linear_2_8266" x1="84.3845" y1="119" x2="75.7764" y2="138.229" gradientUnits="userSpaceOnUse">
<stop offset="0.01" stop-color="#211931"/>
<stop offset="0.12" stop-color="#221A32" stop-opacity="0.95"/>
<stop offset="1" stop-color="#2A2038" stop-opacity="0.65"/>
</linearGradient>
<linearGradient id="paint12_linear_2_8266" x1="127.112" y1="110.94" x2="126.793" y2="127.557" gradientUnits="userSpaceOnUse">
<stop stop-color="#FA5F34"/>
<stop offset="0.33" stop-color="#FA6335"/>
<stop offset="0.62" stop-color="#FA6E36"/>
<stop offset="0.91" stop-color="#F98039"/>
<stop offset="1" stop-color="#F9883A"/>
</linearGradient>
<linearGradient id="paint13_linear_2_8266" x1="103.534" y1="95.6953" x2="126.5" y2="94.755" gradientUnits="userSpaceOnUse">
<stop stop-color="#FD903D"/>
<stop offset="0.3" stop-color="#FD953D" stop-opacity="0.99"/>
<stop offset="0.56" stop-color="#FDA53F" stop-opacity="0.94"/>
<stop offset="0.82" stop-color="#FDBE41" stop-opacity="0.87"/>
<stop offset="1" stop-color="#FDD743" stop-opacity="0.8"/>
</linearGradient>
</defs>
</svg>
