<svg width="1540" height="627" viewBox="0 0 1540 627" fill="none" xmlns="http://www.w3.org/2000/svg">
<g opacity="0.6">
<path fill-rule="evenodd" clip-rule="evenodd" d="M299.343 136.653L303.815 143.764L310.99 139.42L305.617 145.887L311.988 151.39L304.169 148.268L300.919 155.991L301.466 147.625L293.1 146.917L301.241 144.826L299.343 136.653Z" fill="#2A1E38"/>
<path fill-rule="evenodd" clip-rule="evenodd" d="M247.861 6.9179L243.742 5.66302L242.423 9.74941L242.359 5.46997H238.079L242.101 4.05421L240.782 0L243.388 3.41068L246.831 0.900935L244.386 4.40815L247.861 6.9179Z" fill="#2A1E38"/>
<path fill-rule="evenodd" clip-rule="evenodd" d="M357.55 54.4103L356.102 55.9225L357.582 57.3705L355.716 56.4695L354.783 58.3036L355.072 56.2765L353.013 55.9547L355.072 55.5686L354.75 53.5415L355.716 55.3756L357.55 54.4103Z" fill="#2A1E38"/>
<path fill-rule="evenodd" clip-rule="evenodd" d="M174.499 18.3403L173.373 24.6147L179.615 25.8696L173.308 26.7383L174.081 33.0449L171.281 27.3175L165.522 29.9881L170.091 25.58L165.779 20.9144L171.378 23.9068L174.499 18.3403Z" fill="#2A1E38"/>
<path fill-rule="evenodd" clip-rule="evenodd" d="M454.722 181.731L455.526 192.414L466.209 191.835L456.299 195.889L460.16 205.864L453.242 197.691L444.94 204.448L450.571 195.342L441.594 189.55L451.987 192.092L454.722 181.731Z" fill="#2A1E38"/>
<path fill-rule="evenodd" clip-rule="evenodd" d="M293.615 220.568L299.729 226.328L305.617 220.343L302.013 227.937L309.543 231.669L301.209 230.608L299.954 238.909L298.41 230.64L290.14 232.023L297.509 228.001L293.615 220.568Z" fill="#2A1E38"/>
<path fill-rule="evenodd" clip-rule="evenodd" d="M459.741 450.918L455.462 450.725L455.205 455.004L454.046 450.886L449.928 451.948L453.467 449.599L451.182 445.963L454.529 448.634L457.264 445.352L455.784 449.341L459.741 450.918Z" fill="#2A1E38"/>
<path fill-rule="evenodd" clip-rule="evenodd" d="M351.243 188.585L351.726 194.924L358.064 194.57L352.176 196.983L354.461 202.936L350.374 198.077L345.419 202.099L348.765 196.661L343.424 193.218L349.602 194.731L351.243 188.585Z" fill="#2A1E38"/>
<path fill-rule="evenodd" clip-rule="evenodd" d="M547.261 104.573L547.904 112.874L556.206 112.424L548.484 115.577L551.508 123.332L546.135 116.993L539.667 122.238L544.043 115.159L537.029 110.622L545.137 112.617L547.261 104.573Z" fill="#2A1E38"/>
<path fill-rule="evenodd" clip-rule="evenodd" d="M342.234 538.502L340.786 546.707L348.959 548.348L340.689 549.474L341.687 557.776L338.051 550.246L330.457 553.753L336.474 547.962L330.811 541.848L338.179 545.774L342.234 538.502Z" fill="#2A1E38"/>
<path fill-rule="evenodd" clip-rule="evenodd" d="M449.509 105.731L452.984 111.266L458.615 107.855L454.4 112.907L459.355 117.186L453.274 114.773L450.732 120.79L451.183 114.258L444.651 113.711L450.989 112.102L449.509 105.731Z" fill="#2A1E38"/>
<path fill-rule="evenodd" clip-rule="evenodd" d="M475.025 67.2162L471.84 66.2509L470.81 69.4364L470.746 66.09H467.399L470.553 64.996L469.523 61.8428L471.518 64.4812L474.221 62.5185L472.322 65.2856L475.025 67.2162Z" fill="#2A1E38"/>
<path fill-rule="evenodd" clip-rule="evenodd" d="M27.6142 130.314L26.7454 135.205L31.604 136.17L26.681 136.846L27.2924 141.769L25.1044 137.296L20.5997 139.388L24.2035 135.945L20.825 132.309L25.2009 134.626L27.6142 130.314Z" fill="#2A1E38"/>
<path fill-rule="evenodd" clip-rule="evenodd" d="M538.477 190.58L537.318 196.983L543.689 198.238L537.254 199.139L538.026 205.574L535.195 199.75L529.307 202.453L533.972 197.948L529.564 193.186L535.291 196.243L538.477 190.58Z" fill="#2A1E38"/>
<path fill-rule="evenodd" clip-rule="evenodd" d="M42.3187 188.939L42.9301 197.24L51.2637 196.79L43.5414 199.943L46.566 207.73L41.1604 201.359L34.6929 206.636L39.0689 199.525L32.0867 195.02L40.1629 196.983L42.3187 188.939Z" fill="#2A1E38"/>
<path fill-rule="evenodd" clip-rule="evenodd" d="M181.996 179.801L186.758 184.306L191.359 179.64L188.528 185.561L194.384 188.489L187.916 187.652L186.951 194.119L185.728 187.684L179.261 188.746L185.02 185.625L181.996 179.801Z" fill="#2A1E38"/>
<path fill-rule="evenodd" clip-rule="evenodd" d="M54.9961 92.8931L51.6819 92.7644L51.4567 96.0786L50.5879 92.8609L47.3381 93.6975L50.1375 91.8635L48.3356 89.032L50.9419 91.1234L53.0655 88.5493L51.9072 91.6704L54.9961 92.8931Z" fill="#2A1E38"/>
<path fill-rule="evenodd" clip-rule="evenodd" d="M198.502 122.656L198.985 129.156L205.485 128.802L199.468 131.247L201.816 137.296L197.601 132.341L192.582 136.46L195.993 130.926L190.523 127.418L196.829 128.963L198.502 122.656Z" fill="#2A1E38"/>
<path fill-rule="evenodd" clip-rule="evenodd" d="M103.679 241.419L106.317 231.026L95.9886 228.194L106.671 227.486L106.189 216.804L110.146 226.746L120.185 222.982L111.948 229.803L118.641 238.169L109.567 232.474L103.679 241.419Z" fill="#2A1E38"/>
<path fill-rule="evenodd" clip-rule="evenodd" d="M199.114 290.584L195.156 283.183L187.659 286.98L193.483 280.931L187.562 275.011L195.124 278.679L198.921 271.182L197.762 279.515L206.064 280.835L197.794 282.282L199.114 290.584Z" fill="#2A1E38"/>
<path fill-rule="evenodd" clip-rule="evenodd" d="M230.453 548.734L234.443 550.246L236.052 546.289L235.827 550.568L240.106 550.89L235.956 551.984L236.985 556.135L234.668 552.531L231.033 554.815L233.735 551.469L230.453 548.734Z" fill="#2A1E38"/>
<path fill-rule="evenodd" clip-rule="evenodd" d="M124.465 493.423L126.009 492.039L124.658 490.463L126.427 491.525L127.521 489.755L127.071 491.782L129.098 492.232L127.039 492.458L127.2 494.517L126.363 492.619L124.465 493.423Z" fill="#2A1E38"/>
<path fill-rule="evenodd" clip-rule="evenodd" d="M289.819 484.961L291.363 478.783L285.25 477.11L291.588 476.692L291.299 470.321L293.648 476.241L299.6 473.989L294.709 478.075L298.699 483.03L293.294 479.652L289.819 484.961Z" fill="#2A1E38"/>
<path fill-rule="evenodd" clip-rule="evenodd" d="M66.8692 550.761L68.9285 542.685L60.8844 540.465L69.1859 539.918L68.7998 531.584L71.8887 539.338L79.7075 536.41L73.2723 541.72L78.4848 548.219L71.4382 543.779L66.8692 550.761Z" fill="#2A1E38"/>
<path fill-rule="evenodd" clip-rule="evenodd" d="M261.986 386.115L256.323 379.905L250.017 385.472L254.167 378.168L246.928 373.888L255.165 375.561L256.999 367.356L257.932 375.69L266.298 374.918L258.672 378.393L261.986 386.115Z" fill="#2A1E38"/>
<path fill-rule="evenodd" clip-rule="evenodd" d="M140.424 360.085V353.714L134.053 353.585L140.102 351.622L138.236 345.541L142.001 350.689L147.213 347.021L143.481 352.169L148.565 355.998L142.516 354.068L140.424 360.085Z" fill="#2A1E38"/>
<path fill-rule="evenodd" clip-rule="evenodd" d="M71.2773 431.805L68.2206 426.014L62.3645 429.006L66.9013 424.276L62.2679 419.643L68.1884 422.507L71.1486 416.683L70.2477 423.15L76.7151 424.18L70.2798 425.338L71.2773 431.805Z" fill="#2A1E38"/>
<path fill-rule="evenodd" clip-rule="evenodd" d="M41.6752 384.731L44.7963 385.922L46.0511 382.833L45.8903 386.179L49.2044 386.405L45.9868 387.273L46.7912 390.523L44.9572 387.724L42.1256 389.461L44.2493 386.887L41.6752 384.731Z" fill="#2A1E38"/>
<path fill-rule="evenodd" clip-rule="evenodd" d="M539.12 453.718L540.311 452.656L539.249 451.433L540.665 452.238L541.501 450.854L541.147 452.431L542.724 452.817L541.115 452.978L541.244 454.586L540.6 453.106L539.12 453.718Z" fill="#2A1E38"/>
<path fill-rule="evenodd" clip-rule="evenodd" d="M469.652 316.518L470.874 311.724L466.08 310.404L471.035 310.083L470.81 305.127L472.644 309.729L477.31 307.991L473.481 311.144L476.57 315.038L472.387 312.367L469.652 316.518Z" fill="#2A1E38"/>
<path fill-rule="evenodd" clip-rule="evenodd" d="M517.723 354.036L517.691 345.702L509.357 345.573L517.273 342.967L514.827 334.987L519.75 341.712L526.604 336.95L521.713 343.707L528.373 348.727L520.426 346.152L517.723 354.036Z" fill="#2A1E38"/>
<path fill-rule="evenodd" clip-rule="evenodd" d="M293.454 336.113L289.014 331.287L284.123 335.631L287.341 329.936L281.71 326.589L288.113 327.908L289.561 321.505L290.301 328.005L296.801 327.394L290.848 330.096L293.454 336.113Z" fill="#2A1E38"/>
<path fill-rule="evenodd" clip-rule="evenodd" d="M383.001 356.996L386.315 357.382L386.766 354.068L387.409 357.35L390.691 356.739L387.795 358.379L389.372 361.308L386.927 359.055L384.61 361.468L385.993 358.444L383.001 356.996Z" fill="#2A1E38"/>
<path fill-rule="evenodd" clip-rule="evenodd" d="M489.247 572.094L490.148 570.743L488.797 569.81L490.373 570.26L490.824 568.716L490.888 570.325L492.497 570.292L490.985 570.839L491.532 572.384L490.534 571.097L489.247 572.094Z" fill="#2A1E38"/>
<path fill-rule="evenodd" clip-rule="evenodd" d="M390.852 260.821L390.82 255.865L385.865 255.769L390.595 254.224L389.147 249.462L392.075 253.484L396.129 250.653L393.233 254.675L397.191 257.635L392.461 256.123L390.852 260.821Z" fill="#2A1E38"/>
<path fill-rule="evenodd" clip-rule="evenodd" d="M273.73 295.475V288.975L267.231 288.879L273.409 286.852L271.51 280.642L275.339 285.886L280.648 282.154L276.852 287.431L282.032 291.324L275.854 289.329L273.73 295.475Z" fill="#2A1E38"/>
<path fill-rule="evenodd" clip-rule="evenodd" d="M528.47 511.667L525.703 504.717L518.688 507.323L524.48 502.561L519.815 496.673L526.121 500.695L530.272 494.453L528.406 501.724L535.613 503.719L528.148 504.202L528.47 511.667Z" fill="#6A44CC"/>
<path fill-rule="evenodd" clip-rule="evenodd" d="M387.57 501.403L382.293 498.829L379.622 504.041L380.427 498.217L374.635 497.284L380.427 496.287L379.526 490.463L382.293 495.675L387.538 493.005L383.451 497.22L387.57 501.403Z" fill="#6A44CC"/>
<path fill-rule="evenodd" clip-rule="evenodd" d="M396.29 446.703L399.186 445.931L398.478 443.003L400.119 445.545L402.661 443.968L400.762 446.285L403.047 448.215L400.247 447.122L399.121 449.921L399.282 446.928L396.29 446.703Z" fill="#6A44CC"/>
<path fill-rule="evenodd" clip-rule="evenodd" d="M244.707 432.835L244.997 431.419L243.613 431.098L245.029 430.937L244.933 429.489L245.512 430.808L246.831 430.261L245.769 431.226L246.702 432.32L245.447 431.612L244.707 432.835Z" fill="#6A44CC"/>
<path fill-rule="evenodd" clip-rule="evenodd" d="M359.48 420.898L357.839 416.747L353.688 418.291L357.099 415.46L354.332 411.985L358.097 414.366L360.574 410.666L359.448 414.977L363.727 416.168L359.287 416.457L359.48 420.898Z" fill="#6A44CC"/>
<path fill-rule="evenodd" clip-rule="evenodd" d="M204.004 502.561L201.849 497.123L196.379 499.183L200.883 495.45L197.247 490.881L202.17 494.034L205.388 489.144L203.94 494.807L209.571 496.383L203.747 496.737L204.004 502.561Z" fill="#6A44CC"/>
<path fill-rule="evenodd" clip-rule="evenodd" d="M459.484 535.735L455.108 529.654L448.93 533.933L453.371 527.884L447.386 523.347L454.497 525.664L456.974 518.585V526.082L464.439 526.243L457.328 528.56L459.484 535.735Z" fill="#6A44CC"/>
<path fill-rule="evenodd" clip-rule="evenodd" d="M72.4679 46.9128L66.7084 45.7223L65.3891 51.4497L64.7456 45.6258L58.8895 46.1406L64.263 43.7274L61.9463 38.3218L65.904 42.6656L70.3121 38.8044L67.4162 43.9204L72.4679 46.9128Z" fill="#6A44CC"/>
<path fill-rule="evenodd" clip-rule="evenodd" d="M46.3407 257.474L48.9792 256.026L47.5634 253.356L49.7514 255.415L51.8428 253.259L50.588 255.962L53.2586 257.281L50.2984 256.927L49.8801 259.888L49.3009 256.96L46.3407 257.474Z" fill="#6A44CC"/>
<path fill-rule="evenodd" clip-rule="evenodd" d="M162.272 548.702L162.207 547.254L160.76 547.286L162.111 546.771L161.66 545.42L162.529 546.546L163.688 545.677L162.883 546.868L164.074 547.704L162.69 547.318L162.272 548.702Z" fill="#6A44CC"/>
<path fill-rule="evenodd" clip-rule="evenodd" d="M199.146 350.593L196.507 346.989L192.871 349.531L195.478 345.927L191.938 343.256L196.186 344.64L197.634 340.425V344.865L202.074 344.962L197.859 346.345L199.146 350.593Z" fill="#6A44CC"/>
<path fill-rule="evenodd" clip-rule="evenodd" d="M98.5628 475.212L95.1521 470.482L90.3578 473.796L93.8007 469.098L89.1351 465.559L94.7016 467.393L96.6 461.858V467.715L102.424 467.811L96.8896 469.613L98.5628 475.212Z" fill="#6A44CC"/>
<path fill-rule="evenodd" clip-rule="evenodd" d="M152.329 431.419L148.211 429.392L146.119 433.479L146.763 428.942L142.226 428.202L146.763 427.397L146.055 422.893L148.211 426.947L152.297 424.855L149.112 428.169L152.329 431.419Z" fill="#6A44CC"/>
<path fill-rule="evenodd" clip-rule="evenodd" d="M205.356 417.648L207.608 417.069L207.061 414.784L208.316 416.747L210.311 415.524L208.831 417.326L210.601 418.838L208.445 418.002L207.544 420.158L207.673 417.841L205.356 417.648Z" fill="#6A44CC"/>
<path fill-rule="evenodd" clip-rule="evenodd" d="M463.796 240.421L464.021 239.327L462.927 239.07L464.053 238.973L463.957 237.847L464.407 238.877L465.469 238.426L464.632 239.199L465.372 240.035L464.375 239.456L463.796 240.421Z" fill="#6A44CC"/>
<path fill-rule="evenodd" clip-rule="evenodd" d="M445.133 321.473L443.846 318.255L440.597 319.478L443.267 317.258L441.111 314.555L444.039 316.389L445.97 313.525L445.101 316.872L448.448 317.805L444.973 318.03L445.133 321.473Z" fill="#6A44CC"/>
<path fill-rule="evenodd" clip-rule="evenodd" d="M537.544 42.6979L534.101 37.968L529.307 41.2821L532.749 36.5522L528.084 33.045L533.65 34.8469L535.581 29.3447L535.549 35.1686L541.405 35.2973L535.838 37.0992L537.544 42.6979Z" fill="#6A44CC"/>
<path fill-rule="evenodd" clip-rule="evenodd" d="M517.884 414.591L513.379 413.658L512.382 418.13L511.867 413.561L507.298 413.98L511.481 412.081L509.679 407.866L512.768 411.277L516.211 408.252L513.958 412.242L517.884 414.591Z" fill="#6A44CC"/>
<path fill-rule="evenodd" clip-rule="evenodd" d="M380.717 324.787L382.776 323.661L381.65 321.602L383.387 323.179L384.996 321.505L384.031 323.629L386.122 324.659L383.805 324.369L383.484 326.686L383.033 324.401L380.717 324.787Z" fill="#6A44CC"/>
<path fill-rule="evenodd" clip-rule="evenodd" d="M483.97 328.037L483.938 326.911L482.812 326.943L483.874 326.557L483.488 325.463L484.195 326.364L485.096 325.688L484.453 326.621L485.386 327.265L484.292 326.975L483.97 328.037Z" fill="#6A44CC"/>
<path fill-rule="evenodd" clip-rule="evenodd" d="M470.392 383.38L468.365 380.549L465.501 382.544L467.56 379.744L464.793 377.621L468.075 378.715L469.233 375.433V378.908L472.708 378.972L469.394 380.034L470.392 383.38Z" fill="#6A44CC"/>
<path fill-rule="evenodd" clip-rule="evenodd" d="M334.769 369.705L332.098 366.037L328.366 368.644L331.036 364.943L327.433 362.208L331.744 363.624L333.224 359.312V363.882L337.761 363.978L333.45 365.362L334.769 369.705Z" fill="#6A44CC"/>
<path fill-rule="evenodd" clip-rule="evenodd" d="M359.545 277.488L361.765 284.664L368.972 282.54L362.859 286.884L367.074 293.094L361.057 288.621L356.488 294.542L358.869 287.431L351.822 284.921L359.319 284.985L359.545 277.488Z" fill="#6A44CC"/>
<path fill-rule="evenodd" clip-rule="evenodd" d="M232.094 244.765L237.178 247.725L240.235 242.706L238.98 248.433L244.707 249.784L238.851 250.396L239.334 256.252L236.985 250.878L231.547 253.131L235.923 249.205L232.094 244.765Z" fill="#6A44CC"/>
<path fill-rule="evenodd" clip-rule="evenodd" d="M138.687 91.67L135.726 92.217L136.241 95.1772L134.793 92.5387L132.123 93.9223L134.182 91.7665L132.058 89.6429L134.761 90.9299L136.08 88.2593L135.694 91.2195L138.687 91.67Z" fill="#6A44CC"/>
<path fill-rule="evenodd" clip-rule="evenodd" d="M222.152 85.6533L221.734 87.0369L223.117 87.4552L221.669 87.5195V88.9675L221.187 87.5839L219.803 88.0344L220.961 87.1656L220.093 86.0073L221.315 86.8117L222.152 85.6533Z" fill="#6A44CC"/>
<path fill-rule="evenodd" clip-rule="evenodd" d="M126.749 151.486L128.101 155.733L132.38 154.478L128.744 157.052L131.254 160.753L127.682 158.082L124.947 161.621L126.363 157.374L122.18 155.894L126.62 155.926L126.749 151.486Z" fill="#6A44CC"/>
<path fill-rule="evenodd" clip-rule="evenodd" d="M512.929 257.603L516.854 263.942L523.322 260.145L518.463 265.84L524.094 270.795L517.176 267.964L514.184 274.85L514.731 267.385L507.298 266.677L514.57 264.907L512.929 257.603Z" fill="#6A44CC"/>
<path fill-rule="evenodd" clip-rule="evenodd" d="M28.4829 502.4L34.1459 504.009L35.8513 498.378L36.0765 504.267L41.9326 504.17L36.4305 506.197L38.3288 511.732L34.7251 507.13L30.0274 510.67L33.2772 505.779L28.4829 502.4Z" fill="#6A44CC"/>
<path fill-rule="evenodd" clip-rule="evenodd" d="M299.343 24.615L296.64 25.902L297.83 28.637L295.803 26.449L293.583 28.4439L295.031 25.8055L292.425 24.3254L295.353 24.8724L295.996 21.9443L296.35 24.9367L299.343 24.615Z" fill="#6A44CC"/>
<path fill-rule="evenodd" clip-rule="evenodd" d="M261.664 170.953L264.013 174.717L267.842 172.465L264.946 175.876L268.293 178.804L264.174 177.13L262.404 181.217L262.758 176.777L258.318 176.358L262.63 175.296L261.664 170.953Z" fill="#6A44CC"/>
<path fill-rule="evenodd" clip-rule="evenodd" d="M391.399 157.889L394.488 162.844L399.507 159.884L395.743 164.324L400.119 168.186L394.713 165.965L392.397 171.339L392.847 165.515L387.023 164.968L392.686 163.584L391.399 157.889Z" fill="#6A44CC"/>
<path fill-rule="evenodd" clip-rule="evenodd" d="M413.987 39.062L415.724 44.6285L421.355 42.9875L416.593 46.366L419.875 51.1925L415.177 47.7174L411.606 52.3508L413.472 46.7843L407.97 44.8216L413.826 44.8859L413.987 39.062Z" fill="#6A44CC"/>
<path fill-rule="evenodd" clip-rule="evenodd" d="M276.465 102.803L280.423 105.088L282.804 101.194L281.839 105.667L286.311 106.729L281.742 107.179L282.128 111.748L280.262 107.565L276.047 109.335L279.458 106.278L276.465 102.803Z" fill="#6A44CC"/>
<path fill-rule="evenodd" clip-rule="evenodd" d="M312.31 71.7854L309.993 72.2359L310.379 74.5204L309.285 72.4933L307.194 73.5551L308.803 71.8498L307.129 70.241L309.253 71.2384L310.283 69.147L309.993 71.4637L312.31 71.7854Z" fill="#6A44CC"/>
<path fill-rule="evenodd" clip-rule="evenodd" d="M8.79101 239.102L8.46924 240.164L9.53106 240.518L8.40489 240.55L8.43707 241.676L8.05095 240.614L6.98914 240.968L7.8579 240.293L7.21437 239.359L8.14748 240.003L8.79101 239.102Z" fill="#6A44CC"/>
<path fill-rule="evenodd" clip-rule="evenodd" d="M36.5592 318.159L37.5888 321.473L40.903 320.508L38.0715 322.535L40.0342 325.398L37.2671 323.307L35.1434 326.074L36.2374 322.76L32.9554 321.602L36.4305 321.634L36.5592 318.159Z" fill="#6A44CC"/>
<path fill-rule="evenodd" clip-rule="evenodd" d="M351.179 98.5239L352.53 102.868L356.906 101.581L353.206 104.219L355.748 107.984L352.112 105.249L349.312 108.853L350.76 104.541L346.481 103.029L351.05 103.061L351.179 98.5239Z" fill="#6A44CC"/>
<path fill-rule="evenodd" clip-rule="evenodd" d="M151.975 235.659L156.384 236.914L157.735 232.506L157.896 237.107L162.465 237.011L158.185 238.587L159.666 242.931L156.834 239.327L153.198 242.094L155.74 238.265L151.975 235.659Z" fill="#6A44CC"/>
<path fill-rule="evenodd" clip-rule="evenodd" d="M122.952 299.4L120.829 300.398L121.794 302.521L120.185 300.816L118.448 302.36L119.574 300.333L117.547 299.175L119.863 299.593L120.346 297.309L120.636 299.625L122.952 299.4Z" fill="#6A44CC"/>
<path fill-rule="evenodd" clip-rule="evenodd" d="M148.983 322.149L150.817 325.077L153.809 323.307L151.557 325.978L154.163 328.262L150.946 326.943L149.594 330.129L149.852 326.686L146.377 326.364L149.755 325.527L148.983 322.149Z" fill="#6A44CC"/>
<path fill-rule="evenodd" clip-rule="evenodd" d="M46.6625 5.85596L49.0436 9.71711L52.9691 7.40042L50.0088 10.8755L53.4517 13.8678L49.2366 12.1625L47.4347 16.3132L47.7565 11.7764L43.2518 11.3581L47.66 10.2963L46.6625 5.85596Z" fill="#6A44CC"/>
<path fill-rule="evenodd" clip-rule="evenodd" d="M601.864 600.667L604.953 605.622L609.973 602.629L606.208 607.102L610.584 610.963L605.178 608.743L602.862 614.116L603.28 608.292L597.488 607.745L603.151 606.362L601.864 600.667Z" fill="#6A44CC"/>
<path fill-rule="evenodd" clip-rule="evenodd" d="M590.377 123.911L589.251 125.069L590.377 126.228L588.929 125.52L588.189 126.968L588.414 125.359L586.838 125.102L588.414 124.812L588.189 123.235L588.929 124.651L590.377 123.911Z" fill="#2A1E38"/>
<path fill-rule="evenodd" clip-rule="evenodd" d="M631.595 2.28447L630.791 3.66805L632.174 4.50463L630.597 4.18287L630.244 5.7595L630.05 4.15069L628.442 4.31157L629.922 3.63587L629.278 2.15576L630.372 3.34628L631.595 2.28447Z" fill="#2A1E38"/>
<path fill-rule="evenodd" clip-rule="evenodd" d="M587.546 46.8807L587.513 36.166L576.831 35.973L586.999 32.6588L583.845 22.4268L590.184 31.05L598.936 24.9365L592.662 33.5919L601.221 40.0272L591.021 36.7452L587.546 46.8807Z" fill="#2A1E38"/>
<path fill-rule="evenodd" clip-rule="evenodd" d="M607.849 546.417L612.128 546.9L612.675 542.653L613.544 546.868L617.759 546.096L614.027 548.187L616.054 551.952L612.9 549.056L609.94 552.145L611.71 548.284L607.849 546.417Z" fill="#2A1E38"/>
<path fill-rule="evenodd" clip-rule="evenodd" d="M575.608 558.709L576.767 557.003L575.061 555.813L577.056 556.36L577.667 554.397L577.732 556.456L579.823 556.424L577.861 557.132L578.568 559.095L577.281 557.454L575.608 558.709Z" fill="#2A1E38"/>
<path fill-rule="evenodd" clip-rule="evenodd" d="M616.44 278.582L616.408 270.248L608.074 270.088L616.022 267.513L613.576 259.534L618.467 266.259L625.288 261.496L620.43 268.253L627.09 273.241L619.143 270.699L616.44 278.582Z" fill="#2A1E38"/>
<path fill-rule="evenodd" clip-rule="evenodd" d="M627.122 461.472L629.182 453.396L621.138 451.176L629.471 450.629L629.085 442.295L632.174 450.049L635.681 448.73V450.661L633.558 452.43L635.681 455.101V456.999L631.724 454.49L627.122 461.472Z" fill="#2A1E38"/>
<path fill-rule="evenodd" clip-rule="evenodd" d="M597.359 344.576L598.968 338.269L592.694 336.564L599.193 336.113L598.872 329.646L601.285 335.663L607.366 333.378L602.379 337.529L606.433 342.613L600.931 339.138L597.359 344.576Z" fill="#2A1E38"/>
<path fill-rule="evenodd" clip-rule="evenodd" d="M591.31 227.969L589.154 222.531L583.684 224.558L588.189 220.858L584.553 216.289L589.476 219.41L592.726 214.551L591.246 220.182L596.877 221.759L591.053 222.113L591.31 227.969Z" fill="#6A44CC"/>
<path fill-rule="evenodd" clip-rule="evenodd" d="M606.562 406.805L604.889 402.589L600.641 404.166L604.148 401.27L601.317 397.731L605.146 400.144L607.656 396.379L606.53 400.788L610.905 401.978L606.369 402.268L606.562 406.805Z" fill="#6A44CC"/>
<path fill-rule="evenodd" clip-rule="evenodd" d="M619.464 172.915L619.432 174.041L620.558 174.106L619.464 174.395L619.754 175.489L619.11 174.556L618.177 175.167L618.853 174.266L617.984 173.559L619.046 173.945L619.464 172.915Z" fill="#6A44CC"/>
<path fill-rule="evenodd" clip-rule="evenodd" d="M148.597 601.342L146.698 611.896L157.188 613.955L146.602 615.436L147.857 626.054L143.191 616.433L133.474 620.905L141.196 613.505L133.924 605.622L143.352 610.673L148.597 601.342Z" fill="#2A1E38"/>
<path fill-rule="evenodd" clip-rule="evenodd" d="M409.257 604.335L407.777 612.54L415.95 614.149L407.712 615.307L408.678 623.576L405.042 616.079L397.48 619.554L403.497 613.795L397.834 607.681L405.203 611.607L409.257 604.335Z" fill="#2A1E38"/>
<path fill-rule="evenodd" clip-rule="evenodd" d="M544.719 618.975L543.689 620.744L545.459 621.806L543.432 621.388L542.981 623.415L542.756 621.356L540.697 621.549L542.563 620.712L541.759 618.782L543.142 620.326L544.719 618.975Z" fill="#2A1E38"/>
<path fill-rule="evenodd" clip-rule="evenodd" d="M46.0833 588.729L46.4373 593.685L51.3924 593.427L46.7912 595.293L48.5931 599.927L45.3755 596.13L41.5465 599.283L44.1528 595.036L39.9698 592.365L44.7963 593.524L46.0833 588.729Z" fill="#2A1E38"/>
<path fill-rule="evenodd" clip-rule="evenodd" d="M194.062 612.507L195.832 618.074L201.43 616.433L196.668 619.811L199.95 624.638L195.285 621.163L191.713 625.764L193.579 620.262L188.077 618.299L193.901 618.331L194.062 612.507Z" fill="#6A44CC"/>
<path fill-rule="evenodd" clip-rule="evenodd" d="M312.728 619.554L312.664 621.002L314.112 621.067L312.728 621.485L313.082 622.868L312.278 621.678L311.055 622.45L311.956 621.324L310.83 620.391L312.213 620.906L312.728 619.554Z" fill="#6A44CC"/>
<path fill-rule="evenodd" clip-rule="evenodd" d="M940.424 136.653L944.897 143.764L952.072 139.42L946.699 145.887L953.07 151.39L945.251 148.268L942.001 155.991L942.548 147.625L934.182 146.917L942.323 144.826L940.424 136.653Z" fill="#2A1E38"/>
<path fill-rule="evenodd" clip-rule="evenodd" d="M888.942 6.9179L884.824 5.66302L883.505 9.74941L883.44 5.46997H879.161L883.183 4.05421L881.864 0L884.47 3.41068L887.913 0.900935L885.467 4.40815L888.942 6.9179Z" fill="#2A1E38"/>
<path fill-rule="evenodd" clip-rule="evenodd" d="M998.631 54.4103L997.184 55.9225L998.664 57.3705L996.797 56.4695L995.864 58.3036L996.154 56.2765L994.095 55.9547L996.154 55.5686L995.832 53.5415L996.797 55.3756L998.631 54.4103Z" fill="#2A1E38"/>
<path fill-rule="evenodd" clip-rule="evenodd" d="M815.581 18.3403L814.454 24.6147L820.697 25.8696L814.39 26.7383L815.162 33.0449L812.363 27.3175L806.603 29.9881L811.172 25.58L806.861 20.9144L812.459 23.9068L815.581 18.3403Z" fill="#2A1E38"/>
<path fill-rule="evenodd" clip-rule="evenodd" d="M1095.8 181.731L1096.61 192.414L1107.29 191.835L1097.38 195.889L1101.24 205.864L1094.32 197.691L1086.02 204.448L1091.65 195.342L1082.68 189.55L1093.07 192.092L1095.8 181.731Z" fill="#2A1E38"/>
<path fill-rule="evenodd" clip-rule="evenodd" d="M934.697 220.568L940.811 226.328L946.699 220.343L943.095 227.937L950.624 231.669L942.291 230.608L941.036 238.909L939.491 230.64L931.222 232.023L938.59 228.001L934.697 220.568Z" fill="#2A1E38"/>
<path fill-rule="evenodd" clip-rule="evenodd" d="M1100.82 450.918L1096.54 450.725L1096.29 455.004L1095.13 450.886L1091.01 451.948L1094.55 449.599L1092.26 445.963L1095.61 448.634L1098.35 445.352L1096.87 449.341L1100.82 450.918Z" fill="#2A1E38"/>
<path fill-rule="evenodd" clip-rule="evenodd" d="M992.325 188.585L992.807 194.924L999.146 194.57L993.258 196.983L995.542 202.936L991.456 198.077L986.501 202.099L989.847 196.661L984.506 193.218L990.684 194.731L992.325 188.585Z" fill="#2A1E38"/>
<path fill-rule="evenodd" clip-rule="evenodd" d="M1188.34 104.573L1188.99 112.874L1197.29 112.424L1189.57 115.577L1192.59 123.332L1187.22 116.993L1180.75 122.238L1185.13 115.159L1178.11 110.622L1186.22 112.617L1188.34 104.573Z" fill="#2A1E38"/>
<path fill-rule="evenodd" clip-rule="evenodd" d="M983.315 538.502L981.868 546.707L990.04 548.348L981.771 549.474L982.768 557.776L979.133 550.246L971.539 553.753L977.556 547.962L971.893 541.848L979.261 545.774L983.315 538.502Z" fill="#2A1E38"/>
<path fill-rule="evenodd" clip-rule="evenodd" d="M1090.59 105.731L1094.07 111.266L1099.7 107.855L1095.48 112.907L1100.44 117.186L1094.36 114.773L1091.81 120.79L1092.26 114.258L1085.73 113.711L1092.07 112.102L1090.59 105.731Z" fill="#2A1E38"/>
<path fill-rule="evenodd" clip-rule="evenodd" d="M1116.11 67.2162L1112.92 66.2509L1111.89 69.4364L1111.83 66.09H1108.48L1111.63 64.996L1110.6 61.8428L1112.6 64.4812L1115.3 62.5185L1113.4 65.2856L1116.11 67.2162Z" fill="#2A1E38"/>
<path fill-rule="evenodd" clip-rule="evenodd" d="M668.696 130.314L667.827 135.205L672.686 136.17L667.763 136.846L668.374 141.769L666.186 137.296L661.682 139.388L665.285 135.945L661.907 132.309L666.283 134.626L668.696 130.314Z" fill="#2A1E38"/>
<path fill-rule="evenodd" clip-rule="evenodd" d="M1179.56 190.58L1178.4 196.983L1184.77 198.238L1178.34 199.139L1179.11 205.574L1176.28 199.75L1170.39 202.453L1175.05 197.948L1170.65 193.186L1176.37 196.243L1179.56 190.58Z" fill="#2A1E38"/>
<path fill-rule="evenodd" clip-rule="evenodd" d="M683.401 188.939L684.012 197.24L692.346 196.79L684.623 199.943L687.648 207.73L682.242 201.359L675.775 206.636L680.151 199.525L673.168 195.02L681.245 196.983L683.401 188.939Z" fill="#2A1E38"/>
<path fill-rule="evenodd" clip-rule="evenodd" d="M823.078 179.801L827.84 184.306L832.441 179.64L829.609 185.561L835.465 188.489L828.998 187.652L828.033 194.119L826.81 187.684L820.343 188.746L826.102 185.625L823.078 179.801Z" fill="#2A1E38"/>
<path fill-rule="evenodd" clip-rule="evenodd" d="M696.078 92.8931L692.764 92.7644L692.538 96.0786L691.67 92.8609L688.42 93.6975L691.219 91.8635L689.417 89.032L692.024 91.1234L694.147 88.5493L692.989 91.6704L696.078 92.8931Z" fill="#2A1E38"/>
<path fill-rule="evenodd" clip-rule="evenodd" d="M839.584 122.656L840.067 129.156L846.566 128.802L840.549 131.247L842.898 137.296L838.683 132.341L833.664 136.46L837.074 130.926L831.604 127.418L837.911 128.963L839.584 122.656Z" fill="#2A1E38"/>
<path fill-rule="evenodd" clip-rule="evenodd" d="M744.761 241.419L747.399 231.026L737.07 228.194L747.753 227.486L747.27 216.804L751.228 226.746L761.267 222.982L753.03 229.803L759.723 238.169L750.649 232.474L744.761 241.419Z" fill="#2A1E38"/>
<path fill-rule="evenodd" clip-rule="evenodd" d="M840.195 290.584L836.238 283.183L828.741 286.98L834.565 280.931L828.644 275.011L836.206 278.679L840.002 271.182L838.844 279.515L847.146 280.835L838.876 282.282L840.195 290.584Z" fill="#2A1E38"/>
<path fill-rule="evenodd" clip-rule="evenodd" d="M871.535 548.734L875.525 550.246L877.134 546.289L876.909 550.568L881.188 550.89L877.037 551.984L878.067 556.135L875.75 552.531L872.114 554.815L874.817 551.469L871.535 548.734Z" fill="#2A1E38"/>
<path fill-rule="evenodd" clip-rule="evenodd" d="M765.547 493.423L767.091 492.039L765.74 490.463L767.509 491.525L768.603 489.755L768.153 491.782L770.18 492.232L768.121 492.458L768.281 494.517L767.445 492.619L765.547 493.423Z" fill="#2A1E38"/>
<path fill-rule="evenodd" clip-rule="evenodd" d="M930.9 484.961L932.445 478.783L926.331 477.11L932.67 476.692L932.38 470.321L934.729 476.241L940.682 473.989L935.791 478.075L939.781 483.03L934.375 479.652L930.9 484.961Z" fill="#2A1E38"/>
<path fill-rule="evenodd" clip-rule="evenodd" d="M707.951 550.761L710.01 542.685L701.966 540.465L710.268 539.918L709.882 531.584L712.97 539.338L720.789 536.41L714.354 541.72L719.567 548.219L712.52 543.779L707.951 550.761Z" fill="#2A1E38"/>
<path fill-rule="evenodd" clip-rule="evenodd" d="M903.068 386.115L897.405 379.905L891.098 385.472L895.249 378.168L888.009 373.888L896.247 375.561L898.081 367.356L899.014 375.69L907.38 374.918L899.754 378.393L903.068 386.115Z" fill="#2A1E38"/>
<path fill-rule="evenodd" clip-rule="evenodd" d="M781.506 360.085V353.714L775.135 353.585L781.184 351.622L779.318 345.541L783.083 350.689L788.295 347.021L784.563 352.169L789.647 355.998L783.597 354.068L781.506 360.085Z" fill="#2A1E38"/>
<path fill-rule="evenodd" clip-rule="evenodd" d="M633.238 448.73L637.517 447.122L633.238 450.661V448.73ZM633.238 455.101L636.327 458.962L633.238 457V455.101Z" fill="#2A1E38"/>
<path fill-rule="evenodd" clip-rule="evenodd" d="M712.359 431.805L709.302 426.014L703.446 429.006L707.983 424.276L703.35 419.643L709.27 422.507L712.23 416.683L711.329 423.15L717.797 424.18L711.362 425.338L712.359 431.805Z" fill="#2A1E38"/>
<path fill-rule="evenodd" clip-rule="evenodd" d="M682.757 384.731L685.878 385.922L687.133 382.833L686.972 386.179L690.286 386.405L687.069 387.273L687.873 390.523L686.039 387.724L683.207 389.461L685.331 386.887L682.757 384.731Z" fill="#2A1E38"/>
<path fill-rule="evenodd" clip-rule="evenodd" d="M1180.2 453.718L1181.39 452.656L1180.33 451.433L1181.75 452.238L1182.58 450.854L1182.23 452.431L1183.81 452.817L1182.2 452.978L1182.33 454.586L1181.68 453.106L1180.2 453.718Z" fill="#2A1E38"/>
<path fill-rule="evenodd" clip-rule="evenodd" d="M1110.73 316.518L1111.96 311.724L1107.16 310.404L1112.12 310.083L1111.89 305.127L1113.73 309.729L1118.39 307.991L1114.56 311.144L1117.65 315.038L1113.47 312.367L1110.73 316.518Z" fill="#2A1E38"/>
<path fill-rule="evenodd" clip-rule="evenodd" d="M1158.8 354.036L1158.77 345.702L1150.44 345.573L1158.35 342.967L1155.91 334.987L1160.83 341.712L1167.69 336.95L1162.79 343.707L1169.46 348.727L1161.51 346.152L1158.8 354.036Z" fill="#2A1E38"/>
<path fill-rule="evenodd" clip-rule="evenodd" d="M934.536 336.113L930.096 331.287L925.205 335.631L928.423 329.936L922.792 326.589L929.195 327.908L930.643 321.505L931.383 328.005L937.883 327.394L931.93 330.096L934.536 336.113Z" fill="#2A1E38"/>
<path fill-rule="evenodd" clip-rule="evenodd" d="M1024.08 356.996L1027.4 357.382L1027.85 354.068L1028.49 357.35L1031.77 356.739L1028.88 358.379L1030.45 361.308L1028.01 359.055L1025.69 361.468L1027.08 358.444L1024.08 356.996Z" fill="#2A1E38"/>
<path fill-rule="evenodd" clip-rule="evenodd" d="M1130.33 572.094L1131.23 570.743L1129.88 569.81L1131.45 570.26L1131.91 568.716L1131.97 570.325L1133.58 570.292L1132.07 570.839L1132.61 572.384L1131.62 571.097L1130.33 572.094Z" fill="#2A1E38"/>
<path fill-rule="evenodd" clip-rule="evenodd" d="M1031.93 260.821L1031.9 255.865L1026.95 255.769L1031.68 254.224L1030.23 249.462L1033.16 253.484L1037.21 250.653L1034.31 254.675L1038.27 257.635L1033.54 256.123L1031.93 260.821Z" fill="#2A1E38"/>
<path fill-rule="evenodd" clip-rule="evenodd" d="M914.812 295.475V288.975L908.313 288.879L914.49 286.852L912.592 280.642L916.421 285.886L921.73 282.154L917.933 287.431L923.114 291.324L916.936 289.329L914.812 295.475Z" fill="#2A1E38"/>
<path fill-rule="evenodd" clip-rule="evenodd" d="M1169.55 511.667L1166.78 504.717L1159.77 507.323L1165.56 502.561L1160.9 496.673L1167.2 500.695L1171.35 494.453L1169.49 501.724L1176.69 503.719L1169.23 504.202L1169.55 511.667Z" fill="#6A44CC"/>
<path fill-rule="evenodd" clip-rule="evenodd" d="M1028.65 501.403L1023.37 498.829L1020.7 504.041L1021.51 498.217L1015.72 497.284L1021.51 496.287L1020.61 490.463L1023.37 495.675L1028.62 493.005L1024.53 497.22L1028.65 501.403Z" fill="#6A44CC"/>
<path fill-rule="evenodd" clip-rule="evenodd" d="M1037.37 446.703L1040.27 445.931L1039.56 443.003L1041.2 445.545L1043.74 443.968L1041.84 446.285L1044.13 448.215L1041.33 447.122L1040.2 449.921L1040.36 446.928L1037.37 446.703Z" fill="#6A44CC"/>
<path fill-rule="evenodd" clip-rule="evenodd" d="M885.789 432.835L886.079 431.419L884.695 431.098L886.111 430.937L886.014 429.489L886.594 430.808L887.913 430.261L886.851 431.226L887.784 432.32L886.529 431.612L885.789 432.835Z" fill="#6A44CC"/>
<path fill-rule="evenodd" clip-rule="evenodd" d="M1000.56 420.898L998.921 416.747L994.77 418.291L998.181 415.46L995.414 411.985L999.178 414.366L1001.66 410.666L1000.53 414.977L1004.81 416.168L1000.37 416.457L1000.56 420.898Z" fill="#6A44CC"/>
<path fill-rule="evenodd" clip-rule="evenodd" d="M845.086 502.561L842.93 497.123L837.46 499.183L841.965 495.45L838.329 490.881L843.252 494.034L846.47 489.144L845.022 494.807L850.653 496.383L844.829 496.737L845.086 502.561Z" fill="#6A44CC"/>
<path fill-rule="evenodd" clip-rule="evenodd" d="M1100.57 535.735L1096.19 529.654L1090.01 533.933L1094.45 527.884L1088.47 523.347L1095.58 525.664L1098.06 518.585V526.082L1105.52 526.243L1098.41 528.56L1100.57 535.735Z" fill="#6A44CC"/>
<path fill-rule="evenodd" clip-rule="evenodd" d="M713.55 46.9128L707.79 45.7223L706.471 51.4497L705.827 45.6258L699.971 46.1406L705.345 43.7274L703.028 38.3218L706.986 42.6656L711.394 38.8044L708.498 43.9204L713.55 46.9128Z" fill="#6A44CC"/>
<path fill-rule="evenodd" clip-rule="evenodd" d="M687.422 257.474L690.061 256.026L688.645 253.356L690.833 255.415L692.925 253.259L691.67 255.962L694.34 257.281L691.38 256.927L690.962 259.888L690.383 256.96L687.422 257.474Z" fill="#6A44CC"/>
<path fill-rule="evenodd" clip-rule="evenodd" d="M803.354 548.702L803.289 547.254L801.841 547.286L803.193 546.771L802.742 545.42L803.611 546.546L804.769 545.677L803.965 546.868L805.155 547.704L803.772 547.318L803.354 548.702Z" fill="#6A44CC"/>
<path fill-rule="evenodd" clip-rule="evenodd" d="M840.228 350.593L837.589 346.989L833.953 349.531L836.56 345.927L833.02 343.256L837.267 344.64L838.715 340.425V344.865L843.156 344.962L838.941 346.345L840.228 350.593Z" fill="#6A44CC"/>
<path fill-rule="evenodd" clip-rule="evenodd" d="M739.645 475.212L736.234 470.482L731.44 473.796L734.882 469.098L730.217 465.559L735.783 467.393L737.682 461.858V467.715L743.506 467.811L737.971 469.613L739.645 475.212Z" fill="#6A44CC"/>
<path fill-rule="evenodd" clip-rule="evenodd" d="M793.411 431.419L789.293 429.392L787.201 433.479L787.845 428.942L783.308 428.202L787.845 427.397L787.137 422.893L789.293 426.947L793.379 424.855L790.193 428.169L793.411 431.419Z" fill="#6A44CC"/>
<path fill-rule="evenodd" clip-rule="evenodd" d="M846.438 417.648L848.69 417.069L848.143 414.784L849.398 416.747L851.393 415.524L849.913 417.326L851.682 418.838L849.527 418.002L848.626 420.158L848.754 417.841L846.438 417.648Z" fill="#6A44CC"/>
<path fill-rule="evenodd" clip-rule="evenodd" d="M1104.88 240.421L1105.1 239.327L1104.01 239.07L1105.13 238.973L1105.04 237.847L1105.49 238.877L1106.55 238.426L1105.71 239.199L1106.45 240.035L1105.46 239.456L1104.88 240.421Z" fill="#6A44CC"/>
<path fill-rule="evenodd" clip-rule="evenodd" d="M1086.22 321.473L1084.93 318.255L1081.68 319.478L1084.35 317.258L1082.19 314.555L1085.12 316.389L1087.05 313.525L1086.18 316.872L1089.53 317.805L1086.05 318.03L1086.22 321.473Z" fill="#6A44CC"/>
<path fill-rule="evenodd" clip-rule="evenodd" d="M1178.63 42.6979L1175.18 37.968L1170.39 41.2821L1173.83 36.5522L1169.17 33.045L1174.73 34.8469L1176.66 29.3447L1176.63 35.1686L1182.49 35.2973L1176.92 37.0992L1178.63 42.6979Z" fill="#6A44CC"/>
<path fill-rule="evenodd" clip-rule="evenodd" d="M1158.97 414.591L1154.46 413.658L1153.46 418.13L1152.95 413.561L1148.38 413.98L1152.56 412.081L1150.76 407.866L1153.85 411.277L1157.29 408.252L1155.04 412.242L1158.97 414.591Z" fill="#6A44CC"/>
<path fill-rule="evenodd" clip-rule="evenodd" d="M1021.8 324.787L1023.86 323.661L1022.73 321.602L1024.47 323.179L1026.08 321.505L1025.11 323.629L1027.2 324.659L1024.89 324.369L1024.57 326.686L1024.12 324.401L1021.8 324.787Z" fill="#6A44CC"/>
<path fill-rule="evenodd" clip-rule="evenodd" d="M1125.05 328.037L1125.02 326.911L1123.89 326.943L1124.96 326.557L1124.57 325.463L1125.28 326.364L1126.18 325.688L1125.53 326.621L1126.47 327.265L1125.37 326.975L1125.05 328.037Z" fill="#6A44CC"/>
<path fill-rule="evenodd" clip-rule="evenodd" d="M1111.47 383.38L1109.45 380.549L1106.58 382.544L1108.64 379.744L1105.87 377.621L1109.16 378.715L1110.32 375.433V378.908L1113.79 378.972L1110.48 380.034L1111.47 383.38Z" fill="#6A44CC"/>
<path fill-rule="evenodd" clip-rule="evenodd" d="M975.851 369.705L973.18 366.037L969.448 368.644L972.118 364.943L968.514 362.208L972.826 363.624L974.306 359.312V363.882L978.843 363.978L974.531 365.362L975.851 369.705Z" fill="#6A44CC"/>
<path fill-rule="evenodd" clip-rule="evenodd" d="M1000.63 277.488L1002.85 284.664L1010.05 282.54L1003.94 286.884L1008.16 293.094L1002.14 288.621L997.57 294.542L999.951 287.431L992.904 284.921L1000.4 284.985L1000.63 277.488Z" fill="#6A44CC"/>
<path fill-rule="evenodd" clip-rule="evenodd" d="M873.176 244.765L878.26 247.725L881.317 242.706L880.062 248.433L885.789 249.784L879.933 250.396L880.416 256.252L878.067 250.878L872.629 253.131L877.005 249.205L873.176 244.765Z" fill="#6A44CC"/>
<path fill-rule="evenodd" clip-rule="evenodd" d="M779.768 91.67L776.808 92.217L777.323 95.1772L775.875 92.5387L773.204 93.9223L775.264 91.7665L773.14 89.6429L775.843 90.9299L777.162 88.2593L776.776 91.2195L779.768 91.67Z" fill="#6A44CC"/>
<path fill-rule="evenodd" clip-rule="evenodd" d="M863.234 85.6533L862.815 87.0369L864.199 87.4552L862.751 87.5195V88.9675L862.268 87.5839L860.885 88.0344L862.043 87.1656L861.174 86.0073L862.397 86.8117L863.234 85.6533Z" fill="#6A44CC"/>
<path fill-rule="evenodd" clip-rule="evenodd" d="M767.831 151.486L769.182 155.733L773.462 154.478L769.826 157.052L772.336 160.753L768.764 158.082L766.029 161.621L767.445 157.374L763.262 155.894L767.702 155.926L767.831 151.486Z" fill="#6A44CC"/>
<path fill-rule="evenodd" clip-rule="evenodd" d="M1154.01 257.603L1157.94 263.942L1164.4 260.145L1159.54 265.84L1165.18 270.795L1158.26 267.964L1155.27 274.85L1155.81 267.385L1148.38 266.677L1155.65 264.907L1154.01 257.603Z" fill="#6A44CC"/>
<path fill-rule="evenodd" clip-rule="evenodd" d="M669.565 502.4L675.228 504.009L676.933 498.378L677.158 504.267L683.014 504.17L677.512 506.197L679.411 511.732L675.807 507.13L671.109 510.67L674.359 505.779L669.565 502.4Z" fill="#6A44CC"/>
<path fill-rule="evenodd" clip-rule="evenodd" d="M940.424 24.615L937.722 25.902L938.912 28.637L936.885 26.449L934.665 28.4439L936.113 25.8055L933.507 24.3254L936.435 24.8724L937.078 21.9443L937.432 24.9367L940.424 24.615Z" fill="#6A44CC"/>
<path fill-rule="evenodd" clip-rule="evenodd" d="M902.746 170.953L905.095 174.717L908.924 172.465L906.028 175.876L909.374 178.804L905.256 177.13L903.486 181.217L903.84 176.777L899.4 176.358L903.711 175.296L902.746 170.953Z" fill="#6A44CC"/>
<path fill-rule="evenodd" clip-rule="evenodd" d="M1032.48 157.889L1035.57 162.844L1040.59 159.884L1036.82 164.324L1041.2 168.186L1035.79 165.965L1033.48 171.339L1033.93 165.515L1028.1 164.968L1033.77 163.584L1032.48 157.889Z" fill="#6A44CC"/>
<path fill-rule="evenodd" clip-rule="evenodd" d="M1055.07 39.062L1056.81 44.6285L1062.44 42.9875L1057.67 46.366L1060.96 51.1925L1056.26 47.7174L1052.69 52.3508L1054.55 46.7843L1049.05 44.8216L1054.91 44.8859L1055.07 39.062Z" fill="#6A44CC"/>
<path fill-rule="evenodd" clip-rule="evenodd" d="M917.547 102.803L921.505 105.088L923.886 101.194L922.921 105.667L927.393 106.729L922.824 107.179L923.21 111.748L921.344 107.565L917.129 109.335L920.54 106.278L917.547 102.803Z" fill="#6A44CC"/>
<path fill-rule="evenodd" clip-rule="evenodd" d="M953.392 71.7854L951.075 72.2359L951.461 74.5204L950.367 72.4933L948.276 73.5551L949.884 71.8498L948.211 70.241L950.335 71.2384L951.364 69.147L951.075 71.4637L953.392 71.7854Z" fill="#6A44CC"/>
<path fill-rule="evenodd" clip-rule="evenodd" d="M649.873 239.102L649.551 240.164L650.613 240.518L649.487 240.55L649.519 241.676L649.133 240.614L648.071 240.968L648.94 240.293L648.296 239.359L649.229 240.003L649.873 239.102Z" fill="#6A44CC"/>
<path fill-rule="evenodd" clip-rule="evenodd" d="M677.641 318.159L678.671 321.473L681.985 320.508L679.153 322.535L681.116 325.398L678.349 323.307L676.225 326.074L677.319 322.76L674.037 321.602L677.512 321.634L677.641 318.159Z" fill="#6A44CC"/>
<path fill-rule="evenodd" clip-rule="evenodd" d="M992.261 98.5239L993.612 102.868L997.988 101.581L994.288 104.219L996.83 107.984L993.194 105.249L990.394 108.853L991.842 104.541L987.563 103.029L992.132 103.061L992.261 98.5239Z" fill="#6A44CC"/>
<path fill-rule="evenodd" clip-rule="evenodd" d="M793.057 235.659L797.465 236.914L798.817 232.506L798.978 237.107L803.547 237.011L799.267 238.587L800.747 242.931L797.916 239.327L794.28 242.094L796.822 238.265L793.057 235.659Z" fill="#6A44CC"/>
<path fill-rule="evenodd" clip-rule="evenodd" d="M764.034 299.4L761.911 300.398L762.876 302.521L761.267 300.816L759.529 302.36L760.656 300.333L758.629 299.175L760.945 299.593L761.428 297.309L761.717 299.625L764.034 299.4Z" fill="#6A44CC"/>
<path fill-rule="evenodd" clip-rule="evenodd" d="M790.065 322.149L791.899 325.077L794.891 323.307L792.639 325.978L795.245 328.262L792.028 326.943L790.676 330.129L790.934 326.686L787.458 326.364L790.837 325.527L790.065 322.149Z" fill="#6A44CC"/>
<path fill-rule="evenodd" clip-rule="evenodd" d="M687.744 5.85596L690.125 9.71711L694.051 7.40042L691.091 10.8755L694.533 13.8678L690.318 12.1625L688.517 16.3132L688.838 11.7764L684.334 11.3581L688.742 10.2963L687.744 5.85596Z" fill="#6A44CC"/>
<path fill-rule="evenodd" clip-rule="evenodd" d="M1242.95 600.667L1246.03 605.622L1251.05 602.629L1247.29 607.102L1251.67 610.963L1246.26 608.743L1243.94 614.116L1244.36 608.292L1238.57 607.745L1244.23 606.362L1242.95 600.667Z" fill="#6A44CC"/>
<path fill-rule="evenodd" clip-rule="evenodd" d="M1231.46 123.911L1230.33 125.069L1231.46 126.228L1230.01 125.52L1229.27 126.968L1229.5 125.359L1227.92 125.102L1229.5 124.812L1229.27 123.235L1230.01 124.651L1231.46 123.911Z" fill="#2A1E38"/>
<path fill-rule="evenodd" clip-rule="evenodd" d="M1272.68 2.28447L1271.87 3.66805L1273.26 4.50463L1271.68 4.18287L1271.33 5.7595L1271.13 4.15069L1269.52 4.31157L1271 3.63587L1270.36 2.15576L1271.45 3.34628L1272.68 2.28447Z" fill="#2A1E38"/>
<path fill-rule="evenodd" clip-rule="evenodd" d="M1228.63 46.8807L1228.6 36.166L1217.91 35.973L1228.08 32.6588L1224.93 22.4268L1231.27 31.05L1240.02 24.9365L1233.74 33.5919L1242.3 40.0272L1232.1 36.7452L1228.63 46.8807Z" fill="#2A1E38"/>
<path fill-rule="evenodd" clip-rule="evenodd" d="M1248.93 546.417L1253.21 546.9L1253.76 542.653L1254.63 546.868L1258.84 546.096L1255.11 548.187L1257.14 551.952L1253.98 549.056L1251.02 552.145L1252.79 548.284L1248.93 546.417Z" fill="#2A1E38"/>
<path fill-rule="evenodd" clip-rule="evenodd" d="M1216.69 558.709L1217.85 557.003L1216.14 555.813L1218.14 556.36L1218.75 554.397L1218.81 556.456L1220.91 556.424L1218.94 557.132L1219.65 559.095L1218.36 557.454L1216.69 558.709Z" fill="#2A1E38"/>
<path fill-rule="evenodd" clip-rule="evenodd" d="M1257.52 278.582L1257.49 270.248L1249.16 270.088L1257.1 267.513L1254.66 259.534L1259.55 266.259L1266.37 261.496L1261.51 268.253L1268.17 273.241L1260.22 270.699L1257.52 278.582Z" fill="#2A1E38"/>
<path fill-rule="evenodd" clip-rule="evenodd" d="M1268.2 461.472L1270.26 453.396L1262.22 451.176L1270.55 450.629L1270.17 442.295L1273.26 450.049L1276.76 448.73V450.661L1274.64 452.43L1276.76 455.101V456.999L1272.81 454.49L1268.2 461.472Z" fill="#2A1E38"/>
<path fill-rule="evenodd" clip-rule="evenodd" d="M1238.44 344.576L1240.05 338.269L1233.78 336.564L1240.28 336.113L1239.95 329.646L1242.37 335.663L1248.45 333.378L1243.46 337.529L1247.51 342.613L1242.01 339.138L1238.44 344.576Z" fill="#2A1E38"/>
<path fill-rule="evenodd" clip-rule="evenodd" d="M1232.39 227.969L1230.24 222.531L1224.77 224.558L1229.27 220.858L1225.63 216.289L1230.56 219.41L1233.81 214.551L1232.33 220.182L1237.96 221.759L1232.13 222.113L1232.39 227.969Z" fill="#6A44CC"/>
<path fill-rule="evenodd" clip-rule="evenodd" d="M1247.64 406.805L1245.97 402.589L1241.72 404.166L1245.23 401.27L1242.4 397.731L1246.23 400.144L1248.74 396.379L1247.61 400.788L1251.99 401.978L1247.45 402.268L1247.64 406.805Z" fill="#6A44CC"/>
<path fill-rule="evenodd" clip-rule="evenodd" d="M1260.55 172.915L1260.51 174.041L1261.64 174.106L1260.55 174.395L1260.84 175.489L1260.19 174.556L1259.26 175.167L1259.93 174.266L1259.07 173.559L1260.13 173.945L1260.55 172.915Z" fill="#6A44CC"/>
<path fill-rule="evenodd" clip-rule="evenodd" d="M789.679 601.342L787.78 611.896L798.27 613.955L787.684 615.436L788.939 626.054L784.273 616.433L774.556 620.905L782.278 613.505L775.006 605.622L784.434 610.673L789.679 601.342Z" fill="#2A1E38"/>
<path fill-rule="evenodd" clip-rule="evenodd" d="M1050.34 604.335L1048.86 612.54L1057.03 614.149L1048.79 615.307L1049.76 623.576L1046.12 616.079L1038.56 619.554L1044.58 613.795L1038.92 607.681L1046.28 611.607L1050.34 604.335Z" fill="#2A1E38"/>
<path fill-rule="evenodd" clip-rule="evenodd" d="M1185.8 618.975L1184.77 620.744L1186.54 621.806L1184.51 621.388L1184.06 623.415L1183.84 621.356L1181.78 621.549L1183.64 620.712L1182.84 618.782L1184.22 620.326L1185.8 618.975Z" fill="#2A1E38"/>
<path fill-rule="evenodd" clip-rule="evenodd" d="M687.165 588.729L687.519 593.685L692.474 593.427L687.873 595.293L689.675 599.927L686.457 596.13L682.628 599.283L685.235 595.036L681.052 592.365L685.878 593.524L687.165 588.729Z" fill="#2A1E38"/>
<path fill-rule="evenodd" clip-rule="evenodd" d="M835.144 612.507L836.913 618.074L842.512 616.433L837.75 619.811L841.032 624.638L836.366 621.163L832.795 625.764L834.661 620.262L829.159 618.299L834.983 618.331L835.144 612.507Z" fill="#6A44CC"/>
<path fill-rule="evenodd" clip-rule="evenodd" d="M953.81 619.554L953.746 621.002L955.193 621.067L953.81 621.485L954.164 622.868L953.359 621.678L952.137 622.45L953.038 621.324L951.911 620.391L953.295 620.906L953.81 619.554Z" fill="#6A44CC"/>
<path fill-rule="evenodd" clip-rule="evenodd" d="M1530.02 6.9179L1525.91 5.66302L1524.59 9.74941L1524.52 5.46997H1520.24L1524.26 4.05421L1522.95 0L1525.55 3.41068L1528.99 0.900935L1526.55 4.40815L1530.02 6.9179Z" fill="#2A1E38"/>
<path fill-rule="evenodd" clip-rule="evenodd" d="M1456.66 18.3403L1455.54 24.6147L1461.78 25.8696L1455.47 26.7383L1456.24 33.0449L1453.44 27.3175L1447.69 29.9881L1452.25 25.58L1447.94 20.9144L1453.54 23.9068L1456.66 18.3403Z" fill="#2A1E38"/>
<path fill-rule="evenodd" clip-rule="evenodd" d="M1309.78 130.314L1308.91 135.205L1313.77 136.17L1308.84 136.846L1309.46 141.769L1307.27 137.296L1302.76 139.388L1306.37 135.945L1302.99 132.309L1307.36 134.626L1309.78 130.314Z" fill="#2A1E38"/>
<path fill-rule="evenodd" clip-rule="evenodd" d="M1324.48 188.939L1325.09 197.24L1333.43 196.79L1325.7 199.943L1328.73 207.73L1323.32 201.359L1316.86 206.636L1321.23 199.525L1314.25 195.02L1322.33 196.983L1324.48 188.939Z" fill="#2A1E38"/>
<path fill-rule="evenodd" clip-rule="evenodd" d="M1464.16 179.801L1468.92 184.306L1473.52 179.64L1470.69 185.561L1476.55 188.489L1470.08 187.652L1469.11 194.119L1467.89 187.684L1461.42 188.746L1467.18 185.625L1464.16 179.801Z" fill="#2A1E38"/>
<path fill-rule="evenodd" clip-rule="evenodd" d="M1337.16 92.8931L1333.85 92.7644L1333.62 96.0786L1332.75 92.8609L1329.5 93.6975L1332.3 91.8635L1330.5 89.032L1333.11 91.1234L1335.23 88.5493L1334.07 91.6704L1337.16 92.8931Z" fill="#2A1E38"/>
<path fill-rule="evenodd" clip-rule="evenodd" d="M1480.67 122.656L1481.15 129.156L1487.65 128.802L1481.63 131.247L1483.98 137.296L1479.76 132.341L1474.75 136.46L1478.16 130.926L1472.69 127.418L1478.99 128.963L1480.67 122.656Z" fill="#2A1E38"/>
<path fill-rule="evenodd" clip-rule="evenodd" d="M1385.84 241.419L1388.48 231.026L1378.15 228.194L1388.83 227.486L1388.35 216.804L1392.31 226.746L1402.35 222.982L1394.11 229.803L1400.8 238.169L1391.73 232.474L1385.84 241.419Z" fill="#2A1E38"/>
<path fill-rule="evenodd" clip-rule="evenodd" d="M1481.28 290.584L1477.32 283.183L1469.82 286.98L1475.65 280.931L1469.73 275.011L1477.29 278.679L1481.08 271.182L1479.93 279.515L1488.23 280.835L1479.96 282.282L1481.28 290.584Z" fill="#2A1E38"/>
<path fill-rule="evenodd" clip-rule="evenodd" d="M1512.62 548.734L1516.61 550.246L1518.22 546.289L1517.99 550.568L1522.27 550.89L1518.12 551.984L1519.15 556.135L1516.83 552.531L1513.2 554.815L1515.9 551.469L1512.62 548.734Z" fill="#2A1E38"/>
<path fill-rule="evenodd" clip-rule="evenodd" d="M1406.63 493.423L1408.17 492.039L1406.82 490.463L1408.59 491.525L1409.69 489.755L1409.23 491.782L1411.26 492.232L1409.2 492.458L1409.36 494.517L1408.53 492.619L1406.63 493.423Z" fill="#2A1E38"/>
<path fill-rule="evenodd" clip-rule="evenodd" d="M1349.03 550.761L1351.09 542.685L1343.05 540.465L1351.35 539.918L1350.96 531.584L1354.05 539.338L1361.87 536.41L1355.44 541.72L1360.65 548.219L1353.6 543.779L1349.03 550.761Z" fill="#2A1E38"/>
<path fill-rule="evenodd" clip-rule="evenodd" d="M1544.15 386.115L1538.49 379.905L1532.18 385.472L1536.33 378.168L1529.09 373.888L1537.33 375.561L1539.16 367.356L1540.1 375.69L1548.46 374.918L1540.84 378.393L1544.15 386.115Z" fill="#2A1E38"/>
<path fill-rule="evenodd" clip-rule="evenodd" d="M1422.59 360.085V353.714L1416.22 353.585L1422.27 351.622L1420.4 345.541L1424.16 350.689L1429.38 347.021L1425.64 352.169L1430.73 355.998L1424.68 354.068L1422.59 360.085Z" fill="#2A1E38"/>
<path fill-rule="evenodd" clip-rule="evenodd" d="M1274.32 448.73L1278.6 447.122L1274.32 450.661V448.73ZM1274.32 455.101L1277.41 458.962L1274.32 457V455.101Z" fill="#2A1E38"/>
<path fill-rule="evenodd" clip-rule="evenodd" d="M1353.44 431.805L1350.38 426.014L1344.53 429.006L1349.06 424.276L1344.43 419.643L1350.35 422.507L1353.31 416.683L1352.41 423.15L1358.88 424.18L1352.44 425.338L1353.44 431.805Z" fill="#2A1E38"/>
<path fill-rule="evenodd" clip-rule="evenodd" d="M1323.84 384.731L1326.96 385.922L1328.21 382.833L1328.05 386.179L1331.37 386.405L1328.15 387.273L1328.95 390.523L1327.12 387.724L1324.29 389.461L1326.41 386.887L1323.84 384.731Z" fill="#2A1E38"/>
<path fill-rule="evenodd" clip-rule="evenodd" d="M1526.87 432.835L1527.16 431.419L1525.78 431.098L1527.19 430.937L1527.1 429.489L1527.68 430.808L1528.99 430.261L1527.93 431.226L1528.87 432.32L1527.61 431.612L1526.87 432.835Z" fill="#6A44CC"/>
<path fill-rule="evenodd" clip-rule="evenodd" d="M1486.17 502.561L1484.01 497.123L1478.54 499.183L1483.05 495.45L1479.41 490.881L1484.33 494.034L1487.55 489.144L1486.1 494.807L1491.73 496.383L1485.91 496.737L1486.17 502.561Z" fill="#6A44CC"/>
<path fill-rule="evenodd" clip-rule="evenodd" d="M1354.63 46.9128L1348.87 45.7223L1347.55 51.4497L1346.91 45.6258L1341.05 46.1406L1346.43 43.7274L1344.11 38.3218L1348.07 42.6656L1352.48 38.8044L1349.58 43.9204L1354.63 46.9128Z" fill="#6A44CC"/>
<path fill-rule="evenodd" clip-rule="evenodd" d="M1328.5 257.474L1331.14 256.026L1329.73 253.356L1331.91 255.415L1334.01 253.259L1332.75 255.962L1335.42 257.281L1332.46 256.927L1332.04 259.888L1331.46 256.96L1328.5 257.474Z" fill="#6A44CC"/>
<path fill-rule="evenodd" clip-rule="evenodd" d="M1444.44 548.702L1444.37 547.254L1442.92 547.286L1444.27 546.771L1443.82 545.42L1444.69 546.546L1445.85 545.677L1445.05 546.868L1446.24 547.704L1444.85 547.318L1444.44 548.702Z" fill="#6A44CC"/>
<path fill-rule="evenodd" clip-rule="evenodd" d="M1481.31 350.593L1478.67 346.989L1475.04 349.531L1477.64 345.927L1474.1 343.256L1478.35 344.64L1479.8 340.425V344.865L1484.24 344.962L1480.02 346.345L1481.31 350.593Z" fill="#6A44CC"/>
<path fill-rule="evenodd" clip-rule="evenodd" d="M1380.73 475.212L1377.32 470.482L1372.52 473.796L1375.96 469.098L1371.3 465.559L1376.87 467.393L1378.76 461.858V467.715L1384.59 467.811L1379.05 469.613L1380.73 475.212Z" fill="#6A44CC"/>
<path fill-rule="evenodd" clip-rule="evenodd" d="M1434.49 431.419L1430.37 429.392L1428.28 433.479L1428.93 428.942L1424.39 428.202L1428.93 427.397L1428.22 422.893L1430.37 426.947L1434.46 424.855L1431.28 428.169L1434.49 431.419Z" fill="#6A44CC"/>
<path fill-rule="evenodd" clip-rule="evenodd" d="M1487.52 417.648L1489.77 417.069L1489.22 414.784L1490.48 416.747L1492.47 415.524L1490.99 417.326L1492.76 418.838L1490.61 418.002L1489.71 420.158L1489.84 417.841L1487.52 417.648Z" fill="#6A44CC"/>
<path fill-rule="evenodd" clip-rule="evenodd" d="M1514.26 244.765L1519.34 247.725L1522.4 242.706L1521.14 248.433L1526.87 249.784L1521.01 250.396L1521.5 256.252L1519.15 250.878L1513.71 253.131L1518.09 249.205L1514.26 244.765Z" fill="#6A44CC"/>
<path fill-rule="evenodd" clip-rule="evenodd" d="M1420.85 91.67L1417.89 92.217L1418.4 95.1772L1416.96 92.5387L1414.29 93.9223L1416.35 91.7665L1414.22 89.6429L1416.92 90.9299L1418.24 88.2593L1417.86 91.2195L1420.85 91.67Z" fill="#6A44CC"/>
<path fill-rule="evenodd" clip-rule="evenodd" d="M1504.32 85.6533L1503.9 87.0369L1505.28 87.4552L1503.83 87.5195V88.9675L1503.35 87.5839L1501.97 88.0344L1503.13 87.1656L1502.26 86.0073L1503.48 86.8117L1504.32 85.6533Z" fill="#6A44CC"/>
<path fill-rule="evenodd" clip-rule="evenodd" d="M1408.91 151.486L1410.26 155.733L1414.54 154.478L1410.91 157.052L1413.42 160.753L1409.85 158.082L1407.11 161.621L1408.53 157.374L1404.34 155.894L1408.78 155.926L1408.91 151.486Z" fill="#6A44CC"/>
<path fill-rule="evenodd" clip-rule="evenodd" d="M1310.65 502.4L1316.31 504.009L1318.01 498.378L1318.24 504.267L1324.1 504.17L1318.59 506.197L1320.49 511.732L1316.89 507.13L1312.19 510.67L1315.44 505.779L1310.65 502.4Z" fill="#6A44CC"/>
<path fill-rule="evenodd" clip-rule="evenodd" d="M1290.95 239.102L1290.63 240.164L1291.69 240.518L1290.57 240.55L1290.6 241.676L1290.21 240.614L1289.15 240.968L1290.02 240.293L1289.38 239.359L1290.31 240.003L1290.95 239.102Z" fill="#6A44CC"/>
<path fill-rule="evenodd" clip-rule="evenodd" d="M1318.72 318.159L1319.75 321.473L1323.07 320.508L1320.24 322.535L1322.2 325.398L1319.43 323.307L1317.31 326.074L1318.4 322.76L1315.12 321.602L1318.59 321.634L1318.72 318.159Z" fill="#6A44CC"/>
<path fill-rule="evenodd" clip-rule="evenodd" d="M1434.14 235.659L1438.55 236.914L1439.9 232.506L1440.06 237.107L1444.63 237.011L1440.35 238.587L1441.83 242.931L1439 239.327L1435.36 242.094L1437.9 238.265L1434.14 235.659Z" fill="#6A44CC"/>
<path fill-rule="evenodd" clip-rule="evenodd" d="M1405.12 299.4L1402.99 300.398L1403.96 302.521L1402.35 300.816L1400.61 302.36L1401.74 300.333L1399.71 299.175L1402.03 299.593L1402.51 297.309L1402.8 299.625L1405.12 299.4Z" fill="#6A44CC"/>
<path fill-rule="evenodd" clip-rule="evenodd" d="M1431.15 322.149L1432.98 325.077L1435.97 323.307L1433.72 325.978L1436.33 328.262L1433.11 326.943L1431.76 330.129L1432.02 326.686L1428.54 326.364L1431.92 325.527L1431.15 322.149Z" fill="#6A44CC"/>
<path fill-rule="evenodd" clip-rule="evenodd" d="M1328.83 5.85596L1331.21 9.71711L1335.13 7.40042L1332.17 10.8755L1335.62 13.8678L1331.4 12.1625L1329.6 16.3132L1329.92 11.7764L1325.42 11.3581L1329.82 10.2963L1328.83 5.85596Z" fill="#6A44CC"/>
<path fill-rule="evenodd" clip-rule="evenodd" d="M1430.76 601.342L1428.86 611.896L1439.35 613.955L1428.77 615.436L1430.02 626.054L1425.35 616.433L1415.64 620.905L1423.36 613.505L1416.09 605.622L1425.52 610.673L1430.76 601.342Z" fill="#2A1E38"/>
<path fill-rule="evenodd" clip-rule="evenodd" d="M1328.25 588.729L1328.6 593.685L1333.56 593.427L1328.95 595.293L1330.76 599.927L1327.54 596.13L1323.71 599.283L1326.32 595.036L1322.13 592.365L1326.96 593.524L1328.25 588.729Z" fill="#2A1E38"/>
<path fill-rule="evenodd" clip-rule="evenodd" d="M1476.23 612.507L1478 618.074L1483.59 616.433L1478.83 619.811L1482.11 624.638L1477.45 621.163L1473.88 625.764L1475.74 620.262L1470.24 618.299L1476.06 618.331L1476.23 612.507Z" fill="#6A44CC"/>
</g>
</svg>
